<svg width="521" height="338" viewBox="0 0 521 338" fill="none" xmlns="http://www.w3.org/2000/svg">
<rect width="520.174" height="337.838" fill="white"/>
<g clip-path="url(#clip0_715_844)">
<path d="M182.123 138.15C193.86 137.561 204.443 142.098 210.833 152.191L200.605 158.084C195.813 149.755 183.351 147.637 175.142 151.712C170.676 153.951 167.27 157.856 165.657 162.584C163.957 167.671 164.228 174.088 166.645 178.914C168.85 183.327 172.739 186.668 177.434 188.185C182.702 189.925 190.067 189.801 195.053 187.229C199.117 185.134 201.439 182.134 202.841 177.865H184.53V168.676V167.282H214.87C214.875 169.561 214.937 172.198 214.806 174.431C214.449 180.51 212.451 186.288 208.486 190.964C203.355 197.017 196.374 200.267 188.514 200.894C179.429 201.618 170.781 199.602 163.742 193.66C157.414 188.41 153.48 180.823 152.834 172.627C152.122 164.084 154.382 155.7 160.019 149.185C166.103 142.152 172.99 138.901 182.123 138.15Z" fill="#0B0020"/>
<path d="M290.448 155.46C296.105 154.815 301.051 156.658 304.18 161.58C304.682 160.851 305.248 160.168 305.871 159.539C311.614 153.769 322.935 154.038 328.544 159.792C330.636 161.938 332.207 164.856 332.809 167.786C333.716 172.201 333.41 177.096 333.41 181.609L333.409 199.826H322.226L322.221 181.401C322.222 178.535 322.327 175.573 322.164 172.719C321.931 168.662 319.195 165.646 314.978 165.773C306.081 166.04 306.958 174.406 306.959 180.708V192.986V199.826H295.776L295.779 181.227L295.782 175.816C295.781 172.958 295.847 169.974 293.711 167.747C291.073 164.998 285.666 165.18 283.045 167.847C281.113 169.814 280.448 172.663 280.416 175.34C280.387 177.871 280.411 180.412 280.414 182.942L280.412 199.826H269.244V156.585H280.412V161.149C282.805 157.458 286.272 155.948 290.448 155.46Z" fill="#0B0020"/>
<path d="M378.116 139.307H387.22C388.063 141.327 388.957 143.945 389.743 146.051L394.722 159.405L409.794 199.826H401.197C399.619 195.314 397.903 190.744 396.268 186.244H387.234H369.072C368.638 187.625 367.929 189.414 367.425 190.801L364.151 199.826H355.564C357.759 193.559 360.368 186.927 362.698 180.678L378.116 139.307ZM371.833 178.724H382.858H393.505L385.632 157.168L383.598 151.564C383.421 151.08 382.815 149.355 382.609 149.029L375.483 168.684C374.315 171.906 373.081 175.603 371.833 178.724Z" fill="#0B0020"/>
<path d="M239.205 155.47C241.14 155.236 243.894 155.366 245.806 155.729C258.687 158.173 265.14 170.558 262.973 182.809H230.416C232.227 189.361 237.808 191.301 244.014 190.842C247.472 190.586 250.035 189.244 252.267 186.575L256.434 188.977L261.27 191.771C257.601 197.28 251.722 200.379 245.192 200.912C238.406 201.481 231.979 200.214 226.628 195.861C217.066 188.083 216.081 172.591 223.9 163.272C227.934 158.465 232.928 156.02 239.205 155.47ZM241.953 174.12H252.26C250.626 168.2 246.849 165.146 240.614 165.44C235.247 165.996 231.446 168.638 230.244 174.12H241.953Z" fill="#0B0020"/>
<path d="M64.9429 174.801L93.2997 174.801V203.164H64.9206L64.9214 184.607C64.9214 181.516 64.8261 177.855 64.9429 174.801Z" fill="#7A31F7"/>
<path d="M118.089 134.045C121.554 133.495 125.888 134.917 128.643 137.006C131.803 139.399 133.879 142.953 134.413 146.881C134.958 150.83 133.905 154.833 131.487 158.002C128.856 161.44 125.388 163.232 121.153 163.8C117.431 164.242 113.419 163.053 110.46 160.767C107.32 158.343 105.273 154.769 104.772 150.833C104.262 146.896 105.339 142.917 107.765 139.773C110.382 136.394 113.893 134.576 118.089 134.045Z" fill="#7A31F7"/>
<path d="M341.107 156.585H352.275V199.826H341.107V156.585Z" fill="#0B0020"/>
<path d="M346.39 137.686C350.148 137.521 353.339 140.407 353.552 144.162C353.766 147.917 350.921 151.145 347.168 151.406C344.699 151.578 342.327 150.408 340.961 148.343C339.595 146.278 339.445 143.638 340.569 141.432C341.693 139.226 343.916 137.795 346.39 137.686Z" fill="#0B0020"/>
<path d="M456.033 139.307V199.826H448.495V192.457C443.704 199.404 436.553 202.049 428.34 200.638C415.741 198.473 408.569 186.012 410.646 173.938C411.701 167.974 415.086 162.675 420.053 159.21C424.773 155.883 430.575 154.81 436.234 155.792C441.757 156.75 445.339 159.466 448.495 163.957V139.307H456.033ZM434.979 193.585C443.481 192.583 449.553 184.869 448.533 176.37C447.512 167.87 439.785 161.814 431.288 162.853C422.817 163.889 416.784 171.587 417.802 180.06C418.819 188.534 426.503 194.584 434.979 193.585Z" fill="#0B0020"/>
<path d="M118.266 203.926C113.688 203.168 110.216 201.577 107.427 197.684C105.121 194.451 104.194 190.434 104.851 186.517C105.507 182.593 107.699 179.092 110.942 176.788C114.177 174.495 118.19 173.579 122.1 174.243C126.024 174.904 129.521 177.104 131.815 180.355C134.107 183.602 135.013 187.627 134.333 191.542C133.659 195.455 131.456 198.937 128.209 201.221C125.814 202.908 123.72 203.492 120.878 203.926H118.266Z" fill="#B256F7"/>
<path d="M64.1426 147.871C64.8021 143.303 66.3399 139.791 70.1551 136.935C73.3427 134.563 77.3416 133.554 81.2729 134.129C85.2065 134.703 88.75 136.819 91.1208 140.01C93.487 143.202 94.4843 147.205 93.8925 151.134C93.3153 155.063 91.1914 158.598 87.9934 160.952C84.7914 163.318 80.7783 164.309 76.8431 163.706C72.9165 163.105 69.3898 160.968 67.0404 157.765C65.8095 156.102 64.9499 154.194 64.52 152.17C64.372 151.463 64.2811 150.636 64.1426 149.999V147.871Z" fill="#B256F7"/>
</g>
<defs>
<clipPath id="clip0_715_844">
<rect width="391.89" height="70.0151" fill="white" transform="translate(64.1426 133.911)"/>
</clipPath>
</defs>
</svg>
