<svg width="217" height="56" viewBox="0 0 217 56" fill="none" xmlns="http://www.w3.org/2000/svg">
<mask id="mask0_1006_394" style="mask-type:luminance" maskUnits="userSpaceOnUse" x="22" y="18" width="36" height="36">
<path d="M22.667 18.6667H57.3337V53.3334H22.667V18.6667Z" fill="white"/>
</mask>
<g mask="url(#mask0_1006_394)">
<mask id="mask1_1006_394" style="mask-type:luminance" maskUnits="userSpaceOnUse" x="20" y="15" width="40" height="42">
<path d="M47.4746 56.6408L20.3965 27.1408L32.6257 15.9116L59.709 45.4116L47.4746 56.6408Z" fill="white"/>
</mask>
<g mask="url(#mask1_1006_394)">
<mask id="mask2_1006_394" style="mask-type:luminance" maskUnits="userSpaceOnUse" x="20" y="15" width="40" height="42">
<path d="M47.4746 56.6408L20.3965 27.1408L32.6257 15.9116L59.709 45.4116L47.4746 56.6408Z" fill="white"/>
</mask>
<g mask="url(#mask2_1006_394)">
<mask id="mask3_1006_394" style="mask-type:luminance" maskUnits="userSpaceOnUse" x="23" y="19" width="34" height="35">
<path d="M37.745 21.9845L53.8961 39.5782C56.9325 42.8907 56.7138 48.0366 53.4013 51.073C50.094 54.1095 44.9482 53.8907 41.9117 50.5782L25.7607 32.9845C22.7242 29.6772 22.943 24.5314 26.2502 21.4949C29.5628 18.4532 34.7086 18.6772 37.745 21.9845Z" fill="white"/>
</mask>
<g mask="url(#mask3_1006_394)">
<path d="M38.3652 71.1512L74.6934 37.8075L41.2871 1.41162L4.95898 34.7606L38.3652 71.1512Z" fill="url(#paint0_linear_1006_394)"/>
</g>
</g>
</g>
</g>
<mask id="mask4_1006_394" style="mask-type:luminance" maskUnits="userSpaceOnUse" x="21" y="1" width="33" height="27">
<path d="M21.792 1.95312H53.693V27.349H21.792V1.95312Z" fill="white"/>
</mask>
<g mask="url(#mask4_1006_394)">
<mask id="mask5_1006_394" style="mask-type:luminance" maskUnits="userSpaceOnUse" x="21" y="1" width="33" height="27">
<path d="M21.8232 1.95312V27.7552H40.766C47.891 27.7552 53.667 21.9792 53.667 14.8542C53.667 7.72917 47.891 1.95312 40.766 1.95312H21.8232Z" fill="white"/>
</mask>
<g mask="url(#mask5_1006_394)">
<path d="M53.667 1.95312V27.349H21.8232V1.95312H53.667Z" fill="url(#paint1_linear_1006_394)"/>
</g>
</g>
<mask id="mask6_1006_394" style="mask-type:luminance" maskUnits="userSpaceOnUse" x="11" y="2" width="22" height="51">
<path d="M11.6045 2.17188H32.1149V52.9635H11.6045V2.17188Z" fill="white"/>
</mask>
<g mask="url(#mask6_1006_394)">
<mask id="mask7_1006_394" style="mask-type:luminance" maskUnits="userSpaceOnUse" x="11" y="2" width="22" height="52">
<path d="M11.4688 42.9167V12.599C11.4688 6.90112 16.0938 2.27612 21.7917 2.27612C27.4948 2.27612 32.1146 6.90112 32.1146 12.599V42.9167C32.1146 48.6199 27.4948 53.2397 21.7917 53.2397C16.0938 53.2397 11.4688 48.6199 11.4688 42.9167Z" fill="white"/>
</mask>
<g mask="url(#mask7_1006_394)">
<path d="M32.1149 2.27612H11.6045V52.9636H32.1149V2.27612Z" fill="url(#paint2_linear_1006_394)"/>
</g>
</g>
<path d="M91.1598 40.5348L84.9307 29.7223H81.5557V40.5348H77.1182V13.4932H86.4515C88.5192 13.4932 90.2744 13.863 91.7223 14.5973C93.165 15.3213 94.2432 16.2952 94.9515 17.514C95.6598 18.7223 96.014 20.0869 96.014 21.5973C96.014 23.363 95.4984 24.9671 94.4723 26.4098C93.4567 27.8421 91.889 28.8161 89.764 29.3265L96.4515 40.5348H91.1598ZM81.5557 26.1807H86.4515C88.1182 26.1807 89.3682 25.7744 90.2015 24.9515C91.0452 24.1182 91.4723 23.0036 91.4723 21.5973C91.4723 20.1963 91.0557 19.0973 90.2223 18.3057C89.389 17.514 88.1286 17.1182 86.4515 17.1182H81.5557V26.1807Z" fill="black"/>
<path d="M121.35 29.2848C121.35 30.0921 121.292 30.8213 121.183 31.4723H104.808C104.943 33.1807 105.584 34.5557 106.725 35.5973C107.86 36.639 109.266 37.1598 110.933 37.1598C113.308 37.1598 114.985 36.1598 115.975 34.1598H120.766C120.11 36.1338 118.938 37.7536 117.245 39.014C115.548 40.264 113.443 40.889 110.933 40.889C108.876 40.889 107.037 40.4307 105.412 39.514C103.798 38.5869 102.527 37.2848 101.6 35.6182C100.683 33.9411 100.225 32.0036 100.225 29.8057C100.225 27.5973 100.667 25.6598 101.558 23.9932C102.459 22.3161 103.714 21.0244 105.329 20.1182C106.954 19.2015 108.818 18.7432 110.933 18.7432C112.943 18.7432 114.745 19.1911 116.329 20.0765C117.912 20.9515 119.141 22.1911 120.016 23.7848C120.902 25.3838 121.35 27.2171 121.35 29.2848ZM116.725 27.889C116.693 26.264 116.11 24.9619 114.975 23.9723C113.834 22.988 112.417 22.4932 110.725 22.4932C109.193 22.4932 107.881 22.9827 106.787 23.9515C105.704 24.9255 105.058 26.238 104.85 27.889H116.725Z" fill="black"/>
<path d="M133.998 36.5766L140.061 19.0974H144.769L136.602 40.5349H131.311L123.186 19.0974H127.915L133.998 36.5766Z" fill="black"/>
<path d="M153.28 22.7224V34.5766C153.28 35.3839 153.468 35.9672 153.843 36.3266C154.218 36.6755 154.864 36.8474 155.78 36.8474H158.509V40.5349H154.989C152.999 40.5349 151.473 40.0714 150.405 39.1391C149.348 38.212 148.822 36.6912 148.822 34.5766V22.7224H146.28V19.0974H148.822V13.7849H153.28V19.0974H158.509V22.7224H153.28Z" fill="black"/>
<path d="M171.877 40.889C169.861 40.889 168.033 40.4307 166.397 39.514C164.757 38.5869 163.47 37.2848 162.543 35.6182C161.611 33.9411 161.147 32.0036 161.147 29.8057C161.147 27.6286 161.627 25.6963 162.585 24.014C163.543 22.3213 164.845 21.0244 166.502 20.1182C168.168 19.2015 170.028 18.7432 172.085 18.7432C174.127 18.7432 175.97 19.2015 177.627 20.1182C179.293 21.0244 180.606 22.3213 181.564 24.014C182.522 25.6963 183.002 27.6286 183.002 29.8057C183.002 31.988 182.507 33.9202 181.522 35.5973C180.533 37.2796 179.194 38.5869 177.502 39.514C175.804 40.4307 173.929 40.889 171.877 40.889ZM171.877 37.0348C173.012 37.0348 174.085 36.764 175.085 36.2223C176.085 35.6807 176.897 34.8682 177.522 33.7848C178.147 32.6911 178.46 31.363 178.46 29.8057C178.46 28.2536 178.158 26.9411 177.564 25.8682C176.965 24.7848 176.174 23.9723 175.189 23.4307C174.2 22.8786 173.137 22.5973 172.002 22.5973C170.861 22.5973 169.804 22.8786 168.835 23.4307C167.861 23.9723 167.09 24.7848 166.522 25.8682C165.95 26.9411 165.668 28.2536 165.668 29.8057C165.668 32.113 166.252 33.8994 167.418 35.1598C168.595 36.4098 170.085 37.0348 171.877 37.0348Z" fill="black"/>
<path d="M196.696 40.889C194.68 40.889 192.852 40.4307 191.217 39.514C189.576 38.5869 188.29 37.2848 187.363 35.6182C186.43 33.9411 185.967 32.0036 185.967 29.8057C185.967 27.6286 186.446 25.6963 187.404 24.014C188.363 22.3213 189.665 21.0244 191.321 20.1182C192.988 19.2015 194.847 18.7432 196.904 18.7432C198.946 18.7432 200.79 19.2015 202.446 20.1182C204.113 21.0244 205.425 22.3213 206.383 24.014C207.342 25.6963 207.821 27.6286 207.821 29.8057C207.821 31.988 207.326 33.9202 206.342 35.5973C205.352 37.2796 204.014 38.5869 202.321 39.514C200.623 40.4307 198.748 40.889 196.696 40.889ZM196.696 37.0348C197.831 37.0348 198.904 36.764 199.904 36.2223C200.904 35.6807 201.717 34.8682 202.342 33.7848C202.967 32.6911 203.279 31.363 203.279 29.8057C203.279 28.2536 202.977 26.9411 202.383 25.8682C201.785 24.7848 200.993 23.9723 200.008 23.4307C199.019 22.8786 197.956 22.5973 196.821 22.5973C195.68 22.5973 194.623 22.8786 193.654 23.4307C192.68 23.9723 191.91 24.7848 191.342 25.8682C190.769 26.9411 190.488 28.2536 190.488 29.8057C190.488 32.113 191.071 33.8994 192.238 35.1598C193.415 36.4098 194.904 37.0348 196.696 37.0348Z" fill="black"/>
<defs>
<linearGradient id="paint0_linear_1006_394" x1="56.7557" y1="54.4868" x2="22.9003" y2="18.0781" gradientUnits="userSpaceOnUse">
<stop stop-color="#5CE1E6"/>
<stop offset="0.00639816" stop-color="#5CE1E6"/>
<stop offset="0.125" stop-color="#5CE1E6"/>
<stop offset="0.1875" stop-color="#5CE1E6"/>
<stop offset="0.21875" stop-color="#5CE1E6"/>
<stop offset="0.222656" stop-color="#5BE1E5"/>
<stop offset="0.226562" stop-color="#5BE0E4"/>
<stop offset="0.230469" stop-color="#5AE0E3"/>
<stop offset="0.234375" stop-color="#59E0E2"/>
<stop offset="0.238281" stop-color="#59E0E1"/>
<stop offset="0.242187" stop-color="#58E0E1"/>
<stop offset="0.246094" stop-color="#58DFE0"/>
<stop offset="0.25" stop-color="#57DFDF"/>
<stop offset="0.253906" stop-color="#57DFDE"/>
<stop offset="0.257812" stop-color="#56DFDD"/>
<stop offset="0.261719" stop-color="#55DEDC"/>
<stop offset="0.265625" stop-color="#55DEDC"/>
<stop offset="0.269531" stop-color="#54DEDB"/>
<stop offset="0.273437" stop-color="#54DEDA"/>
<stop offset="0.277344" stop-color="#53DED9"/>
<stop offset="0.28125" stop-color="#52DDD8"/>
<stop offset="0.285156" stop-color="#52DDD7"/>
<stop offset="0.289062" stop-color="#51DDD7"/>
<stop offset="0.292969" stop-color="#51DDD6"/>
<stop offset="0.296875" stop-color="#50DDD5"/>
<stop offset="0.300781" stop-color="#50DCD4"/>
<stop offset="0.304688" stop-color="#4FDCD3"/>
<stop offset="0.308594" stop-color="#4EDCD2"/>
<stop offset="0.3125" stop-color="#4EDCD2"/>
<stop offset="0.316406" stop-color="#4DDBD1"/>
<stop offset="0.320312" stop-color="#4DDBD0"/>
<stop offset="0.324219" stop-color="#4CDBCF"/>
<stop offset="0.328125" stop-color="#4BDBCE"/>
<stop offset="0.332031" stop-color="#4BDBCE"/>
<stop offset="0.335937" stop-color="#4ADACD"/>
<stop offset="0.339844" stop-color="#4ADACC"/>
<stop offset="0.34375" stop-color="#49DACB"/>
<stop offset="0.347656" stop-color="#49DACA"/>
<stop offset="0.351562" stop-color="#48D9C9"/>
<stop offset="0.355469" stop-color="#47D9C9"/>
<stop offset="0.359375" stop-color="#47D9C8"/>
<stop offset="0.363281" stop-color="#46D9C7"/>
<stop offset="0.367187" stop-color="#46D9C6"/>
<stop offset="0.371094" stop-color="#45D8C5"/>
<stop offset="0.375" stop-color="#44D8C4"/>
<stop offset="0.378906" stop-color="#44D8C4"/>
<stop offset="0.382812" stop-color="#43D8C3"/>
<stop offset="0.386719" stop-color="#43D8C2"/>
<stop offset="0.390625" stop-color="#42D7C1"/>
<stop offset="0.394531" stop-color="#41D7C0"/>
<stop offset="0.398437" stop-color="#41D7BF"/>
<stop offset="0.402344" stop-color="#40D7BF"/>
<stop offset="0.40625" stop-color="#40D6BE"/>
<stop offset="0.410156" stop-color="#3FD6BD"/>
<stop offset="0.414062" stop-color="#3FD6BC"/>
<stop offset="0.417969" stop-color="#3ED6BB"/>
<stop offset="0.421875" stop-color="#3DD6BA"/>
<stop offset="0.425781" stop-color="#3DD5BA"/>
<stop offset="0.429687" stop-color="#3CD5B9"/>
<stop offset="0.433594" stop-color="#3CD5B8"/>
<stop offset="0.4375" stop-color="#3BD5B7"/>
<stop offset="0.441406" stop-color="#3AD5B6"/>
<stop offset="0.445312" stop-color="#3AD4B5"/>
<stop offset="0.449219" stop-color="#39D4B5"/>
<stop offset="0.453125" stop-color="#39D4B4"/>
<stop offset="0.457031" stop-color="#38D4B3"/>
<stop offset="0.460938" stop-color="#38D3B2"/>
<stop offset="0.464844" stop-color="#37D3B1"/>
<stop offset="0.46875" stop-color="#36D3B0"/>
<stop offset="0.472656" stop-color="#36D3B0"/>
<stop offset="0.476562" stop-color="#35D3AF"/>
<stop offset="0.480469" stop-color="#35D2AE"/>
<stop offset="0.484375" stop-color="#34D2AD"/>
<stop offset="0.488281" stop-color="#33D2AC"/>
<stop offset="0.492187" stop-color="#33D2AB"/>
<stop offset="0.496094" stop-color="#32D2AB"/>
<stop offset="0.5" stop-color="#32D1AA"/>
<stop offset="0.503906" stop-color="#31D1A9"/>
<stop offset="0.507812" stop-color="#31D1A8"/>
<stop offset="0.511719" stop-color="#30D1A7"/>
<stop offset="0.515625" stop-color="#2FD0A6"/>
<stop offset="0.519531" stop-color="#2FD0A6"/>
<stop offset="0.523438" stop-color="#2ED0A5"/>
<stop offset="0.527344" stop-color="#2ED0A4"/>
<stop offset="0.53125" stop-color="#2DD0A3"/>
<stop offset="0.535156" stop-color="#2CCFA2"/>
<stop offset="0.539062" stop-color="#2CCFA1"/>
<stop offset="0.542969" stop-color="#2BCFA1"/>
<stop offset="0.546875" stop-color="#2BCFA0"/>
<stop offset="0.550781" stop-color="#2ACF9F"/>
<stop offset="0.554688" stop-color="#2ACE9E"/>
<stop offset="0.558594" stop-color="#29CE9D"/>
<stop offset="0.5625" stop-color="#28CE9C"/>
<stop offset="0.566406" stop-color="#28CE9C"/>
<stop offset="0.570312" stop-color="#27CD9B"/>
<stop offset="0.574219" stop-color="#27CD9A"/>
<stop offset="0.578125" stop-color="#26CD99"/>
<stop offset="0.582031" stop-color="#25CD98"/>
<stop offset="0.585937" stop-color="#25CD97"/>
<stop offset="0.589844" stop-color="#24CC97"/>
<stop offset="0.59375" stop-color="#24CC96"/>
<stop offset="0.597656" stop-color="#23CC95"/>
<stop offset="0.601562" stop-color="#23CC94"/>
<stop offset="0.605469" stop-color="#22CC93"/>
<stop offset="0.609375" stop-color="#21CB92"/>
<stop offset="0.613281" stop-color="#21CB92"/>
<stop offset="0.617188" stop-color="#20CB91"/>
<stop offset="0.621094" stop-color="#20CB90"/>
<stop offset="0.625" stop-color="#1FCA8F"/>
<stop offset="0.628906" stop-color="#1ECA8E"/>
<stop offset="0.632812" stop-color="#1ECA8D"/>
<stop offset="0.636719" stop-color="#1DCA8D"/>
<stop offset="0.640625" stop-color="#1DCA8C"/>
<stop offset="0.644531" stop-color="#1CC98B"/>
<stop offset="0.648438" stop-color="#1CC98A"/>
<stop offset="0.652344" stop-color="#1BC989"/>
<stop offset="0.65625" stop-color="#1AC988"/>
<stop offset="0.660156" stop-color="#1AC888"/>
<stop offset="0.664062" stop-color="#19C887"/>
<stop offset="0.667969" stop-color="#19C886"/>
<stop offset="0.671875" stop-color="#18C885"/>
<stop offset="0.675781" stop-color="#17C884"/>
<stop offset="0.679687" stop-color="#17C784"/>
<stop offset="0.683594" stop-color="#16C783"/>
<stop offset="0.6875" stop-color="#16C782"/>
<stop offset="0.691406" stop-color="#15C781"/>
<stop offset="0.695312" stop-color="#15C780"/>
<stop offset="0.699219" stop-color="#14C67F"/>
<stop offset="0.703125" stop-color="#13C67F"/>
<stop offset="0.707031" stop-color="#13C67E"/>
<stop offset="0.710938" stop-color="#12C67D"/>
<stop offset="0.714844" stop-color="#12C57C"/>
<stop offset="0.71875" stop-color="#11C57B"/>
<stop offset="0.722656" stop-color="#10C57A"/>
<stop offset="0.726562" stop-color="#10C57A"/>
<stop offset="0.730469" stop-color="#0FC579"/>
<stop offset="0.734375" stop-color="#0FC478"/>
<stop offset="0.738281" stop-color="#0EC477"/>
<stop offset="0.742187" stop-color="#0EC476"/>
<stop offset="0.746094" stop-color="#0DC475"/>
<stop offset="0.75" stop-color="#0CC475"/>
<stop offset="0.753906" stop-color="#0CC374"/>
<stop offset="0.757812" stop-color="#0BC373"/>
<stop offset="0.761719" stop-color="#0BC372"/>
<stop offset="0.765625" stop-color="#0AC371"/>
<stop offset="0.769531" stop-color="#09C270"/>
<stop offset="0.773438" stop-color="#09C270"/>
<stop offset="0.777344" stop-color="#08C26F"/>
<stop offset="0.78125" stop-color="#08C26E"/>
<stop offset="0.785156" stop-color="#07C26D"/>
<stop offset="0.789062" stop-color="#07C16C"/>
<stop offset="0.792969" stop-color="#06C16B"/>
<stop offset="0.796875" stop-color="#05C16B"/>
<stop offset="0.800781" stop-color="#05C16A"/>
<stop offset="0.804688" stop-color="#04C169"/>
<stop offset="0.808594" stop-color="#04C068"/>
<stop offset="0.8125" stop-color="#03C067"/>
<stop offset="0.816406" stop-color="#02C066"/>
<stop offset="0.820313" stop-color="#02C066"/>
<stop offset="0.824219" stop-color="#01BF65"/>
<stop offset="0.828125" stop-color="#01BF64"/>
<stop offset="0.84375" stop-color="#00BF63"/>
<stop offset="0.875" stop-color="#00BF63"/>
<stop offset="0.993602" stop-color="#00BF63"/>
<stop offset="1" stop-color="#00BF63"/>
</linearGradient>
<linearGradient id="paint1_linear_1006_394" x1="21.3694" y1="14.4921" x2="54.0915" y2="15.6749" gradientUnits="userSpaceOnUse">
<stop stop-color="#39B7FE"/>
<stop offset="0.015625" stop-color="#39B7FE"/>
<stop offset="0.0280173" stop-color="#3AB8FE"/>
<stop offset="0.03125" stop-color="#3AB9FD"/>
<stop offset="0.046875" stop-color="#3BB9FD"/>
<stop offset="0.0625" stop-color="#3BBAFD"/>
<stop offset="0.078125" stop-color="#3CBBFC"/>
<stop offset="0.09375" stop-color="#3DBCFC"/>
<stop offset="0.109375" stop-color="#3EBDFB"/>
<stop offset="0.125" stop-color="#3EBDFB"/>
<stop offset="0.140625" stop-color="#3FBEFA"/>
<stop offset="0.15625" stop-color="#40BFFA"/>
<stop offset="0.171875" stop-color="#40C0F9"/>
<stop offset="0.1875" stop-color="#41C1F9"/>
<stop offset="0.203125" stop-color="#42C2F8"/>
<stop offset="0.21875" stop-color="#42C2F8"/>
<stop offset="0.234375" stop-color="#43C3F7"/>
<stop offset="0.25" stop-color="#44C4F7"/>
<stop offset="0.265625" stop-color="#45C5F6"/>
<stop offset="0.28125" stop-color="#45C6F6"/>
<stop offset="0.296875" stop-color="#46C7F5"/>
<stop offset="0.3125" stop-color="#47C7F5"/>
<stop offset="0.328125" stop-color="#47C8F4"/>
<stop offset="0.34375" stop-color="#48C9F4"/>
<stop offset="0.359375" stop-color="#49CAF3"/>
<stop offset="0.375" stop-color="#4ACBF3"/>
<stop offset="0.390625" stop-color="#4ACCF2"/>
<stop offset="0.40625" stop-color="#4BCDF2"/>
<stop offset="0.421875" stop-color="#4CCDF1"/>
<stop offset="0.4375" stop-color="#4CCEF1"/>
<stop offset="0.453125" stop-color="#4DCFF0"/>
<stop offset="0.46875" stop-color="#4ED0F0"/>
<stop offset="0.484375" stop-color="#4FD1EF"/>
<stop offset="0.5" stop-color="#4FD2EF"/>
<stop offset="0.515625" stop-color="#50D2EE"/>
<stop offset="0.53125" stop-color="#51D3EE"/>
<stop offset="0.546875" stop-color="#51D4ED"/>
<stop offset="0.5625" stop-color="#52D5ED"/>
<stop offset="0.578125" stop-color="#53D6EC"/>
<stop offset="0.59375" stop-color="#53D7EC"/>
<stop offset="0.609375" stop-color="#54D8EB"/>
<stop offset="0.625" stop-color="#55D8EB"/>
<stop offset="0.640625" stop-color="#56D9EB"/>
<stop offset="0.65625" stop-color="#56DAEA"/>
<stop offset="0.671875" stop-color="#57DBEA"/>
<stop offset="0.6875" stop-color="#58DCE9"/>
<stop offset="0.703125" stop-color="#58DDE9"/>
<stop offset="0.71875" stop-color="#59DDE8"/>
<stop offset="0.734375" stop-color="#5ADEE8"/>
<stop offset="0.75" stop-color="#5BDFE7"/>
<stop offset="0.765625" stop-color="#5BE0E7"/>
<stop offset="0.78125" stop-color="#5CE1E6"/>
<stop offset="0.8125" stop-color="#5CE1E6"/>
<stop offset="0.875" stop-color="#5CE1E6"/>
<stop offset="0.971983" stop-color="#5CE1E6"/>
<stop offset="1" stop-color="#5CE1E6"/>
</linearGradient>
<linearGradient id="paint2_linear_1006_394" x1="21.6291" y1="2.21365" x2="21.9569" y2="53.0281" gradientUnits="userSpaceOnUse">
<stop stop-color="#5CE1E6"/>
<stop offset="0.0026038" stop-color="#5CE1E6"/>
<stop offset="0.125" stop-color="#5CE1E6"/>
<stop offset="0.15625" stop-color="#5CE1E6"/>
<stop offset="0.171875" stop-color="#5BE0E6"/>
<stop offset="0.1875" stop-color="#5BDFE7"/>
<stop offset="0.203125" stop-color="#5ADEE7"/>
<stop offset="0.21875" stop-color="#59DEE8"/>
<stop offset="0.234375" stop-color="#59DDE8"/>
<stop offset="0.25" stop-color="#58DCE9"/>
<stop offset="0.265625" stop-color="#57DBE9"/>
<stop offset="0.28125" stop-color="#56DAEA"/>
<stop offset="0.296875" stop-color="#56D9EB"/>
<stop offset="0.3125" stop-color="#55D8EB"/>
<stop offset="0.328125" stop-color="#54D7EC"/>
<stop offset="0.34375" stop-color="#53D7EC"/>
<stop offset="0.359375" stop-color="#53D6ED"/>
<stop offset="0.375" stop-color="#52D5ED"/>
<stop offset="0.390625" stop-color="#51D4EE"/>
<stop offset="0.40625" stop-color="#50D3EE"/>
<stop offset="0.421875" stop-color="#50D2EF"/>
<stop offset="0.4375" stop-color="#4FD1EF"/>
<stop offset="0.453125" stop-color="#4ED0F0"/>
<stop offset="0.46875" stop-color="#4DD0F0"/>
<stop offset="0.484375" stop-color="#4DCFF1"/>
<stop offset="0.5" stop-color="#4CCEF1"/>
<stop offset="0.515625" stop-color="#4BCDF2"/>
<stop offset="0.53125" stop-color="#4BCCF2"/>
<stop offset="0.546875" stop-color="#4ACBF3"/>
<stop offset="0.5625" stop-color="#49CAF3"/>
<stop offset="0.578125" stop-color="#48C9F4"/>
<stop offset="0.59375" stop-color="#48C9F4"/>
<stop offset="0.609375" stop-color="#47C8F5"/>
<stop offset="0.625" stop-color="#46C7F5"/>
<stop offset="0.640625" stop-color="#45C6F6"/>
<stop offset="0.65625" stop-color="#45C5F6"/>
<stop offset="0.671875" stop-color="#44C4F7"/>
<stop offset="0.6875" stop-color="#43C3F7"/>
<stop offset="0.703125" stop-color="#42C2F8"/>
<stop offset="0.71875" stop-color="#42C2F8"/>
<stop offset="0.734375" stop-color="#41C1F9"/>
<stop offset="0.75" stop-color="#40C0F9"/>
<stop offset="0.765625" stop-color="#40BFFA"/>
<stop offset="0.78125" stop-color="#3FBEFA"/>
<stop offset="0.796875" stop-color="#3EBDFB"/>
<stop offset="0.8125" stop-color="#3DBCFB"/>
<stop offset="0.828125" stop-color="#3DBBFC"/>
<stop offset="0.84375" stop-color="#3CBBFC"/>
<stop offset="0.859375" stop-color="#3BBAFD"/>
<stop offset="0.875" stop-color="#3AB9FD"/>
<stop offset="0.890625" stop-color="#3AB8FE"/>
<stop offset="0.90625" stop-color="#39B7FE"/>
<stop offset="0.9375" stop-color="#38B6FF"/>
<stop offset="0.997396" stop-color="#38B6FF"/>
<stop offset="1" stop-color="#38B6FF"/>
</linearGradient>
</defs>
</svg>
