<svg width="77" height="50" viewBox="0 0 77 50" fill="none" xmlns="http://www.w3.org/2000/svg">
<rect width="76.9857" height="50" fill="white"/>
<path d="M32.3723 25.755C32.7122 24.9241 33.1123 24.1153 33.4956 23.3017C33.7057 22.8383 33.945 22.3474 34.1982 21.9153C34.5146 21.3752 35.6234 21.3867 35.9263 21.8757C36.5226 22.8383 36.9379 24.0067 37.4581 25.0206C37.6177 25.3317 37.7291 25.6777 37.8795 25.9855C37.966 25.4299 38.0944 24.8696 38.2306 24.3233C38.4537 23.4283 38.6432 22.517 38.8776 21.6259C39.465 21.6267 40.1712 21.6457 40.7492 21.6174C40.3806 23.0774 40.0038 24.5354 39.6189 25.9913C39.4397 26.6683 39.2682 27.4509 39.0242 28.0959C38.6986 28.9565 37.4731 28.9388 37.0743 28.0953C36.4285 26.7294 35.5793 25.3236 35.0375 23.9206C34.4597 25.2528 33.7897 26.5293 33.1457 27.8293C32.965 28.194 32.7907 28.5112 32.3881 28.668C32.1326 28.7673 31.8483 28.7618 31.5969 28.6528C31.1093 28.4383 30.979 27.9749 30.8575 27.4999C30.7407 27.0431 30.6273 26.5851 30.5106 26.1283L29.7551 23.1923C29.6288 22.6962 29.4991 22.1131 29.3604 21.6285C29.967 21.6276 30.6689 21.6433 31.2679 21.6163C31.3241 21.7909 31.3688 21.9702 31.4093 22.149C31.6844 23.362 32.0293 24.5775 32.2433 25.8021L32.2651 25.905L32.2959 25.9131L32.3723 25.755Z" fill="#454444"/>
<path d="M22.2036 21.0556C23.2756 21.0279 25.6603 20.9381 26.5938 21.2027C30.2062 22.2264 29.6048 26.7967 25.9205 27.098C25.6665 27.1188 25.2807 27.1173 25.0434 27.2035C24.7328 27.3522 25.1352 28.2887 24.7973 28.4735C23.9526 28.5804 23.0294 28.504 22.1733 28.5052C21.7236 28.5058 22.2499 27.1656 22.3062 27.001C22.7203 26.0193 23.28 25.3178 24.125 24.6714C24.2619 24.5667 24.5453 24.3138 24.6873 24.4995C24.7035 24.6222 24.6061 24.9219 24.5687 25.0617C25.0577 24.5612 25.6886 24.341 26.1755 24.9799L26.2066 24.9814C26.3191 24.7709 25.9828 24.4627 26.0812 24.1552C26.18 23.8467 26.5993 23.8113 26.6773 23.587C26.5566 23.4221 25.8444 23.7093 25.692 23.3445C25.6303 23.1971 25.5045 22.9225 25.4267 22.7898C25.2688 22.9893 25.1832 23.355 25.0174 23.4967C24.9323 23.5696 24.2514 23.5498 24.1093 23.5496C24.2126 23.68 24.3789 23.8099 24.3029 23.9658C24.2052 24.0496 23.7168 24.2258 23.5516 24.3C23.2968 24.3943 23.0861 24.546 22.8559 24.6769C22.6224 24.8098 22.2636 25.3213 21.9856 25.1425C21.9177 24.8081 21.8902 21.4637 21.9682 21.2415C22.0033 21.1414 22.1155 21.099 22.2036 21.0556Z" fill="#24B5FD"/>
<path d="M45.1769 21.5183C46.1859 21.4803 46.4937 22.211 46.9546 22.969L47.7124 24.2105L50.4084 28.6185C49.462 28.6419 48.4516 28.6256 47.5011 28.6258L43.2168 28.6213C43.4488 28.1734 44.0651 27.2733 44.359 26.8182C45.2315 26.8226 46.1429 26.8031 47.0112 26.8316C46.9083 26.6861 46.8083 26.5209 46.7125 26.3694C46.2318 25.6209 45.7379 24.7561 45.2789 23.9873C45.053 24.3205 44.8128 24.7397 44.5926 25.0887L43.0196 27.5814C42.899 27.7733 42.4852 28.5063 42.3633 28.6269L40.1211 28.6223C40.2262 28.3905 40.588 27.8447 40.7383 27.6061L41.9529 25.6774L43.4147 23.3446C43.825 22.6899 44.3399 21.5862 45.1769 21.5183Z" fill="#454444"/>
<path d="M12.944 21.0602C13.5932 21.0282 14.2129 21.1973 14.4657 21.8643C14.5876 22.1857 14.5705 22.5811 14.5741 22.9232C14.58 23.4419 14.5817 23.9607 14.5792 24.4794C14.5765 24.7738 14.5734 25.0678 14.5733 25.3615C14.5716 26.8315 15.7408 28.0326 17.0776 28.4722C17.4279 28.5874 17.8357 28.6703 18.1966 28.7703C17.8025 28.9509 17.329 29.0801 16.9016 29.1514C15.2477 29.4027 13.6095 28.8742 12.5476 27.5413C11.8402 26.6534 11.7204 25.6324 11.7961 24.5365C11.8143 24.2737 11.7896 23.9712 11.8005 23.7049C11.8518 22.5022 11.4446 21.4436 12.944 21.0602Z" fill="#24B5FD"/>
<path d="M51.2707 21.6265C51.9103 21.6319 52.5499 21.6286 53.1894 21.6168C53.1876 23.3377 53.1683 25.0946 53.1941 26.8124C53.7453 26.8347 54.3754 26.8217 54.931 26.8215L57.9616 26.819C57.8296 27.0665 57.3915 27.672 57.2177 27.9232C57.0561 28.1567 56.8927 28.3888 56.7275 28.6196C54.9323 28.6512 53.0643 28.6262 51.2636 28.6257C51.2436 26.7475 51.2756 24.8635 51.2617 22.9847C51.2585 22.5371 51.2539 22.0727 51.2707 21.6265Z" fill="#454444"/>
<path d="M58.8167 21.6274C59.4526 21.6316 60.089 21.6285 60.7254 21.6179C60.7555 22.1272 60.7323 22.8751 60.7323 23.3986V26.8175C62.3091 26.8404 63.9397 26.8209 65.5208 26.8209C65.3681 27.0747 65.1265 27.397 64.951 27.6447L64.291 28.6234C63.7281 28.6451 63.0281 28.6256 62.4562 28.6258L58.8093 28.6267C58.8124 26.3262 58.7685 23.9173 58.8167 21.6274Z" fill="#454444"/>
<path d="M18.8662 21.0642C19.0606 21.0456 19.2567 21.0566 19.4478 21.097C20.1393 21.2415 20.4673 21.6502 20.4617 22.3518C20.4565 22.9875 20.4939 23.6198 20.4611 24.2566C20.4016 25.4128 20.7004 26.8821 19.5274 27.5996C18.8229 28.0329 18.293 28.0825 17.5049 27.9104C16.7927 27.6789 16.3051 27.3561 15.8457 26.7546C16.0901 26.7528 16.3209 26.7539 16.5605 26.6953C16.8021 26.6364 17.0273 26.5241 17.2196 26.3666C17.8728 25.8265 17.6976 25.0847 17.7135 24.325C17.7006 23.8452 17.7413 23.3467 17.7251 22.8689C17.693 21.9186 17.8321 21.3067 18.8662 21.0642Z" fill="#24B5FD"/>
<path d="M32.2432 25.8021C32.2641 25.7748 32.2732 25.7025 32.2906 25.652C32.3375 25.6752 32.3472 25.7077 32.3722 25.755L32.2957 25.9131L32.2649 25.9049L32.2432 25.8021Z" fill="#454444" fill-opacity="0.0117647"/>
</svg>
