<svg width="240" height="29" viewBox="0 0 240 29" fill="none" xmlns="http://www.w3.org/2000/svg">
<path d="M169.719 9.09502C168.412 9.06079 167.131 9.45845 166.079 10.2249C165.324 10.7154 164.677 11.3506 164.176 12.0927C163.744 11.1875 163.057 10.4238 162.198 9.8924C161.339 9.361 160.344 9.08425 159.33 9.09502C158.336 9.06809 157.351 9.28342 156.462 9.72196C155.572 10.1605 154.806 10.8087 154.231 11.6092L154.097 9.50218H149.653V9.86863C149.746 11.2784 149.787 12.9223 149.787 15.2126V28.2214H154.721V17.2179C154.712 16.748 154.791 16.2805 154.953 15.8386C155.319 14.6731 156.314 13.4924 157.716 13.4924C160.067 13.4924 160.32 16.256 160.32 17.4418V28.2214H165.254V17.0652C165.265 16.5918 165.327 16.1209 165.439 15.6605C165.8 14.6426 166.718 13.4873 168.141 13.4873C170.378 13.4873 170.848 15.8946 170.848 17.9151V28.2214H175.807V17.2535C175.807 9.67014 171.167 9.09502 169.719 9.09502Z" fill="#2F80ED"/>
<path d="M186.789 9.34436C180.71 9.34436 177.937 14.556 177.937 19.4012C177.937 25.2592 181.504 28.8982 187.253 28.8982C189.383 28.922 191.495 28.5222 193.465 27.7226L193.728 27.6106L192.945 23.7782L192.553 23.9309C191.057 24.4984 189.463 24.7682 187.861 24.7248C184.953 24.7248 183.113 23.2438 182.876 20.7398H194.44L194.491 20.4598C194.599 19.802 194.649 19.1362 194.641 18.4698C194.646 14.2506 192.589 9.34436 186.789 9.34436ZM186.541 13.1462C186.939 13.1303 187.335 13.1953 187.706 13.3372C188.076 13.479 188.414 13.6947 188.696 13.9707C189.401 14.7778 189.79 15.8065 189.794 16.8717H182.901C183.154 15.3347 184.139 13.1513 186.541 13.1513V13.1462Z" fill="#2F80ED"/>
<path d="M213.614 22.9995V1.11462H207.855V10.7847C206.87 9.59374 205.56 9.05425 203.73 9.05425C202.727 9.05622 201.734 9.25421 200.808 9.6368C199.883 10.0194 199.043 10.579 198.337 11.2835C196.461 13.136 195.435 15.9353 195.455 19.162C195.455 24.7605 198.786 28.8321 203.369 28.8321C205.792 28.8321 207.566 27.7531 208.783 25.529H208.803L208.427 28.5012H213.773V28.1399C213.691 26.9744 213.614 24.903 213.614 22.9995ZM207.978 17.91V20.6532C207.988 21.0846 207.943 21.5155 207.844 21.9358C207.458 23.6968 206.519 24.4805 204.792 24.4805C202.276 24.4805 200.714 22.3938 200.714 19.0449C200.714 15.579 202.328 13.3447 204.839 13.3447C206.731 13.3447 207.54 15.2176 207.886 16.775C207.95 17.1551 207.981 17.5399 207.978 17.9253V17.91Z" fill="#2F80ED"/>
<path d="M219.553 1.61853C219.127 1.59594 218.701 1.66059 218.301 1.80843C217.902 1.95627 217.537 2.18409 217.231 2.47758C216.925 2.77107 216.684 3.12388 216.523 3.51383C216.362 3.90377 216.284 4.32243 216.294 4.74349C216.294 5.15499 216.378 5.56232 216.541 5.94101C216.704 6.31969 216.943 6.66192 217.244 6.94714C217.544 7.23236 217.9 7.45468 218.29 7.60076C218.679 7.74684 219.095 7.81365 219.512 7.79719C221.424 7.79719 222.811 6.50446 222.811 4.70786C222.811 4.29123 222.726 3.87884 222.561 3.49548C222.396 3.11212 222.154 2.76573 221.849 2.47713C221.545 2.18853 221.185 1.96369 220.79 1.81614C220.395 1.66859 219.974 1.60137 219.553 1.61853Z" fill="#2F80ED"/>
<path d="M222.265 9.51233H216.836V28.4911H222.265V9.51233Z" fill="#2F80ED"/>
<path d="M239.933 28.1043C239.746 26.6716 239.661 25.2277 239.68 23.7833V17.2127C239.68 12.0571 236.938 9.21712 231.947 9.21712C229.622 9.17515 227.327 9.74801 225.301 10.8763L225.085 11.0086L226.168 14.6731L226.554 14.4237C227.951 13.5785 229.556 13.1311 231.194 13.1309C233.906 13.1309 234.489 14.6578 234.499 15.9404C227.642 15.9862 223.868 18.5411 223.868 23.1471C223.868 26.0023 225.93 28.8931 229.844 28.8931C230.802 28.9113 231.753 28.7355 232.64 28.3767C233.527 28.0178 234.33 27.4834 234.999 26.8064L235.236 28.4809H240.016L239.933 28.1043ZM231.246 24.9386C229.828 24.9386 229.013 24.1039 229.013 22.6585C229.013 20.1137 231.993 19.6048 234.494 19.6048H234.582V21.7831C234.584 22.0914 234.54 22.3983 234.453 22.6941C234.226 23.354 233.794 23.9262 233.218 24.3293C232.642 24.7323 231.952 24.9456 231.246 24.9386Z" fill="#2F80ED"/>
<path d="M15.1163 1.9137H10.9454L0 28.0788H5.98054L8.45009 22.3633H17.823L20.1792 28.0788H26.17L15.1163 1.9137ZM16.199 17.5181H10.2236L13.0644 10.6117L16.199 17.5181Z" fill="#2F80ED"/>
<path d="M43.2093 10.5608C42.4555 9.71937 41.5271 9.048 40.4872 8.59222C39.4472 8.13644 38.3201 7.90694 37.1824 7.9193C35.8188 7.95554 34.4773 8.26787 33.241 8.83693C32.0048 9.40599 30.9001 10.2196 29.9954 11.2275C28.266 13.2064 27.3258 15.7393 27.3506 18.3528C27.3602 20.9342 28.2974 23.4284 29.9954 25.3916C30.8598 26.4086 31.9378 27.228 33.1547 27.793C34.3716 28.3581 35.6984 28.6553 37.0432 28.6641C38.3229 28.6872 39.5889 28.4011 40.731 27.8307C41.8731 27.2603 42.8566 26.423 43.596 25.3916V28.0279H47.9989V1.45563H43.2093V10.5608ZM37.7237 23.8698C34.5994 23.8698 32.2794 21.2538 32.2794 18.1288C32.2794 15.2685 34.8005 12.6627 37.6361 12.6627C39.1402 12.6539 40.5862 13.2354 41.656 14.2791C42.7259 15.3228 43.3319 16.7433 43.3408 18.2281C43.3497 19.7129 42.7607 21.1404 41.7034 22.1965C40.6461 23.2526 39.2072 23.8509 37.7031 23.8596L37.7237 23.8698Z" fill="#2F80ED"/>
<path d="M104.917 11.7415C103.371 8.78961 100.009 7.35437 96.7146 7.35437C93.8017 7.35437 90.8475 8.37227 87.6665 11.7415C86.8983 12.4235 85.4805 15.2635 85.4805 18.022C85.4805 21.1622 86.7848 23.7782 87.5427 24.6078C90.2237 27.6615 93.6367 29 96.7816 29C100.076 29 103.298 27.5241 104.907 24.6078V28.5013H107.629V7.80734H104.917V11.7415ZM96.7868 26.3179C92.3014 26.3179 88.3109 22.7959 88.3109 18.2561C88.315 17.1725 88.5354 16.1003 88.9595 15.1008C89.3836 14.1014 90.0032 13.1942 90.7827 12.4313C91.5622 11.6684 92.4865 11.0647 93.5025 10.6546C94.5186 10.2446 95.6066 10.0363 96.7043 10.0416C97.7965 10.0366 98.8786 10.2476 99.8868 10.6623C100.895 11.0769 101.809 11.6867 102.574 12.4557C103.34 13.2247 103.942 14.1373 104.344 15.1397C104.746 16.142 104.941 17.2138 104.917 18.2917C104.878 20.4081 104.008 22.4269 102.492 23.9237C100.976 25.4205 98.9307 26.2787 96.7868 26.3179Z" fill="#2F80ED"/>
<path d="M70.9314 15.5485V18.0932H80.2889V19.1111C78.4896 23.4525 73.7722 26.3128 68.9723 26.3128C62.1049 26.3128 56.2842 21.2233 56.2842 14.4033C56.3267 12.7881 56.702 11.1983 57.3871 9.73092C58.0723 8.26353 59.053 6.94926 60.2695 5.86823C62.6413 3.80932 65.7006 2.68902 68.8588 2.72292C72.8132 2.72292 76.9119 4.24977 78.9742 7.45616L81.3303 5.74609C80.2225 4.29343 78.8712 3.03857 77.3347 2.03584C74.8394 0.442822 71.88 3.5391e-05 68.8795 3.5391e-05C64.78 -0.0681822 60.8209 1.4732 57.8722 4.2854C55.1031 6.92484 53.5037 10.5382 53.4229 14.3372C53.4229 22.5313 60.5634 28.9797 68.8898 28.9797C75.0765 28.9797 80.7116 25.3509 83.042 20.0018V15.5485H70.9314Z" fill="#2F80ED"/>
<path d="M117.358 0.417358H114.512V7.70553H110.568V10.2503H114.512V28.4707H117.358V10.2503H121.735V7.70553H117.358V0.417358Z" fill="#2F80ED"/>
<path d="M134.139 7.28821C131.221 7.29766 128.427 8.451 126.37 10.4945C124.314 12.538 123.164 15.3043 123.173 18.1848C123.183 21.0654 124.351 23.8241 126.421 25.8543C128.491 27.8844 131.294 29.0197 134.212 29.0102C136.175 28.9623 138.091 28.4058 139.768 27.3964C141.444 26.387 142.823 24.9602 143.765 23.2591L141.476 21.7322C140.208 24.5773 137.058 26.3128 133.938 26.3128C132.52 26.2751 131.134 25.8816 129.912 25.1693C128.69 24.4569 127.671 23.4493 126.952 22.2412C126.243 21.0667 125.896 19.7139 125.952 18.3477H144.992V18.1441C144.98 15.666 144.135 13.2621 142.59 11.3089C141.574 10.0591 140.288 9.04943 138.826 8.35374C137.364 7.65805 135.763 7.29398 134.139 7.28821ZM126.36 15.7368C126.989 12.7696 130.695 9.98565 134.176 9.98565C137.656 9.98565 141.12 12.6373 141.811 15.6757L126.36 15.7368Z" fill="#2F80ED"/>
</svg>
