<svg width="512" height="133" viewBox="0 0 512 133" fill="none" xmlns="http://www.w3.org/2000/svg">
<g clip-path="url(#clip0_754_8176)">
<path d="M256.766 33.8715C272.314 34.2287 293.327 31.031 305.578 42.8249C315.555 52.4303 316.277 70.7931 310.946 82.9505C309.675 85.8487 307.806 87.9865 305.615 90.2685C296.306 99.6274 286.328 99.1397 274.195 99.1179C268.399 99.0969 262.604 99.1051 256.81 99.1427C256.872 96.6458 256.862 94.0203 256.829 91.5219C256.575 72.3567 257.195 53.0191 256.766 33.8715ZM269.465 88.7627C278.517 88.5583 289.257 90.6299 296.042 83.5855C303.814 74.8511 304.2 57.4411 295.341 49.2842C288.201 42.7101 277.952 44.7745 269.269 44.2372C269.611 48.1226 269.416 55.0648 269.415 59.1651C269.379 69.0309 269.396 78.8966 269.465 88.7627Z" fill="black"/>
<path d="M209.138 33.8608L219 33.9058C220.318 37.184 222.301 41.1913 223.787 44.5021C227.008 51.7912 230.276 59.0588 233.591 66.3047C238.429 76.95 243.341 88.6713 248.361 99.0926C244.156 99.1355 239.95 99.1377 235.745 99.0994C234.703 94.7427 230.498 88.0875 229.665 84.0193C226.354 84.1486 222.479 84.0621 219.125 84.0682L198.983 84.0862C196.592 88.7314 194.651 94.2618 192.352 99.1099C188.191 99.0956 184.031 99.1047 179.87 99.1377C184.47 88.518 189.2 77.9554 194.058 67.4518L209.138 33.8608ZM202.73 74.5013L214.625 74.5051L225.517 74.5243C223.451 70.8006 215.388 49.9202 213.878 48.816C210.244 57.1581 206.664 66.3402 202.73 74.5013Z" fill="black"/>
<path d="M354.686 33.4762C356.362 32.9086 359.138 33.7222 360.854 33.8327C368.201 34.3061 373.196 37.1948 378.696 41.9344C377.695 43.8002 376.972 45.153 376.194 47.1126C374.041 45.6753 371.935 43.5978 369.567 42.364C363.058 38.9652 355.848 38.0786 348.759 40.0902C332.903 44.5891 330.862 64.5878 334.441 78.147C335.82 83.3723 339.694 89.071 344.561 91.6311C353.754 96.4657 364.221 94.3828 373.699 91.6311C373.346 85.6115 373.621 77.4918 373.595 71.2548L365.186 71.2657L356.322 71.3307C356.392 69.2135 356.434 67.5211 356.318 65.4113C363.783 65.6417 371.874 65.3966 379.439 65.5089C379.35 71.958 379.332 78.4077 379.384 84.8571C379.404 88.0476 379.559 92.3555 379.337 95.4686C367.967 101.118 348.289 102.439 337.799 94.0649C323.429 82.5924 323.162 56.9501 333.737 42.9106C338.845 36.1294 346.891 34.4316 354.686 33.4762Z" fill="black"/>
<path d="M396.752 33.8711C410.021 34.1436 423.705 33.7301 437.054 33.927L437.132 39.7698C425.704 39.6675 414.128 39.879 402.728 39.639L402.75 63.2595C405.983 63.0747 410.609 63.2087 413.93 63.2069L434.882 63.2291L434.925 69.0538L404.51 69.0125C403.702 68.9925 403.469 68.8613 402.814 69.2098C402.562 71.6927 402.695 75.7815 402.704 78.3716L402.76 94.0603L437.044 94.0167L437.106 99.1436C423.668 99.0677 410.23 99.0685 396.793 99.1444C396.913 87.8116 396.805 76.3255 396.804 64.9823C396.843 54.6119 396.825 44.2413 396.752 33.8711Z" fill="black"/>
<path d="M0 40.9673C0.500696 40.1482 1.03217 39.5115 1.77716 38.9052C6.68918 34.9073 53.5381 1.09406 55.2673 0.649326C57.2817 0.131211 60.4086 0.535191 62.5601 0.535733L80.9514 0.554276L108.981 0.547041C111.93 0.547164 123.494 0.124983 125.326 1.22379C128.421 3.08019 133.497 6.88538 136.646 9.14937L156.668 23.6117L170.67 33.6878C173.027 35.3825 178.907 38.9326 179.532 41.5244C179.838 42.8325 179.608 44.209 178.895 45.3459C178.031 46.7459 172.316 52.2984 170.876 53.7338L155.127 69.5122L114.285 110.509C110.306 114.504 94.7305 131.107 91.1644 133H88.3305C87.2458 132.375 85.9958 131.315 85.0998 130.429C78.1459 123.552 71.2502 116.581 64.3496 109.651L25.2218 70.3707L8.66837 53.7617C6.81139 51.8976 1.06183 46.3718 0 44.5827V40.9673ZM128.896 61.9647C126.476 65.4762 124.835 70.3589 122.557 73.5299C119.318 73.5236 114.688 73.3769 111.56 73.5754C113.323 70.0397 115.186 66.1552 117.175 62.7797L81.1752 62.8083C75.6585 62.8084 67.8971 63.0386 62.5502 62.7634C68.7372 75.8031 75.6794 88.6049 82.0458 101.54C83.9298 105.367 88.3851 113.507 89.6756 117.053L91.3059 113.99C94.0718 108.39 98.8609 98.0298 102.008 92.8391L87.0647 92.8902C85.4022 89.6779 83.6439 86.2665 82.1131 82.9963C93.8861 83.0091 106.302 83.2097 118.017 82.961C115.343 88.8198 111.213 96.5931 108.189 102.532C111.496 98.9571 115.043 95.4465 118.51 92.014C131.28 79.3708 143.772 66.3791 156.603 53.8065L156.545 53.5173L156.361 53.4744C148.08 56.6112 137.406 58.9235 128.896 61.9647ZM15.7849 41.0256C24.2321 43.1692 32.9301 46.3655 41.3358 48.7108C44.2738 49.6254 48.6371 50.7924 51.3686 51.8687C53.0199 46.8996 55.1994 40.7465 57.185 35.9255C49.8667 33.6022 41.6482 30.1714 34.2387 27.5586C28.4078 32.1709 21.7569 36.471 15.7849 41.0256ZM122.471 36.1084C124.247 40.596 126.766 47.2867 128.186 51.8681C130.994 50.7465 134.618 49.7626 137.561 48.8806L163.634 40.9317C161.132 39.1085 146.808 28.2428 145.089 27.6372C137.887 30.4321 129.398 33.2072 122.471 36.1084ZM61.4222 52.9672L113.151 52.9238L118.175 52.9629C116.376 48.508 114.14 42.5236 112.632 37.9304C103.625 38.2334 93.8405 38.0162 84.7704 38.0541C80.1385 38.0735 71.1927 38.3051 66.8775 37.936C65.51 41.8068 63.0315 49.3852 61.4222 52.9672ZM44.1188 20.6193C48.0115 21.997 51.8878 23.4207 55.747 24.89C63.8001 27.9042 64.4403 27.9963 73.0715 27.9914L87.5797 27.9704L105.047 27.9734C111.495 27.9711 114.285 28.5422 120.441 26.154C124.25 24.737 131.863 21.6821 135.528 20.774C133.767 19.3242 122.499 10.7839 121.194 10.7789C100.513 10.6986 78.6077 10.073 58.0019 10.6003C53.5382 13.597 48.43 17.3709 44.1188 20.6193ZM70.848 101.927C70.1873 99.725 64.9414 89.9244 63.4832 87.0307L55.234 70.6576C53.8506 67.912 52.2744 64.4632 50.7535 61.907C44.854 60.1769 38.9699 58.3943 33.1019 56.5594C30.1002 55.633 25.5939 54.1077 22.6502 53.4862C23.7569 55.0603 70.9164 101.963 70.848 101.927Z" fill="#735AA4"/>
<path d="M451.425 33.8491L457.029 33.9021C458.042 36.7749 461.159 41.7472 462.698 44.8346C469.031 57.5642 475.601 70.1734 482.405 82.6555C483.734 78.6572 489.211 68.9732 491.273 64.9827C494.488 58.7605 497.588 52.4391 500.754 46.1753C502.93 41.8695 505.11 38.4566 507.066 33.875C508.903 33.8569 510.177 33.8611 512 34.0422V99.1152L506.012 99.1776C506.123 94.2175 505.917 89.1928 506.026 84.2372C506.298 71.8621 505.479 59.0567 506.483 46.7417C499.685 60.4326 492.243 73.8858 485.389 87.5547C484.191 89.9427 482.235 89.4265 479.886 89.3551C479.299 87.8696 477.792 85.3741 476.983 83.8563L471.06 72.7136C466.896 64.9477 462.175 55.3142 457.776 47.8421C458.279 52.6375 458.029 60.6934 458.027 65.8049L458.075 99.167L451.392 99.1595C451.615 92.478 451.413 84.5761 451.411 77.7803L451.425 33.8491Z" fill="black"/>
</g>
<defs>
<clipPath id="clip0_754_8176">
<rect width="512" height="133" fill="white"/>
</clipPath>
</defs>
</svg>
