<svg width="130" height="20" viewBox="0 0 130 20" fill="none" xmlns="http://www.w3.org/2000/svg">
<g clip-path="url(#clip0_229_2510)">
<path d="M111.564 19.875C111.559 19.8623 111.554 19.8367 111.547 19.8367C111.393 19.8162 111.24 19.7983 111.086 19.783C109.263 19.5887 107.711 18.8574 106.476 17.4843C105.995 16.9473 105.594 16.3541 105.256 15.72C105.147 15.5129 105.047 15.2981 104.942 15.0859C104.919 15.0424 104.899 14.9964 104.85 14.9759C104.837 14.9708 104.819 14.9683 104.804 14.9683C104.783 14.9683 104.773 14.9785 104.773 14.999C104.773 15.0245 104.768 15.0475 104.768 15.0705C104.768 15.1345 104.768 15.201 104.768 15.2649C104.768 16.6661 104.768 18.0673 104.768 19.4685C104.768 19.5503 104.768 19.6321 104.763 19.7114C104.763 19.7421 104.732 19.7702 104.699 19.7728C104.658 19.7728 104.617 19.7753 104.576 19.7779C104.461 19.7779 104.349 19.7779 104.234 19.7779C103.116 19.7779 102.002 19.7779 100.884 19.7779C100.81 19.7779 100.738 19.7779 100.664 19.7779C100.593 19.7779 100.57 19.7498 100.567 19.6705C100.567 19.5963 100.567 19.5247 100.567 19.4506C100.567 18.0417 100.567 16.6328 100.567 15.2214C100.567 15.1575 100.567 15.091 100.567 15.0271C100.567 14.9964 100.575 14.9657 100.547 14.9376C100.534 14.9248 100.508 14.9427 100.48 14.9938C100.439 15.0654 100.403 15.137 100.363 15.2061C100.171 15.5282 99.9841 15.853 99.7872 16.17C99.5673 16.5229 99.3269 16.8604 99.0585 17.18C98.5829 17.7451 98.0459 18.2386 97.4348 18.6528C96.6345 19.1975 95.76 19.5529 94.8063 19.7165C94.3818 19.7907 93.9497 19.8316 93.5176 19.8341C92.1982 19.8341 90.8763 19.8341 89.5569 19.8341C89.3267 19.8341 89.3267 19.8418 89.3267 19.6091C89.3267 18.8114 89.3267 18.0136 89.3267 17.2133C89.3267 14.5336 89.3267 11.8539 89.3267 9.17169C89.3267 9.10776 89.3267 9.04128 89.3267 8.97736C89.3267 8.83928 89.3088 8.83161 89.1861 8.78559C89.1426 8.76769 89.0915 8.76513 89.0429 8.76258C88.823 8.7549 88.6031 8.74212 88.3832 8.74212C88.2528 8.74212 88.125 8.76258 87.9946 8.78047C87.946 8.78559 87.9 8.80604 87.8539 8.82138C87.7338 8.86741 87.6494 8.95179 87.6008 9.06941C87.5471 9.19981 87.5241 9.33533 87.5139 9.4734C87.5062 9.58591 87.5037 9.70097 87.5011 9.81603C87.5011 10.3939 87.5011 10.9718 87.5011 11.5522C87.5011 12.0252 87.5011 12.4983 87.5011 12.9687C87.5037 13.5543 87.4832 14.1424 87.4551 14.7279C87.4321 15.1933 87.3272 15.6459 87.1687 16.0857C86.665 17.5022 85.5067 18.7935 84.0415 19.4071C83.658 19.5682 83.2591 19.6782 82.8449 19.7395C82.5866 19.7779 82.3258 19.7983 82.0676 19.8086C81.7326 19.8213 81.4002 19.7881 81.0704 19.737C80.4618 19.6449 79.884 19.4531 79.3419 19.1591C78.2884 18.5889 77.5162 17.7528 76.9997 16.6789C76.7491 16.1547 76.5778 15.6049 76.4909 15.0296C76.4398 14.6896 76.404 14.352 76.404 14.0094C76.4014 13.383 76.3988 12.754 76.3988 12.1275C76.3988 11.3118 76.3988 10.4987 76.3988 9.68307C76.3988 9.53733 76.3937 9.38903 76.3656 9.24584C76.3631 9.2305 76.3605 9.2126 76.3579 9.19726C76.2966 8.91343 76.1508 8.82906 75.9335 8.78815C75.8056 8.76513 75.6752 8.76513 75.5448 8.76002C75.4144 8.7549 75.284 8.7549 75.1536 8.7549C74.338 8.7549 73.5249 8.7549 72.7092 8.7549C72.5072 8.7549 72.5046 8.76513 72.5072 8.9569C72.5072 9.02083 72.5072 9.08731 72.5072 9.15123C72.5072 12.5903 72.5072 16.0268 72.5072 19.4659C72.5072 19.8444 72.5609 19.7881 72.1876 19.7881C71.0063 19.7881 69.825 19.7881 68.6437 19.7881C68.5618 19.7881 68.48 19.783 68.4007 19.783C68.3854 19.783 68.347 19.7523 68.347 19.7395C68.347 19.714 68.3419 19.6909 68.3419 19.6654C68.3419 19.5912 68.3419 19.5196 68.3419 19.4455C68.3419 15.991 68.3419 12.5366 68.3419 9.08219C68.3419 8.9927 68.3394 8.90321 68.3343 8.81371C68.3343 8.80093 68.3164 8.78559 68.3036 8.77792C68.2908 8.77025 68.2729 8.76769 68.255 8.76769C68.1732 8.76769 68.0914 8.76769 68.0095 8.76769C63.4556 8.76769 58.8991 8.76769 54.3452 8.76769C54.2557 8.76769 54.1662 8.76769 54.0768 8.76513C54.0461 8.76513 54.0154 8.73445 54.0154 8.70121C54.0077 8.55546 54.0154 8.40716 54.0384 8.26397C54.11 7.7756 54.2685 7.31535 54.5114 6.88578C55.0688 5.89624 55.8615 5.1624 56.9073 4.70727C57.4059 4.48993 57.9301 4.38509 58.4747 4.38254C60.0881 4.37742 61.7016 4.37231 63.315 4.36975C65.2531 4.36719 67.1939 4.36464 69.132 4.36719C71.5432 4.36975 73.957 4.38254 76.3682 4.38254C77.4779 4.38254 78.4163 4.78398 79.2064 5.5485C79.9121 6.22865 80.3544 7.05965 80.5513 8.02106C80.6101 8.30233 80.628 8.58615 80.628 8.87252C80.628 9.58847 80.6255 10.307 80.6255 11.0229C80.6255 11.9843 80.6255 12.9457 80.6229 13.9071C80.6229 14.104 80.6459 14.2958 80.7022 14.485C80.7917 14.7765 80.963 15.0066 81.2161 15.1779C81.3516 15.27 81.4974 15.339 81.6559 15.3851C81.8912 15.4541 82.1238 15.4387 82.3514 15.3544C82.5688 15.2751 82.758 15.1498 82.9216 14.9862C83.0495 14.8558 83.1441 14.7049 83.2054 14.5336C83.2642 14.3725 83.3026 14.2063 83.3077 14.0324C83.3128 13.9174 83.3128 13.8049 83.3128 13.6898C83.3128 12.3218 83.3128 10.9513 83.3128 9.58335C83.3128 9.3788 83.3128 9.1768 83.3179 8.97224C83.323 8.5708 83.3665 8.17448 83.4586 7.78582C83.6836 6.8372 84.1489 6.03432 84.9007 5.40531C85.4018 4.98597 85.972 4.70215 86.601 4.52317C86.9411 4.426 87.2837 4.37231 87.6366 4.37742C88.6057 4.38765 89.5748 4.39021 90.5464 4.39788C91.4107 4.40299 92.2749 4.39276 93.1366 4.35697C93.5431 4.33907 93.9497 4.36719 94.3562 4.41833C94.7935 4.47203 95.2231 4.56408 95.6424 4.69704C96.8416 5.07802 97.8644 5.7326 98.7261 6.64543C99.4752 7.43552 100.033 8.34579 100.429 9.3609C100.46 9.43761 100.488 9.51176 100.518 9.58847C100.531 9.62171 100.557 9.64216 100.593 9.64216C100.657 9.64216 100.723 9.64472 100.787 9.64472C102.009 9.64472 103.231 9.64472 104.454 9.64472C104.518 9.64472 104.584 9.64472 104.648 9.63961C104.681 9.63961 104.709 9.61915 104.725 9.58847C104.76 9.51432 104.791 9.44016 104.824 9.36601C105.149 8.6424 105.528 7.95202 105.995 7.31279C106.407 6.75026 106.875 6.24399 107.422 5.81187C108.202 5.19564 109.077 4.78398 110.048 4.57175C110.664 4.43623 111.288 4.37742 111.917 4.39532C112.636 4.41322 113.344 4.50783 114.034 4.72005C115.05 5.032 115.937 5.56129 116.696 6.3028C117.195 6.78862 117.612 7.33836 117.972 7.93413C118.169 8.26141 118.348 8.60149 118.509 8.94923C118.532 9.00037 118.555 9.05407 118.583 9.10265C118.593 9.1231 118.614 9.13845 118.632 9.15634C118.655 9.17936 118.698 9.17169 118.716 9.14612C118.747 9.10265 118.752 9.05662 118.755 9.00804C118.755 8.95179 118.749 8.89298 118.765 8.83673C118.836 8.56058 118.844 8.27164 118.923 7.99805C118.969 7.84208 119.013 7.68355 119.067 7.53269C119.115 7.39461 119.174 7.25909 119.235 7.12613C119.844 5.80675 121.03 4.85813 122.416 4.52572C122.805 4.43112 123.201 4.38254 123.603 4.38254C125.428 4.38765 127.254 4.39021 129.08 4.39532C129.243 4.39532 129.404 4.39788 129.568 4.39532C129.65 4.39532 129.729 4.38765 129.811 4.38254V8.73189C129.752 8.73189 129.701 8.7549 129.66 8.79837C129.563 8.89809 129.443 8.939 129.307 8.939C129.251 8.939 129.192 8.939 129.136 8.939C129.039 8.939 128.941 8.93389 128.842 8.93389C127.507 8.93389 126.172 8.93645 124.838 8.939C124.554 8.939 124.267 8.939 123.984 8.939C123.861 8.939 123.741 8.95179 123.62 8.97992C123.49 9.01316 123.38 9.07708 123.293 9.17936C123.273 9.20237 123.26 9.23561 123.252 9.26629C123.245 9.29698 123.247 9.33022 123.247 9.36346C123.247 9.51176 123.326 9.60637 123.462 9.66006C123.554 9.69586 123.649 9.7112 123.748 9.71887C124.081 9.74444 124.416 9.74444 124.748 9.73677C125.124 9.73166 125.497 9.747 125.868 9.80581C126.328 9.87996 126.771 10.0155 127.187 10.2251C127.77 10.5166 128.261 10.9257 128.683 11.4192C128.995 11.7849 129.256 12.1889 129.491 12.6082C129.596 12.7949 129.665 12.9918 129.696 13.204C129.703 13.2679 129.709 13.3344 129.714 13.3983C129.734 13.585 129.752 13.7691 129.775 13.9557C129.775 13.9762 129.798 13.9966 129.811 14.0145V14.3086C129.614 14.4364 129.565 14.4543 129.338 14.4722C129.264 14.4773 129.192 14.4799 129.118 14.4799C128.118 14.485 127.116 14.4927 126.116 14.4978C125.165 14.5003 124.211 14.4978 123.26 14.4646C122.892 14.4518 122.531 14.3981 122.176 14.306C121.419 14.1091 120.759 13.7409 120.202 13.1912C119.887 12.8818 119.621 12.5315 119.394 12.1531C119.343 12.0687 119.294 11.9869 119.246 11.9025L119.24 11.9076H119.251C119.248 11.9562 119.24 12.0048 119.243 12.0534C119.243 12.396 119.248 12.7361 119.251 13.0787C119.251 13.2423 119.238 13.4034 119.212 13.5645C119.171 13.8228 119.097 14.0708 119.033 14.3239C118.98 14.5361 118.926 14.7484 118.877 14.9632C118.859 15.0424 118.857 15.1242 118.852 15.2061C118.852 15.2163 118.87 15.2393 118.882 15.2393C118.964 15.247 119.044 15.2495 119.125 15.2521C120.445 15.2802 121.764 15.2777 123.083 15.2777C124.72 15.2777 126.356 15.2777 127.993 15.2751C128.328 15.2751 128.66 15.27 128.995 15.27C129.092 15.27 129.189 15.2777 129.287 15.2828C129.394 15.2904 129.491 15.3288 129.588 15.3748C129.65 15.4055 129.691 15.4515 129.716 15.5155C129.739 15.5692 129.752 15.6228 129.755 15.6817C129.755 15.7635 129.747 15.8427 129.721 15.922C129.647 16.1726 129.568 16.4181 129.476 16.6635C129.294 17.1366 129.064 17.584 128.765 17.9931C128.379 18.5224 127.901 18.9418 127.32 19.246C126.921 19.4557 126.5 19.5989 126.057 19.6884C125.553 19.7907 125.042 19.8392 124.528 19.8392C123.753 19.8392 122.981 19.8367 122.206 19.8341C119.933 19.8316 117.663 19.8265 115.39 19.8239C114.681 19.8239 113.973 19.8341 113.265 19.8418C113.201 19.8418 113.134 19.8444 113.071 19.8495C113.007 19.8546 113.047 19.8674 113.035 19.8776C112.546 19.8776 112.058 19.8776 111.567 19.8776L111.564 19.875ZM111.795 8.7549C111.465 8.75746 111.153 8.80093 110.849 8.90576C110.255 9.10776 109.764 9.46062 109.371 9.94388C108.882 10.5448 108.624 11.2351 108.601 12.0099C108.588 12.4522 108.665 12.8844 108.826 13.2986C109.138 14.0938 109.662 14.7049 110.422 15.1038C110.941 15.3748 111.495 15.4771 112.076 15.4183C112.605 15.362 113.083 15.1703 113.515 14.8609C114.538 14.127 115.101 12.8358 114.871 11.5113C114.756 10.8465 114.472 10.2584 114.009 9.7649C113.408 9.1231 112.669 8.77536 111.792 8.7549H111.795ZM96.6447 12.1224C96.6447 11.8437 96.614 11.5778 96.5552 11.3144C96.3865 10.5627 96.0029 9.94644 95.3944 9.47596C94.8932 9.08986 94.3179 8.87764 93.694 8.78559C93.6787 8.78559 93.6608 8.78559 93.6454 8.78303C93.6173 8.78303 93.5789 8.81116 93.5789 8.83928C93.5789 8.91343 93.5764 8.98503 93.5764 9.05918C93.5764 11.0868 93.5764 13.1145 93.5764 15.1421C93.5764 17.1698 93.5764 15.224 93.5764 15.2649C93.5764 15.2904 93.5764 15.3135 93.5764 15.339C93.5764 15.3876 93.6071 15.4132 93.6531 15.4055C94.1185 15.3441 94.5583 15.2112 94.9725 14.9862C95.6271 14.6308 96.1026 14.1143 96.389 13.4264C96.5629 13.0071 96.637 12.5673 96.6447 12.125V12.1224Z" fill="#22374A"/>
<path d="M35.0454 4.37991C35.0454 5.76322 35.0454 7.14908 35.0454 8.53238C35.0454 8.58097 35.0429 8.62955 35.0352 8.67813C35.0352 8.69091 35.0173 8.70626 35.0045 8.71137C34.9917 8.71904 34.9739 8.7216 34.9585 8.7216C34.8844 8.7216 34.8128 8.7216 34.7386 8.7216C33.4422 8.7216 32.1484 8.7216 30.8521 8.7216C29.5557 8.7216 30.7702 8.7216 30.7293 8.7216C30.5018 8.7216 30.4557 8.7395 30.2921 8.8878C30.0543 9.10514 29.975 9.37106 30.0364 9.68301C30.0492 9.74182 30.0799 9.76739 30.1361 9.76994C30.2103 9.76994 30.2819 9.76994 30.356 9.76994C31.0004 9.76994 31.6422 9.76994 32.2865 9.76994C32.3607 9.76994 32.4323 9.76994 32.5064 9.76994C32.5933 9.76994 32.6061 9.81085 32.6087 9.87478C32.6087 9.93103 32.6087 9.98984 32.6087 10.0461C32.6087 11.3808 32.6087 12.7181 32.6087 14.0528C32.6087 14.1014 32.6087 14.15 32.6087 14.1986C32.6087 14.3034 32.5908 14.3187 32.4757 14.3187C32.4118 14.3187 32.3453 14.3187 32.2814 14.3187C31.6549 14.3187 31.0259 14.3187 30.3995 14.3187C30.3253 14.3187 30.2537 14.3187 30.1796 14.3239C30.1463 14.3239 30.1157 14.3494 30.108 14.3776C30.0569 14.5438 30.0466 14.7151 30.0696 14.8864C30.0978 15.1088 30.2179 15.2597 30.4378 15.3262C30.5171 15.3492 30.5938 15.3722 30.6756 15.3722C30.7728 15.3748 30.87 15.3824 30.9697 15.3824C32.0692 15.3824 33.1686 15.385 34.2681 15.3875C34.4548 15.3875 34.644 15.3875 34.8307 15.3875C34.8716 15.3875 34.9125 15.3901 34.9534 15.3927C34.9841 15.3927 35.0173 15.4233 35.0199 15.4515C35.0224 15.5154 35.0275 15.5819 35.0275 15.6458C35.0275 15.9961 35.0275 16.3464 35.0275 16.6967C35.0275 17.6249 35.0275 18.553 35.0275 19.4812C35.0275 19.563 35.025 19.6448 35.0199 19.7241C35.0199 19.7625 34.979 19.7957 34.9381 19.7957C34.8818 19.7957 34.823 19.7957 34.7667 19.7906C34.0994 19.7676 33.432 19.7957 32.7647 19.8264C32.7237 19.8264 32.6828 19.8264 32.6547 19.8647H30.5043C30.4992 19.8417 30.4992 19.8187 30.466 19.8136C30.1821 19.7829 29.8983 19.7522 29.6171 19.7164C29.3332 19.6806 29.0545 19.6295 28.7809 19.5477C27.9985 19.315 27.3644 18.865 26.8607 18.2257C26.5717 17.8575 26.3467 17.4536 26.1575 17.0291C26.0348 16.7529 25.9376 16.4691 25.8609 16.1776C25.8558 16.1546 25.843 16.1342 25.8328 16.1137C25.8328 16.1137 25.8149 16.1137 25.8098 16.1214C25.7944 16.1393 25.7765 16.1572 25.7714 16.1776C25.6896 16.4768 25.5873 16.7683 25.4646 17.0521C25.0913 17.901 24.5287 18.5939 23.7565 19.1104C23.2758 19.4326 22.7466 19.6321 22.1764 19.7241C21.8772 19.7727 21.578 19.788 21.2763 19.788C20.5348 19.7932 19.7933 19.7932 19.0518 19.7932C17.3744 19.7932 15.6945 19.7932 14.0172 19.7932C13.6259 19.7932 13.2373 19.765 12.8538 19.6755C11.8156 19.4352 10.9667 18.8957 10.3122 18.0544C9.9593 17.5993 9.71127 17.0879 9.53996 16.5407C9.25869 15.6407 8.97743 14.7381 8.69361 13.838C8.37399 12.8204 8.04926 11.8053 7.72709 10.7902C7.7143 10.7518 7.70152 10.7135 7.68618 10.6751C7.68106 10.6623 7.66572 10.6495 7.65549 10.6393C7.64526 10.647 7.62992 10.6546 7.62737 10.6649C7.60691 10.7186 7.58901 10.7723 7.57367 10.826C7.31286 11.6467 7.05205 12.4701 6.79125 13.2909C6.69664 13.5849 6.60203 13.8789 6.50743 14.173C6.49464 14.2165 6.46907 14.242 6.42049 14.242C6.38725 14.242 6.35657 14.242 6.32333 14.242C4.95536 14.242 3.58484 14.242 2.21688 14.242C2.17597 14.242 2.13506 14.2369 2.0967 14.2344C2.0788 14.2344 2.05579 14.2011 2.06091 14.1807C2.07369 14.1346 2.08903 14.0861 2.10182 14.04C2.61065 12.4266 3.11436 10.8106 3.63087 9.19974C3.92747 8.26902 4.24198 7.34596 4.55137 6.41779C4.78916 5.70441 5.2443 5.17001 5.89632 4.80436C6.65573 4.3748 7.47395 4.24439 8.32797 4.40804C9.29961 4.59469 10.0411 5.12654 10.5602 5.97033C10.7008 6.20045 10.8005 6.44848 10.8849 6.70673C11.519 8.65767 12.148 10.6086 12.7591 12.5647C12.9714 13.2397 13.1785 13.9173 13.3882 14.5923C13.424 14.71 13.4649 14.825 13.5237 14.9324C13.6617 15.1881 13.8765 15.3287 14.1629 15.3671C14.301 15.385 14.4391 15.3875 14.5771 15.3875C15.5232 15.3824 16.4667 15.3773 17.4128 15.3748C18.4074 15.3748 19.4021 15.3748 20.3942 15.3748C20.5732 15.3748 20.7521 15.3645 20.9311 15.362C21.0385 15.362 21.1408 15.3338 21.2405 15.298C21.3786 15.2495 21.4783 15.16 21.5243 15.0168C21.5397 14.9708 21.555 14.9222 21.5601 14.8762C21.5908 14.6563 21.5857 14.4364 21.5601 14.219C21.5576 14.1883 21.5269 14.1602 21.4962 14.1577C21.4809 14.1577 21.463 14.1551 21.4476 14.1551C20.747 14.15 20.0464 14.1423 19.3458 14.1372C19.1183 14.1372 18.8907 14.1525 18.6631 14.173C18.1313 14.2216 17.6071 14.1679 17.0932 14.0145C16.3747 13.7997 15.7533 13.4238 15.2317 12.8894C14.3496 11.9868 13.8842 10.9129 13.897 9.63698C13.9072 8.39175 13.8995 7.14396 13.9021 5.89873C13.9021 5.46661 13.9021 5.03449 13.9021 4.60237C13.9021 4.55378 13.9021 4.5052 13.9072 4.45662C13.9072 4.42594 13.9405 4.3927 13.9686 4.39014C14.0325 4.38758 14.099 4.38247 14.1629 4.38247C15.3928 4.38247 16.6227 4.38247 17.8551 4.38247C17.9114 4.38247 17.9702 4.38247 18.0264 4.38247C18.0418 4.38247 18.0597 4.38503 18.0725 4.3927C18.0853 4.40037 18.1032 4.41571 18.1032 4.42849C18.1083 4.50009 18.1134 4.57424 18.1134 4.64839C18.1159 5.84504 18.1185 7.04424 18.1211 8.24089C18.1211 8.44545 18.1185 8.64745 18.1083 8.852C18.1032 8.97473 18.1134 9.09747 18.1364 9.21509C18.1875 9.458 18.3333 9.61908 18.5736 9.69323C18.6913 9.72903 18.8114 9.74182 18.9342 9.74182C19.7575 9.74182 20.5808 9.74182 21.4042 9.74182C21.4374 9.74182 21.4681 9.74182 21.5013 9.7367C21.509 9.7367 21.5192 9.7367 21.5243 9.73159C21.5371 9.72136 21.555 9.70858 21.555 9.69579C21.5601 9.61397 21.5627 9.53215 21.5627 9.45288C21.5627 7.86502 21.5627 6.2746 21.5627 4.68674C21.5627 4.61259 21.5627 4.541 21.5627 4.46685C21.5627 4.45151 21.5653 4.43361 21.5729 4.42082C21.5806 4.40804 21.5959 4.39014 21.6062 4.39014C21.688 4.38503 21.7698 4.37991 21.8491 4.37991C23.079 4.37991 24.3089 4.37991 25.5413 4.37991C25.5975 4.37991 25.6564 4.37991 25.7126 4.37991C25.7356 4.37991 25.7638 4.37991 25.7842 4.39014C25.8047 4.39781 25.8251 4.41827 25.8328 4.43616C25.843 4.45662 25.843 4.48475 25.843 4.50776C25.843 4.57168 25.843 4.63816 25.843 4.70209C25.843 5.54076 25.843 6.37944 25.843 7.21812C25.843 7.29227 25.8507 7.36386 25.8532 7.43546C25.8532 7.43801 25.866 7.44568 25.8711 7.44313C25.9044 7.43801 25.8763 7.4687 25.8916 7.44057C25.93 7.36898 25.9657 7.29482 26.0041 7.22323C26.2087 6.82435 26.4388 6.44081 26.7149 6.08539C27.1829 5.48451 27.7556 5.01148 28.446 4.68419C28.8934 4.47196 29.3639 4.35434 29.8625 4.36201C29.9929 4.36201 30.1233 4.36201 30.2537 4.36201C31.8518 4.36201 33.4474 4.36201 35.0454 4.36201V4.37991Z" fill="#22374A"/>
<path d="M35.0454 4.37987C35.048 4.32362 35.0531 4.26737 35.0531 4.21111C35.0531 2.90707 35.0531 1.60048 35.048 0.296437C35.048 0.191603 35.048 0.0867682 35.0454 -0.0180664C37.114 -0.0180664 39.1851 -0.0180664 41.2537 -0.0180664C41.2664 0.00494606 41.2818 0.0202877 41.3074 0.0228446C41.4224 0.0279585 41.5324 0.0535279 41.6449 0.0765404C42.4708 0.255526 43.1483 0.672308 43.6776 1.32944C43.8975 1.60303 44.0791 1.9022 44.2351 2.21414C44.3348 2.41103 44.4243 2.61047 44.3961 2.84059C44.3961 2.84315 44.4038 2.85082 44.4089 2.85082C44.4166 2.85082 44.4268 2.84826 44.4294 2.84315C44.4498 2.79968 44.4703 2.75621 44.4882 2.71019C44.616 2.3829 44.7643 2.0684 44.9535 1.77435C45.4649 0.974027 46.1732 0.437069 47.0886 0.173704C47.3238 0.104667 47.5591 0.0458571 47.802 0.0254016C47.8301 0.0254016 47.8429 0.007503 47.8557 -0.0155095C49.8936 -0.0155095 51.9289 -0.0155095 53.9668 -0.0155095C53.9617 0.007503 53.954 0.0305155 53.954 0.0560849C53.954 1.42405 53.954 2.79201 53.954 4.15742C53.954 4.206 53.9514 4.25458 53.9489 4.30316C53.9489 4.33385 53.9182 4.36709 53.8901 4.36964C53.8568 4.3722 53.8261 4.37476 53.7929 4.37476C52.9619 4.37732 52.1309 4.38243 51.3024 4.38243C51.0749 4.38243 50.8473 4.3722 50.6197 4.35175C50.4101 4.33385 50.1978 4.33385 49.9856 4.36197C49.8169 4.38499 49.6455 4.39266 49.4768 4.4259C48.5103 4.61 47.7713 5.11883 47.265 5.96518C47.0502 6.32315 46.9019 6.7118 46.7894 7.11069C46.6974 7.43286 46.6386 7.76015 46.5925 8.08999C46.5772 8.19483 46.5772 8.30222 46.5695 8.40705C46.5644 8.46331 46.5593 8.51956 46.5516 8.57581C46.5389 8.68065 46.5261 8.69088 46.4085 8.69343C46.3829 8.69343 46.3599 8.69343 46.3343 8.69343C45.1044 8.69343 43.8745 8.69343 42.6472 8.69343C42.6216 8.69343 42.5986 8.69343 42.573 8.69343C42.4298 8.69343 42.4273 8.68832 42.4171 8.54257C42.3889 8.16926 42.3557 7.79595 42.279 7.4303C42.1537 6.84476 41.9466 6.29246 41.6142 5.78875C41.3406 5.37452 40.998 5.03189 40.5633 4.78643C40.236 4.59977 39.8831 4.48215 39.5098 4.42334C39.3232 4.39266 39.1391 4.37732 38.9499 4.37732C37.6791 4.37732 36.4108 4.37476 35.14 4.3722C35.1068 4.3722 35.0761 4.37731 35.0428 4.38243L35.0454 4.37987Z" fill="#F28F0C"/>
<path d="M57.411 19.8164C56.3345 19.8164 55.2606 19.8164 54.1841 19.8164C53.9463 19.8164 53.954 19.8241 53.954 19.594C53.954 18.2823 53.954 16.9706 53.954 15.6614C53.954 15.4236 53.9386 15.4364 54.179 15.4364C56.0609 15.4364 57.9428 15.4364 59.8247 15.4364C59.9398 15.4364 60.0523 15.4313 60.1674 15.4313C60.2594 15.4313 60.3463 15.4083 60.4282 15.375C60.5841 15.3188 60.6839 15.2088 60.7248 15.0452C60.7606 14.9071 60.758 14.7716 60.7197 14.6361C60.6839 14.5108 60.6046 14.4213 60.487 14.3676C60.4128 14.3344 60.3361 14.3062 60.2517 14.3037C60.1469 14.2986 60.0395 14.2883 59.9347 14.2883C59.6099 14.2883 59.2827 14.2883 58.9579 14.2909C58.6409 14.296 58.3212 14.2807 58.0067 14.2423C57.526 14.1835 57.0709 14.0378 56.6362 13.8255C55.5904 13.3141 54.4782 12.2402 54.0793 10.6268C54.0333 10.4376 54.0051 10.2433 53.9796 10.0489C53.9796 10.0336 53.9796 10.0157 53.977 10.0003C53.9744 9.95176 54 9.91852 54.0435 9.91852C54.0921 9.91852 54.1406 9.91596 54.1892 9.91596C55.4447 9.90829 56.6976 9.89806 57.953 9.89551C58.669 9.89551 59.3875 9.90318 60.1034 9.91596C60.4052 9.92108 60.7069 9.93642 61.006 9.95943C61.3256 9.98244 61.6325 10.0617 61.9291 10.1768C62.4533 10.3788 62.911 10.6856 63.315 11.0717C63.8979 11.624 64.3249 12.2811 64.6241 13.0226C64.7801 13.4087 64.8951 13.8076 64.954 14.2193C65 14.5594 65.0128 14.8994 64.9846 15.2421C64.9309 15.8915 64.7622 16.5078 64.4784 17.0907C64.1306 17.8041 63.6525 18.4152 63.0209 18.9011C62.6118 19.2156 62.1592 19.4559 61.6632 19.6042C61.5609 19.6349 61.4586 19.6605 61.3589 19.6937C61.1006 19.7755 60.8347 19.8088 60.5637 19.8088C59.5128 19.8139 58.4619 19.819 57.411 19.8241C57.411 19.8241 57.411 19.8216 57.411 19.819V19.8164Z" fill="#22374A"/>
<path d="M104.697 6.57127C104.697 7.21306 104.697 7.85741 104.697 8.49921C104.697 8.56313 104.689 8.62705 104.681 8.69098C104.681 8.70376 104.663 8.71655 104.651 8.72422C104.638 8.73189 104.62 8.73445 104.604 8.73445C104.548 8.73445 104.489 8.73445 104.433 8.73445C103.237 8.73445 102.04 8.73445 100.843 8.73445C100.779 8.73445 100.713 8.73189 100.649 8.72933C100.621 8.72933 100.59 8.69353 100.588 8.66541C100.588 8.64239 100.582 8.61683 100.582 8.59126C100.582 8.54267 100.582 8.49409 100.582 8.44551C100.582 7.19261 100.582 5.93971 100.582 4.68681C100.582 4.34673 100.562 4.38509 100.884 4.38509C102.055 4.38509 103.229 4.38509 104.4 4.38509C104.464 4.38509 104.53 4.38509 104.594 4.38509C104.663 4.38509 104.691 4.41577 104.694 4.49248C104.694 4.54873 104.694 4.60754 104.694 4.66379C104.694 5.29792 104.694 5.93204 104.694 6.56872L104.697 6.57127Z" fill="#F28F0C"/>
<path d="M42.435 12.0534C42.435 11.4192 42.435 10.7826 42.435 10.1484C42.435 10.0845 42.4401 10.018 42.4452 9.95411C42.4452 9.94133 42.4631 9.92599 42.4785 9.92087C42.4913 9.9132 42.5091 9.91064 42.527 9.91064C42.5756 9.91064 42.6242 9.91064 42.6728 9.91064C43.8771 9.91064 45.0814 9.91064 46.2883 9.91064C46.3522 9.91064 46.4187 9.91576 46.4826 9.92087C46.4954 9.92087 46.5108 9.93877 46.5184 9.95156C46.5261 9.96434 46.5287 9.98224 46.5287 9.99758C46.5287 10.0538 46.5287 10.1126 46.5287 10.1689C46.5287 11.4397 46.5287 12.7079 46.5287 13.9787C46.5287 14.0529 46.5235 14.1245 46.5159 14.1961C46.5159 14.2089 46.498 14.2242 46.4852 14.2319C46.4724 14.2395 46.4545 14.2421 46.4392 14.2421C46.3829 14.2421 46.3241 14.2421 46.2679 14.2421C45.0789 14.2421 43.8899 14.2421 42.7035 14.2421C42.6293 14.2421 42.5577 14.237 42.4836 14.2319C42.4708 14.2319 42.4555 14.214 42.4503 14.2012C42.4427 14.1782 42.4376 14.1526 42.4376 14.1296C42.4376 14.0145 42.4376 13.902 42.4376 13.787C42.4376 13.2091 42.4376 12.6312 42.4376 12.0534H42.435Z" fill="#F28F0C"/>
<path d="M42.435 17.5814C42.435 16.9703 42.435 16.3618 42.435 15.7507C42.435 15.6944 42.435 15.6356 42.435 15.5793C42.435 15.4489 42.4503 15.4362 42.5705 15.4336C42.5782 15.4336 42.5859 15.4336 42.5961 15.4336C43.849 15.4336 45.1044 15.4336 46.3573 15.4336C46.3982 15.4336 46.4392 15.4387 46.4775 15.4464C46.4903 15.4464 46.5031 15.4668 46.5108 15.4796C46.5184 15.4924 46.521 15.5103 46.521 15.5256C46.521 15.5896 46.521 15.656 46.521 15.72C46.521 16.9652 46.521 18.2104 46.521 19.4557C46.521 19.7625 46.544 19.7369 46.2499 19.7369C45.0686 19.7369 43.8899 19.7369 42.7086 19.7369C42.6677 19.7369 42.6268 19.7369 42.5859 19.7369C42.4478 19.7369 42.4324 19.7241 42.4324 19.5835C42.4324 18.9161 42.4324 18.2488 42.4324 17.5814H42.435Z" fill="#F28F0C"/>
<path d="M1.10463 19.8216C0.928197 19.8267 0.669946 19.7883 0.411695 19.7704C0.386126 19.7704 0.36567 19.7449 0.370784 19.7219C0.378455 19.681 0.386126 19.6426 0.396353 19.6042C0.813135 18.2363 1.22992 16.8683 1.64925 15.5004C1.65948 15.4697 1.66715 15.4364 1.67994 15.4083C1.69528 15.3776 1.71573 15.3546 1.75409 15.3546C1.80267 15.3546 1.85125 15.3521 1.89983 15.3521C3.20899 15.3521 4.5207 15.3521 5.82985 15.3521C5.88611 15.3521 5.94236 15.3597 5.99861 15.3623C6.01651 15.3623 6.03952 15.3981 6.03697 15.4185C5.98327 15.756 5.90912 16.0884 5.80684 16.4157C5.65598 16.899 5.45143 17.3592 5.17528 17.7837C4.75082 18.4383 4.20108 18.9573 3.50048 19.3102C3.0837 19.5199 2.6439 19.6605 2.18366 19.7346C1.85381 19.7883 1.52141 19.8216 1.10207 19.8216H1.10463Z" fill="#22374A"/>
</g>
<defs>
<clipPath id="clip0_229_2510">
<rect width="130" height="19.939" fill="white"/>
</clipPath>
</defs>
</svg>
