<?xml version="1.0" encoding="UTF-8"?><svg id="a" xmlns="http://www.w3.org/2000/svg" viewBox="0 0 5084.2 779.8"><defs><style>.b{fill:#22374a;}.b,.c,.d{stroke-width:0px;}.c{fill:#fff;}.d{fill:#f28f0c;}</style></defs><rect class="c" x="-10" y="-12.8" width="5115.7" height="830.7"/><path class="b" d="m4363.2,777.3c-.2-.5-.4-1.5-.7-1.5-6-.8-12-1.5-18-2.1-71.3-7.6-132-36.2-180.3-89.9-18.8-21-34.5-44.2-47.7-69-4.3-8.1-8.2-16.5-12.3-24.8-.9-1.7-1.7-3.5-3.6-4.3-.5-.2-1.2-.3-1.8-.3-.8,0-1.2.4-1.2,1.2,0,1-.2,1.9-.2,2.8,0,2.5,0,5.1,0,7.6,0,54.8,0,109.6,0,164.4,0,3.2,0,6.4-.2,9.5,0,1.2-1.2,2.3-2.5,2.4-1.6,0-3.2.1-4.8.2-4.5,0-8.9,0-13.4,0-43.7,0-87.3,0-131,0-2.9,0-5.7,0-8.6,0-2.8,0-3.7-1.1-3.8-4.2,0-2.9,0-5.7,0-8.6,0-55.1,0-110.2,0-165.4,0-2.5,0-5.1,0-7.6,0-1.2.3-2.4-.8-3.5-.5-.5-1.5.2-2.6,2.2-1.6,2.8-3,5.6-4.6,8.3-7.5,12.6-14.8,25.3-22.5,37.7-8.6,13.8-18,27-28.5,39.5-18.6,22.1-39.6,41.4-63.5,57.6-31.3,21.3-65.5,35.2-102.8,41.6-16.6,2.9-33.5,4.5-50.4,4.6-51.6,0-103.3,0-154.9,0-9,0-9,.3-9-8.8,0-31.2,0-62.4,0-93.7,0-104.8,0-209.6,0-314.5,0-2.5,0-5.1,0-7.6,0-5.4-.7-5.7-5.5-7.5-1.7-.7-3.7-.8-5.6-.9-8.6-.3-17.2-.8-25.8-.8-5.1,0-10.1.8-15.2,1.5-1.9.2-3.7,1-5.5,1.6-4.7,1.8-8,5.1-9.9,9.7-2.1,5.1-3,10.4-3.4,15.8-.3,4.4-.4,8.9-.5,13.4,0,22.6,0,45.2,0,67.9,0,18.5,0,37,0,55.4.1,22.9-.7,45.9-1.8,68.8-.9,18.2-5,35.9-11.2,53.1-19.7,55.4-65,105.9-122.3,129.9-15,6.3-30.6,10.6-46.8,13-10.1,1.5-20.3,2.3-30.4,2.7-13.1.5-26.1-.8-39-2.8-23.8-3.6-46.4-11.1-67.6-22.6-41.2-22.3-71.4-55-91.6-97-9.8-20.5-16.5-42-19.9-64.5-2-13.3-3.4-26.5-3.4-39.9-.1-24.5-.2-49.1-.2-73.6,0-31.9,0-63.7,0-95.6,0-5.7-.2-11.5-1.3-17.1-.1-.6-.2-1.3-.3-1.9-2.4-11.1-8.1-14.4-16.6-16-5-.9-10.1-.9-15.2-1.1-5.1-.2-10.2-.2-15.3-.2-31.9,0-63.7,0-95.6,0-7.9,0-8,.4-7.9,7.9,0,2.5,0,5.1,0,7.6,0,134.5,0,268.9,0,403.4,0,14.8,2.1,12.6-12.5,12.6-46.2,0-92.4,0-138.6,0-3.2,0-6.4-.2-9.5-.2-.6,0-2.1-1.2-2.1-1.7,0-1-.2-1.9-.2-2.9,0-2.9,0-5.7,0-8.6,0-135.1,0-270.2,0-405.3,0-3.5-.1-7-.3-10.5,0-.5-.7-1.1-1.2-1.4-.5-.3-1.2-.4-1.9-.4-3.2,0-6.4,0-9.6,0-178.1,0-356.3,0-534.4,0-3.5,0-7,0-10.5-.1-1.2,0-2.4-1.2-2.4-2.5-.3-5.7,0-11.5.9-17.1,2.8-19.1,9-37.1,18.5-53.9,21.8-38.7,52.8-67.4,93.7-85.2,19.5-8.5,40-12.6,61.3-12.7,63.1-.2,126.2-.4,189.3-.5,75.8-.1,151.7-.2,227.5-.1,94.3.1,188.7.6,283,.6,43.4,0,80.1,15.7,111,45.6,27.6,26.6,44.9,59.1,52.6,96.7,2.3,11,3,22.1,3,33.3,0,28-.1,56.1-.1,84.1,0,37.6,0,75.2-.1,112.8,0,7.7.9,15.2,3.1,22.6,3.5,11.4,10.2,20.4,20.1,27.1,5.3,3.6,11,6.3,17.2,8.1,9.2,2.7,18.3,2.1,27.2-1.2,8.5-3.1,15.9-8,22.3-14.4,5-5.1,8.7-11,11.1-17.7,2.3-6.3,3.8-12.8,4-19.6.2-4.5.2-8.9.2-13.4,0-53.5,0-107.1,0-160.6,0-8,0-15.9.2-23.9.2-15.7,1.9-31.2,5.5-46.4,8.8-37.1,27-68.5,56.4-93.1,19.6-16.4,41.9-27.5,66.5-34.5,13.3-3.8,26.7-5.9,40.5-5.7,37.9.4,75.8.5,113.8.8,33.8.2,67.6-.2,101.3-1.6,15.9-.7,31.8.4,47.7,2.4,17.1,2.1,33.9,5.7,50.3,10.9,46.9,14.9,86.9,40.5,120.6,76.2,29.3,30.9,51.1,66.5,66.6,106.2,1.2,3,2.3,5.9,3.5,8.9.5,1.3,1.5,2.1,2.9,2.1,2.5,0,5.1.1,7.6.1,47.8,0,95.6,0,143.4,0,2.5,0,5.1,0,7.6-.2,1.3,0,2.4-.8,3-2,1.4-2.9,2.6-5.8,3.9-8.7,12.7-28.3,27.5-55.3,45.8-80.3,16.1-22,34.4-41.8,55.8-58.7,30.5-24.1,64.7-40.2,102.7-48.5,24.1-5.3,48.5-7.6,73.1-6.9,28.1.7,55.8,4.4,82.8,12.7,39.7,12.2,74.4,32.9,104.1,61.9,19.5,19,35.8,40.5,49.9,63.8,7.7,12.8,14.7,26.1,21,39.7.9,2,1.8,4.1,2.9,6,.4.8,1.2,1.4,1.9,2.1.9.9,2.6.6,3.3-.4,1.2-1.7,1.4-3.5,1.5-5.4,0-2.2-.2-4.5.4-6.7,2.8-10.8,3.1-22.1,6.2-32.8,1.8-6.1,3.5-12.3,5.6-18.2,1.9-5.4,4.2-10.7,6.6-15.9,23.8-51.6,70.2-88.7,124.4-101.7,15.2-3.7,30.7-5.6,46.4-5.6,71.4.2,142.8.3,214.2.5,6.4,0,12.7.1,19.1,0,3.2,0,6.3-.3,9.5-.5v170.1c-2.3,0-4.3.9-5.9,2.6-3.8,3.9-8.5,5.5-13.8,5.5-2.2,0-4.5,0-6.7,0-3.8,0-7.6-.2-11.5-.2-52.2,0-104.4.1-156.6.2-11.1,0-22.3,0-33.4,0-4.8,0-9.5.5-14.2,1.6-5.1,1.3-9.4,3.8-12.8,7.8-.8.9-1.3,2.2-1.6,3.4-.3,1.2-.2,2.5-.2,3.8,0,5.8,3.1,9.5,8.4,11.6,3.6,1.4,7.3,2,11.2,2.3,13,1,26.1,1,39.1.7,14.7-.2,29.3.4,43.8,2.7,18,2.9,35.3,8.2,51.6,16.4,22.8,11.4,42,27.4,58.5,46.7,12.2,14.3,22.4,30.1,31.6,46.5,4.1,7.3,6.8,15,8,23.3.3,2.5.5,5.1.7,7.6.8,7.3,1.5,14.5,2.4,21.8,0,.8.9,1.6,1.4,2.3v11.5c-7.7,5-9.6,5.7-18.5,6.4-2.9.2-5.7.3-8.6.3-39.1.2-78.3.5-117.4.7-37.2.1-74.5,0-111.7-1.3-14.4-.5-28.5-2.6-42.4-6.2-29.6-7.7-55.4-22.1-77.2-43.6-12.3-12.1-22.7-25.8-31.6-40.6-2-3.3-3.9-6.5-5.8-9.8,0,0-.2.2-.2.2h.4c-.1,1.9-.4,3.8-.3,5.7,0,13.4.2,26.7.3,40.1,0,6.4-.5,12.7-1.5,19-1.6,10.1-4.5,19.8-7,29.7-2.1,8.3-4.2,16.6-6.1,25-.7,3.1-.8,6.3-1,9.5,0,.4.7,1.3,1.2,1.3,3.2.3,6.3.4,9.5.5,51.6,1.1,103.2,1,154.8,1,64,0,128,0,192-.1,13.1,0,26.1-.2,39.2-.2,3.8,0,7.6.3,11.4.5,4.2.3,8,1.8,11.8,3.6,2.4,1.2,4,3,5,5.5.9,2.1,1.4,4.2,1.5,6.5,0,3.2-.3,6.3-1.3,9.4-2.9,9.8-6,19.4-9.6,29-7.1,18.5-16.1,36-27.8,52-15.1,20.7-33.8,37.1-56.5,49-15.6,8.2-32.1,13.8-49.4,17.3-19.7,4-39.7,5.9-59.8,5.9-30.3,0-60.5-.1-90.8-.2-88.9-.1-177.7-.3-266.6-.4-27.7,0-55.4.4-83.1.7-2.5,0-5.1.1-7.6.3s-.9.7-1.4,1.1c-19.1,0-38.2,0-57.4,0Zm9-434.9c-12.9.1-25.1,1.8-37,5.9-23.2,7.9-42.4,21.7-57.8,40.6-19.1,23.5-29.2,50.5-30.1,80.8-.5,17.3,2.5,34.2,8.8,50.4,12.2,31.1,32.7,55,62.4,70.6,20.3,10.6,42,14.6,64.7,12.3,20.7-2.2,39.4-9.7,56.3-21.8,40-28.7,62-79.2,53-131-4.5-26-15.6-49-33.7-68.3-23.5-25.1-52.4-38.7-86.7-39.5Zm-592.5,131.7c0-10.9-1.2-21.3-3.5-31.6-6.6-29.4-21.6-53.5-45.4-71.9-19.6-15.1-42.1-23.4-66.5-27-.6,0-1.3,0-1.9-.1-1.1,0-2.6,1.1-2.6,2.2,0,2.9-.1,5.7-.1,8.6,0,79.3,0,158.6,0,237.9s0,3.2,0,4.8c0,1,0,1.9,0,2.9,0,1.9,1.2,2.9,3,2.6,18.2-2.4,35.4-7.6,51.6-16.4,25.6-13.9,44.2-34.1,55.4-61,6.8-16.4,9.7-33.6,10-50.9Z"/><path class="b" d="m1370.6,171.3c0,54.1,0,108.3,0,162.4,0,1.9-.1,3.8-.4,5.7,0,.5-.7,1.1-1.2,1.3-.5.3-1.2.4-1.8.4-2.9,0-5.7,0-8.6,0-50.7,0-101.3,0-152,0s-3.2,0-4.8,0c-8.9,0-10.7.7-17.1,6.5-9.3,8.5-12.4,18.9-10,31.1.5,2.3,1.7,3.3,3.9,3.4,2.9,0,5.7,0,8.6,0,25.2,0,50.3,0,75.5,0,2.9,0,5.7,0,8.6,0,3.4,0,3.9,1.6,4,4.1,0,2.2,0,4.5,0,6.7,0,52.2,0,104.5,0,156.7,0,1.9,0,3.8,0,5.7,0,4.1-.7,4.7-5.2,4.7-2.5,0-5.1,0-7.6,0-24.5,0-49.1,0-73.6,0-2.9,0-5.7,0-8.6.2-1.3,0-2.5,1-2.8,2.1-2,6.5-2.4,13.2-1.5,19.9,1.1,8.7,5.8,14.6,14.4,17.2,3.1.9,6.1,1.8,9.3,1.8,3.8.1,7.6.4,11.5.4,43,0,86,.1,129,.2,7.3,0,14.7,0,22,0,1.6,0,3.2.1,4.8.2,1.2,0,2.5,1.2,2.6,2.3.1,2.5.3,5.1.3,7.6,0,13.7,0,27.4,0,41.1,0,36.3,0,72.6,0,108.9,0,3.2-.1,6.4-.3,9.5,0,1.5-1.6,2.8-3.2,2.8-2.2,0-4.5,0-6.7-.2-26.1-.9-52.2.2-78.3,1.4-1.6,0-3.2,0-4.3,1.5h-84.1c-.2-.9-.2-1.8-1.5-2-11.1-1.2-22.2-2.4-33.2-3.8-11.1-1.4-22-3.4-32.7-6.6-30.6-9.1-55.4-26.7-75.1-51.7-11.3-14.4-20.1-30.2-27.5-46.8-4.8-10.8-8.6-21.9-11.6-33.3-.2-.9-.7-1.7-1.1-2.5,0,0-.7,0-.9.3-.6.7-1.3,1.4-1.5,2.2-3.2,11.7-7.2,23.1-12,34.2-14.6,33.2-36.6,60.3-66.8,80.5-18.8,12.6-39.5,20.4-61.8,24-11.7,1.9-23.4,2.5-35.2,2.5-29,.2-58,.2-87,.2-65.6,0-131.3,0-196.9,0-15.3,0-30.5-1.1-45.5-4.6-40.6-9.4-73.8-30.5-99.4-63.4-13.8-17.8-23.5-37.8-30.2-59.2-11-35.2-22-70.5-33.1-105.7-12.5-39.8-25.2-79.5-37.8-119.2-.5-1.5-1-3-1.6-4.5-.2-.5-.8-1-1.2-1.4-.4.3-1,.6-1.1,1-.8,2.1-1.5,4.2-2.1,6.3-10.2,32.1-20.4,64.3-30.6,96.4-3.7,11.5-7.4,23-11.1,34.5-.5,1.7-1.5,2.7-3.4,2.7-1.3,0-2.5,0-3.8,0-53.5,0-107.1,0-160.6,0-1.6,0-3.2-.2-4.7-.3-.7,0-1.6-1.3-1.4-2.1.5-1.8,1.1-3.7,1.6-5.5,19.9-63.1,39.6-126.3,59.8-189.3,11.6-36.4,23.9-72.5,36-108.8,9.3-27.9,27.1-48.8,52.6-63.1,29.7-16.8,61.7-21.9,95.1-15.5,38,7.3,67,28.1,87.3,61.1,5.5,9,9.4,18.7,12.7,28.8,24.8,76.3,49.4,152.6,73.3,229.1,8.3,26.4,16.4,52.9,24.6,79.3,1.4,4.6,3,9.1,5.3,13.3,5.4,10,13.8,15.5,25,17,5.4.7,10.8.8,16.2.8,37-.2,73.9-.4,110.9-.5,38.9,0,77.8,0,116.6,0,7,0,14-.4,21-.5,4.2,0,8.2-1.1,12.1-2.5,5.4-1.9,9.3-5.4,11.1-11,.6-1.8,1.2-3.7,1.4-5.5,1.2-8.6,1-17.2,0-25.7-.1-1.2-1.3-2.3-2.5-2.4-.6,0-1.3-.1-1.9-.1-27.4-.2-54.8-.5-82.2-.7-8.9,0-17.8.6-26.7,1.4-20.8,1.9-41.3-.2-61.4-6.2-28.1-8.4-52.4-23.1-72.8-44-34.5-35.3-52.7-77.3-52.2-127.2.4-48.7.1-97.5.2-146.2,0-16.9,0-33.8,0-50.7,0-1.9,0-3.8.2-5.7,0-1.2,1.3-2.5,2.4-2.6,2.5-.1,5.1-.3,7.6-.3,48.1,0,96.2,0,144.4,0,2.2,0,4.5,0,6.7,0,.6,0,1.3.1,1.8.4.5.3,1.2.9,1.2,1.4.2,2.8.4,5.7.4,8.6.1,46.8.2,93.7.3,140.5,0,8-.1,15.9-.5,23.9-.2,4.8.2,9.6,1.1,14.2,2,9.5,7.7,15.8,17.1,18.7,4.6,1.4,9.3,1.9,14.1,1.9,32.2,0,64.4,0,96.6,0,1.3,0,2.5,0,3.8-.2.3,0,.7,0,.9-.2.5-.4,1.2-.9,1.2-1.4.2-3.2.3-6.4.3-9.5,0-62.1,0-124.3,0-186.4,0-2.9,0-5.7,0-8.6,0-.6.1-1.3.4-1.8.3-.5.9-1.2,1.3-1.2,3.2-.2,6.4-.4,9.5-.4,48.1,0,96.2,0,144.4,0,2.2,0,4.5,0,6.7,0,.9,0,2,0,2.8.4.8.3,1.6,1.1,1.9,1.8.4.8.4,1.9.4,2.8,0,2.5,0,5.1,0,7.6,0,32.8,0,65.6,0,98.4,0,2.9.3,5.7.4,8.5,0,.1.5.4.7.3,1.3-.2.2,1,.8-.1,1.5-2.8,2.9-5.7,4.4-8.5,8-15.6,17-30.6,27.8-44.5,18.3-23.5,40.7-42,67.7-54.8,17.5-8.3,35.9-12.9,55.4-12.6,5.1,0,10.2,0,15.3,0,62.5,0,124.9,0,187.4,0Z"/><path class="d" d="m1370.6,171.3c.1-2.2.3-4.4.3-6.6,0-51,0-102.1-.2-153.1,0-4.1,0-8.2-.1-12.3,80.9,0,161.9,0,242.8,0,.5.9,1.1,1.5,2.1,1.6,4.5.2,8.8,1.2,13.2,2.1,32.3,7,58.8,23.3,79.5,49,8.6,10.7,15.7,22.4,21.8,34.6,3.9,7.7,7.4,15.5,6.3,24.5,0,.1.3.4.5.4.3,0,.7-.1.8-.3.8-1.7,1.6-3.4,2.3-5.2,5-12.8,10.8-25.1,18.2-36.6,20-31.3,47.7-52.3,83.5-62.6,9.2-2.7,18.4-5,27.9-5.8,1.1,0,1.6-.7,2.1-1.6,79.7,0,159.3,0,239,0-.2.9-.5,1.8-.5,2.8,0,53.5,0,107,0,160.4,0,1.9-.1,3.8-.2,5.7,0,1.2-1.2,2.5-2.3,2.6-1.3.1-2.5.2-3.8.2-32.5.1-65,.3-97.4.3-8.9,0-17.8-.4-26.7-1.2-8.2-.7-16.5-.7-24.8.4-6.6.9-13.3,1.2-19.9,2.5-37.8,7.2-66.7,27.1-86.5,60.2-8.4,14-14.2,29.2-18.6,44.8-3.6,12.6-5.9,25.4-7.7,38.3-.6,4.1-.6,8.3-.9,12.4-.2,2.2-.4,4.4-.7,6.6-.5,4.1-1,4.5-5.6,4.6-1,0-1.9,0-2.9,0-48.1,0-96.2,0-144.2,0-1,0-1.9,0-2.9,0-5.6,0-5.7-.2-6.1-5.9-1.1-14.6-2.4-29.2-5.4-43.5-4.9-22.9-13-44.5-26-64.2-10.7-16.2-24.1-29.6-41.1-39.2-12.8-7.3-26.6-11.9-41.2-14.2-7.3-1.2-14.5-1.8-21.9-1.8-49.7,0-99.3-.1-149-.2-1.3,0-2.5.2-3.8.4Z"/><path class="b" d="m2245.3,775c-42.1,0-84.1,0-126.2,0-9.3,0-9,.3-9-8.7,0-51.3,0-102.6,0-153.8,0-9.3-.6-8.8,8.8-8.8,73.6,0,147.2,0,220.8,0,4.5,0,8.9-.2,13.4-.2,3.6,0,7-.9,10.2-2.2,6.1-2.2,10-6.5,11.6-12.9,1.4-5.4,1.3-10.7-.2-16-1.4-4.9-4.5-8.4-9.1-10.5-2.9-1.3-5.9-2.4-9.2-2.5-4.1-.2-8.3-.6-12.4-.6-12.7,0-25.5,0-38.2.1-12.4.2-24.9-.4-37.2-1.9-18.8-2.3-36.6-8-53.6-16.3-40.9-20-84.4-62-100-125.1-1.8-7.4-2.9-15-3.9-22.6,0-.6,0-1.3-.1-1.9-.1-1.9.9-3.2,2.6-3.2,1.9,0,3.8-.1,5.7-.1,49.1-.3,98.1-.7,147.2-.8,28,0,56.1.3,84.1.8,11.8.2,23.6.8,35.3,1.7,12.5.9,24.5,4,36.1,8.5,20.5,7.9,38.4,19.9,54.2,35,22.8,21.6,39.5,47.3,51.2,76.3,6.1,15.1,10.6,30.7,12.9,46.8,1.8,13.3,2.3,26.6,1.2,40-2.1,25.4-8.7,49.5-19.8,72.3-13.6,27.9-32.3,51.8-57,70.8-16,12.3-33.7,21.7-53.1,27.5-4,1.2-8,2.2-11.9,3.5-10.1,3.2-20.5,4.5-31.1,4.5-41.1.2-82.2.4-123.3.6,0,0,0-.1,0-.2Z"/><path class="d" d="m4094.6,257c0,25.1,0,50.3,0,75.4,0,2.5-.3,5-.6,7.5,0,.5-.7,1-1.2,1.3-.5.3-1.2.4-1.8.4-2.2,0-4.5,0-6.7,0-46.8,0-93.6,0-140.4,0-2.5,0-5.1-.1-7.6-.2-1.1,0-2.3-1.4-2.4-2.5,0-.9-.2-1.9-.2-2.9,0-1.9,0-3.8,0-5.7,0-49,0-98,0-147,0-13.3-.8-11.8,11.8-11.8,45.8,0,91.7,0,137.5,0,2.5,0,5.1,0,7.6,0,2.7,0,3.8,1.2,3.9,4.2,0,2.2,0,4.5,0,6.7,0,24.8,0,49.6,0,74.5Z"/><path class="d" d="m1659.6,471.4c0-24.8,0-49.7,0-74.5,0-2.5.2-5.1.4-7.6,0-.5.7-1.1,1.3-1.3.5-.3,1.2-.4,1.9-.4,1.9,0,3.8,0,5.7,0,47.1,0,94.2,0,141.4,0,2.5,0,5.1.2,7.6.4.5,0,1.1.7,1.4,1.2.3.5.4,1.2.4,1.8,0,2.2,0,4.5,0,6.7,0,49.7,0,99.3,0,149,0,2.9-.2,5.7-.5,8.5,0,.5-.7,1.1-1.2,1.4-.5.3-1.2.4-1.8.4-2.2,0-4.5,0-6.7,0-46.5,0-93,0-139.4,0-2.9,0-5.7-.2-8.6-.4-.5,0-1.1-.7-1.3-1.2-.3-.9-.5-1.9-.5-2.8,0-4.5,0-8.9,0-13.4,0-22.6,0-45.2,0-67.8Z"/><path class="d" d="m1659.6,687.6c0-23.9,0-47.7,0-71.6,0-2.2,0-4.5,0-6.7,0-5.1.6-5.6,5.3-5.7.3,0,.6,0,1,0,49,0,98.1,0,147.1,0,1.6,0,3.2.2,4.7.5.5,0,1,.8,1.3,1.3.3.5.4,1.2.4,1.8,0,2.5,0,5.1,0,7.6,0,48.7,0,97.4,0,146.1,0,12,.9,11-10.6,11-46.2,0-92.3,0-138.5,0-1.6,0-3.2,0-4.8,0-5.4,0-6-.5-6-6,0-26.1,0-52.2,0-78.3h0Z"/><path class="b" d="m43.2,775.2c-6.9.2-17-1.3-27.1-2-1,0-1.8-1-1.6-1.9.3-1.6.6-3.1,1-4.6,16.3-53.5,32.6-107,49-160.5.4-1.2.7-2.5,1.2-3.6.6-1.2,1.4-2.1,2.9-2.1,1.9,0,3.8-.1,5.7-.1,51.2,0,102.5,0,153.7,0,2.2,0,4.4.3,6.6.4.7,0,1.6,1.4,1.5,2.2-2.1,13.2-5,26.2-9,39-5.9,18.9-13.9,36.9-24.7,53.5-16.6,25.6-38.1,45.9-65.5,59.7-16.3,8.2-33.5,13.7-51.5,16.6-12.9,2.1-25.9,3.4-42.3,3.4Z"/></svg>