<svg width="169" height="31" viewBox="0 0 169 31" fill="none" xmlns="http://www.w3.org/2000/svg">
<path d="M38.7519 29.484V11.1438L24.9866 28.901C24.3505 29.6858 23.4192 30.0894 22.2153 30.0894C21.0114 30.0894 20.0801 29.6858 19.4441 28.901L5.70148 11.1438V29.484H0V3.56553C0 2.69112 0.318011 2.06334 0.976748 1.63735C1.63548 1.23377 2.43051 1.03198 3.40726 1.03198C4.15686 1.03198 4.74745 1.14409 5.17903 1.34587C5.61062 1.54766 6.01949 1.88397 6.38293 2.35481L22.3062 23.2062L38.343 2.35481C38.7065 1.88397 39.0699 1.54766 39.4788 1.34587C39.8876 1.14409 40.4328 1.03198 41.1597 1.03198C42.1137 1.03198 42.9315 1.23377 43.5902 1.63735C44.2489 2.04092 44.5669 2.69112 44.5669 3.56553V29.484H38.7519Z" fill="#1F2148"/>
<path d="M59.8769 29.4838C57.8098 29.4838 56.0834 29.3045 54.6978 28.9682C53.3122 28.6318 52.2219 28.0937 51.3814 27.3314C50.5637 26.5915 49.9731 25.605 49.6324 24.3943C49.2916 23.1836 49.1099 21.7038 49.1099 19.9326V16.9506C49.1099 15.1794 49.2916 13.6772 49.6324 12.4664C49.9731 11.2333 50.5637 10.2468 51.3814 9.50689C52.1992 8.767 53.3122 8.20648 54.6978 7.87017C56.0834 7.53386 57.8098 7.35449 59.8769 7.35449H67.3728C69.4626 7.35449 71.2117 7.53386 72.5746 7.87017C73.9602 8.20648 75.0505 8.767 75.891 9.52931C76.7087 10.2916 77.2993 11.2781 77.64 12.5113C77.9808 13.7444 78.1625 15.2242 78.1625 16.9954V19.9326C78.1625 21.7038 77.9808 23.1836 77.64 24.3943C77.2993 25.605 76.7087 26.5915 75.891 27.3314C75.0732 28.0713 73.9602 28.6318 72.5746 28.9682C71.189 29.3045 69.4626 29.4838 67.3728 29.4838H59.8769ZM72.0067 17.1524C72.0067 16.2331 71.9386 15.4708 71.7796 14.8655C71.6205 14.2601 71.348 13.7893 70.9618 13.453C70.5529 13.1166 70.0078 12.8924 69.2809 12.7579C68.554 12.6458 67.6454 12.5785 66.5551 12.5785H60.7173C59.6043 12.5785 58.7184 12.6458 58.0142 12.7579C57.3101 12.87 56.7649 13.1166 56.356 13.453C55.9472 13.7893 55.6746 14.2601 55.5383 14.8655C55.3793 15.4708 55.3111 16.2331 55.3111 17.1524V19.7756C55.3111 20.6949 55.3793 21.4572 55.5383 22.0401C55.6973 22.6231 55.9699 23.0939 56.356 23.4302C56.7649 23.7665 57.3101 24.0132 58.0142 24.1477C58.7184 24.2822 59.627 24.3495 60.7173 24.3495H66.5551C67.6681 24.3495 68.5767 24.2822 69.2809 24.1477C70.0078 24.0132 70.5529 23.7665 70.9618 23.4302C71.3707 23.0939 71.6433 22.6231 71.7796 22.0401C71.9386 21.4572 72.0067 20.6949 72.0067 19.7756V17.1524Z" fill="#1F2148"/>
<path d="M105.58 29.4838V17.1524C105.58 16.2331 105.511 15.4708 105.352 14.8879C105.193 14.3049 104.944 13.8341 104.557 13.4978C104.194 13.1615 103.672 12.9149 103.035 12.7803C102.377 12.6458 101.559 12.5785 100.582 12.5785H93.8813C92.9046 12.5785 92.1096 12.6458 91.4508 12.7803C90.7921 12.9149 90.2924 13.1615 89.9062 13.4978C89.52 13.8341 89.2475 14.3049 89.0885 14.8879C88.9295 15.4708 88.8613 16.2331 88.8613 17.1524V29.4838H82.7055V16.9506C82.7055 15.1794 82.8873 13.6772 83.228 12.4664C83.5687 11.2333 84.1593 10.2468 84.977 9.50689C85.7948 8.767 86.9078 8.20648 88.2934 7.87017C89.679 7.53386 91.4054 7.35449 93.4725 7.35449H100.968C103.058 7.35449 104.807 7.53386 106.17 7.87017C107.556 8.20648 108.646 8.74458 109.487 9.50689C110.304 10.2468 110.895 11.2333 111.236 12.4664C111.576 13.6996 111.758 15.1794 111.758 16.9506V29.4838H105.58Z" fill="#1F2148"/>
<path d="M116.506 29.4835V0.224365H122.798V29.5059H116.506V29.4835Z" fill="#1F2148"/>
<path d="M129.771 6.09846C128.999 6.09846 128.454 5.94151 128.136 5.65004C127.818 5.35857 127.659 4.86531 127.659 4.21511V1.83851C127.659 1.1883 127.818 0.717466 128.136 0.425996C128.454 0.134525 128.999 0 129.771 0H131.793C132.588 0 133.156 0.134525 133.474 0.425996C133.792 0.717466 133.951 1.1883 133.951 1.83851V4.21511C133.951 4.86531 133.792 5.33615 133.474 5.65004C133.156 5.94151 132.588 6.09846 131.793 6.09846H129.771ZM127.681 29.4834V7.93696H133.973V29.4834H127.681Z" fill="#1F2148"/>
<path d="M160.913 7.04053L168.864 7.13021L157.665 17.9595L169 29.2595H161.3L153.736 21.2553L146.035 29.2595H138.516" fill="#31CE93"/>
<path d="M148.489 3.81168C148.489 3.60986 148.421 3.40804 148.284 3.25107C148.148 3.09409 147.944 3.00439 147.739 3.00439C147.716 3.00439 147.716 3.00439 147.694 3.00439C147.512 3.00439 147.307 3.07167 147.171 3.20622C147.012 3.34077 146.921 3.54259 146.921 3.74441C146.898 4.17048 147.239 4.52927 147.648 4.5517C148.103 4.5517 148.466 4.23775 148.489 3.81168Z" fill="#31CE93"/>
<path d="M141.901 3.58805C141.901 3.38623 141.833 3.18441 141.697 3.02743C141.561 2.87046 141.356 2.78076 141.152 2.78076C141.129 2.78076 141.129 2.78076 141.106 2.78076C140.925 2.78076 140.72 2.84804 140.584 2.98258C140.425 3.11713 140.334 3.31895 140.334 3.52078C140.311 3.94685 140.652 4.30564 141.061 4.32807C141.515 4.32807 141.879 4.01412 141.901 3.58805Z" fill="#31CE93"/>
<path d="M141.901 10.0898C141.901 9.88794 141.833 9.68612 141.697 9.52914C141.56 9.37217 141.356 9.28247 141.151 9.28247C141.129 9.28247 141.129 9.28247 141.106 9.28247C140.924 9.28247 140.72 9.34975 140.583 9.48429C140.424 9.61884 140.334 9.82066 140.334 10.0225C140.311 10.4486 140.652 10.8074 141.061 10.8298C141.515 10.8298 141.878 10.5158 141.901 10.0898Z" fill="#31CE93"/>
<path d="M149.374 4.73089C149.533 4.48426 149.624 4.19279 149.624 3.8789C149.647 3.38564 149.488 2.89239 149.147 2.51123C148.806 2.13008 148.329 1.90587 147.83 1.88345C147.307 1.86103 146.83 2.01797 146.444 2.35429C146.058 2.6906 145.831 3.16144 145.808 3.65469C145.763 4.68605 146.558 5.58288 147.625 5.65015C147.671 5.65015 147.693 5.65015 147.739 5.65015C148.011 5.65015 148.307 5.58288 148.556 5.47078L154.144 11.3899L154.939 10.6051L149.374 4.73089ZM147.671 4.52911C147.239 4.50668 146.921 4.14795 146.944 3.72195C146.944 3.52017 147.035 3.31838 147.194 3.18386C147.33 3.04933 147.512 2.98207 147.716 2.98207C147.739 2.98207 147.739 2.98207 147.761 2.98207C147.966 2.98207 148.17 3.07175 148.307 3.2287C148.443 3.38564 148.511 3.58743 148.511 3.78922C148.466 4.23763 148.102 4.55153 147.671 4.52911Z" fill="#31CE93"/>
<path d="M142.764 11.0087C142.923 10.7397 143.014 10.4482 143.014 10.1567C143.037 9.66348 142.878 9.17022 142.537 8.78907C142.196 8.40791 141.719 8.1837 141.219 8.16128C140.72 8.13886 140.22 8.29581 139.834 8.63212C139.448 8.96843 139.221 9.43927 139.198 9.93253C139.152 10.9639 139.947 11.8607 141.015 11.928C141.06 11.928 141.083 11.928 141.129 11.928C141.401 11.928 141.697 11.8607 141.946 11.7486L147.648 17.7798L148.443 16.9951L142.764 11.0087ZM141.083 10.8069C140.652 10.7845 140.334 10.4258 140.356 9.99979C140.356 9.798 140.447 9.59622 140.606 9.46169C140.742 9.32717 140.924 9.2599 141.129 9.2599C141.151 9.2599 141.151 9.2599 141.174 9.2599C141.378 9.2599 141.583 9.34959 141.719 9.50653C141.856 9.66348 141.924 9.86526 141.924 10.0671C141.878 10.5155 141.515 10.8294 141.083 10.8069Z" fill="#31CE93"/>
<path d="M142.764 4.52919C142.923 4.26014 143.014 3.96867 143.037 3.65478C143.06 3.16152 142.901 2.66827 142.56 2.28711C142.219 1.90596 141.742 1.68175 141.242 1.65933C140.743 1.63691 140.243 1.79385 139.857 2.13017C139.471 2.46648 139.244 2.93731 139.221 3.43057C139.175 4.46193 139.97 5.35876 141.038 5.42602C141.083 5.42602 141.106 5.42602 141.152 5.42602C141.424 5.42602 141.697 5.35876 141.947 5.26908L150.828 14.6634L151.623 13.8787L142.764 4.52919ZM141.083 4.30498C140.652 4.28256 140.334 3.92383 140.357 3.49783C140.357 3.29605 140.447 3.09426 140.606 2.95974C140.743 2.82521 140.924 2.75795 141.129 2.75795C141.152 2.75795 141.152 2.75795 141.174 2.75795C141.379 2.75795 141.583 2.84763 141.719 3.00458C141.856 3.16152 141.924 3.36331 141.924 3.5651C141.878 4.01351 141.515 4.3274 141.083 4.30498Z" fill="#31CE93"/>
</svg>
