<svg version="1.1" id="Layer_1" xmlns:x="ns_extend;" xmlns:i="ns_ai;" xmlns:graph="ns_graphs;" xmlns="http://www.w3.org/2000/svg" xmlns:xlink="http://www.w3.org/1999/xlink" x="0px" y="0px" viewBox="0 0 635.5 93.7" style="enable-background:new 0 0 635.5 93.7;" xml:space="preserve">
 <style type="text/css">
  .st0{fill:#E44044;}
 </style>
 <metadata>
  <sfw xmlns="ns_sfw;">
   <slices>
   </slices>
   <sliceSourceBounds bottomLeftOrigin="true" height="93.7" width="635.5" x="194.7" y="-558.6">
   </sliceSourceBounds>
  </sfw>
 </metadata>
 <g>
  <g>
   <path class="st0" d="M265.3,60.7c-5.6,0-10.2-1-13.4-2.7v31.1h-6.3c-4.4,0-9.7-2.9-9.7-11.5V12.2c4.4-1.6,15.1-3.7,20.8-3.7h9
			c15.6,0,26.6,8.9,26.6,24.9C292.3,50.3,280.6,60.7,265.3,60.7z M263.6,22h-5.1c-2,0-4.8,0.7-6.7,1.1v22.7
			c2.8,0.8,7.2,1.4,11.3,1.4c8.2,0,12.6-4.7,12.6-12.4C275.8,25.6,272,22,263.6,22z">
   </path>
   <path class="st0" d="M328.7,24.6c18.9,0,29.8,15.2,29.8,31.9c0,18.9-10.9,34-31.2,34c-18.9,0-29.8-15.1-29.8-31.8
			C297.5,39.8,308.4,24.6,328.7,24.6z M327.3,38.6c-9,0-13.6,7.5-13.6,17.9c0,12.5,4.6,20,15,20c9.1,0,13.6-7.5,13.6-17.8
			C342.3,46.1,337.6,38.6,327.3,38.6z">
   </path>
   <path class="st0" d="M390.2,89.7c-13,0-20-6.9-20-19.6V5h4.4c7.8,0,11.2,4.5,11.2,10.5v53c0,6.3,3.3,8.3,10.6,8.3h4.2v3.4
			C400.7,87,397.1,89.7,390.2,89.7z">
   </path>
   <path class="st0" d="M427.1,89.7c-13,0-20-6.9-20-19.6V5h4.4c7.8,0,11.2,4.5,11.2,10.5v53c0,6.3,3.3,8.3,10.6,8.3h4.2v3.4
			C437.6,87,434,89.7,427.1,89.7z">
   </path>
   <path class="st0" d="M479.6,19c-2.5-0.8-5.3-1.4-9.1-1.4c-6.4,0-11.2,2.2-11.2,10.6v5.6h18v4.3c0,5.6-6,8.9-11.2,8.9h-6.8v42.1
			h-6.3c-5,0-9.5-3.9-9.5-9.4V26.9c0-8.9,6.2-23.2,24.5-23.2c6.8,0,12,3.8,12,9.9V19H479.6z">
   </path>
   <path class="st0" d="M495,21.5c-5,0-9.1-4.2-9.1-9.2c0-5,4.1-9.1,9.1-9.1c5,0,9.2,4.1,9.2,9.1C504.2,17.3,500,21.5,495,21.5z
			 M506.1,89.7c-12.1,0-18.8-6.9-18.8-19.6c0-3.6,0-42.7,0-42.7h4.4c7,0,11.2,3.7,11.2,11.7v29.5c0,6.3,2.7,8.3,9.6,8.3h2.9v3.4
			C515.5,87,512.8,89.7,506.1,89.7z">
   </path>
   <path class="st0" d="M542.1,90.5c-11.6,0-20.2-6-20.2-12.4V71h0.6c3.4,3.2,11.5,6,18.9,6c7.7,0,11.5-2.2,11.5-6.9
			c0-3.6-2.2-5.4-13.1-6.9C526.4,61.3,520,56,520,46.4c0-11.8,10.6-21.9,26.8-21.9c14.3,0,20.1,7.3,20.1,13.4v6h-0.6
			c-3.3-3.3-10.5-5.9-18-5.9c-9.6,0-12.6,2.9-12.6,7c0,3.2,1.9,4.4,12.6,6.2c13.1,2.1,20.1,7.8,20.1,17.9
			C568.4,82.5,559,90.5,542.1,90.5z">
   </path>
   <path class="st0" d="M630.3,89.1c-6.5,0-10.6-3.7-10.6-10.5V52.9c0-10.3-5.6-14.4-12.5-14.4c-4.9,0-11.3,3.7-11.3,14.9v35.7h-5.1
			c-7.4,0-10.8-4.1-10.8-10.5V5h4.9c7.5,0,11.1,4.2,11.1,10c0,0,0,12.4,0,18c2.3-3.7,7.7-8.4,13.7-8.4c16.2,0,25.8,9.7,25.8,27.6
			v36.9H630.3z">
   </path>
  </g>
  <g>
   <path class="st0" d="M22.4,71.6c0.4-0.3,0.7-0.5,1.1-0.8c6.5-4.9,10.9-12.3,13-16.2V39.8h-14V71.6z">
   </path>
   <path class="st0" d="M44.9,59.2c3.5,3.3,8.2,7.5,14,11.7V33.5h-14v0.4V59.2z">
   </path>
   <path class="st0" d="M67.3,76.6c4.3,2.7,9,5.3,14,7.6V19.1h-14V76.6z">
   </path>
   <path class="st0" d="M0,16.6v66.7c1.9-0.8,7.9-3.3,14-6.6V16.3v-0.6H0L0,16.6z">
   </path>
   <path class="st0" d="M89.7,87.7c4.5,1.6,9.2,3,14,4V56.9h-14V87.7z">
   </path>
   <path class="st0" d="M134.6,92.4c5-1,9.7-2.5,14-4.4V26.8h-14V92.4z">
   </path>
   <path class="st0" d="M171.1,73.1V20v-0.4h-14v64.1C162.3,80.5,167,76.9,171.1,73.1z">
   </path>
   <path class="st0" d="M179.5,64.3c8.1-9.5,12.1-17.7,12.1-17.7s0.4-0.8,0.5-1.3h-12.5V64.3z">
   </path>
   <path class="st0" d="M112.2,0C112.2,0,112.2,0,112.2,0l0,93.1c2.5,0.3,5.1,0.5,7.7,0.6c2.2,0.1,4.3,0,6.4-0.2V0H112.2z">
   </path>
  </g>
 </g>
</svg>