<?xml version="1.0" encoding="utf-8" ?><svg xmlns="http://www.w3.org/2000/svg" xmlns:xlink="http://www.w3.org/1999/xlink" width="2120" height="1080" viewBox="0 0 2120 1080"><path fill="#FEFFFF" d="M169.632 341.54C248.164 268.619 360.155 244.209 461.91 277.837C563.664 311.465 639.057 397.801 658.671 503.157C687.248 656.658 590.839 805.718 439.122 842.609C287.405 879.5 133.318 791.349 88.2219 641.866C77.0039 604.68 73.2661 565.64 77.2246 527.001C84.497 456.014 117.341 390.096 169.632 341.54Z"/><defs><linearGradient id="gradient_0" gradientUnits="userSpaceOnUse" x1="380.30084" y1="490.48236" x2="367.40912" y2="848.73444"><stop offset="0" stop-color="#033B52"/><stop offset="1" stop-color="#0083B1"/></linearGradient></defs><path fill="url(#gradient_0)" d="M583.388 497.269C591.59 505.4 602.753 499.588 612.977 500.847L614.561 502.843C619.269 501.111 615.519 498.182 620.507 500.741C628.262 504.721 629.047 502.937 637.028 500.546L638.647 503.465C642.416 502.922 655.715 502.255 658.671 503.157C687.248 656.658 590.839 805.718 439.122 842.609C287.405 879.5 133.318 791.349 88.2219 641.866C123.32 655.945 158.997 671.381 193.949 686.018C198.125 700.188 204.662 712.373 214.89 723.119C230.642 739.64 252.316 749.221 275.137 749.751C298.168 750.272 320.45 741.554 337.013 725.543C356.315 706.927 362.763 685.989 363.319 659.956L457.661 595.562C519.598 600.055 570.713 556.868 583.388 497.269Z"/><defs><linearGradient id="gradient_1" gradientUnits="userSpaceOnUse" x1="263.78253" y1="343.17365" x2="255.23087" y2="588.91284"><stop offset="0" stop-color="#041D2B"/><stop offset="1" stop-color="#024F6D"/></linearGradient></defs><path fill="url(#gradient_1)" d="M169.632 341.54C248.164 268.619 360.155 244.209 461.91 277.837C563.664 311.465 639.057 397.801 658.671 503.157C655.715 502.255 642.416 502.922 638.647 503.465L637.028 500.546C629.047 502.937 628.262 504.721 620.507 500.741C615.519 498.182 619.269 501.111 614.561 502.843L612.977 500.847C602.753 499.588 591.59 505.4 583.388 497.269C585.688 484.177 585.879 470.802 583.952 457.651C579.142 425.935 561.85 397.461 535.926 378.568C510.38 359.906 478.475 352.138 447.209 356.968C380.853 367.576 339.827 424.613 345.956 490.691L284.878 577.928C264.155 577.206 249.02 579.793 231.036 591.037C179.653 569.963 128.381 548.618 77.2246 527.001C84.497 456.014 117.341 390.096 169.632 341.54Z"/><defs><linearGradient id="gradient_2" gradientUnits="userSpaceOnUse" x1="419.38733" y1="265.63794" x2="411.43924" y2="495.58612"><stop offset="0" stop-color="#050C15"/><stop offset="1" stop-color="#033B52"/></linearGradient></defs><path fill="url(#gradient_2)" d="M169.632 341.54C248.164 268.619 360.155 244.209 461.91 277.837C563.664 311.465 639.057 397.801 658.671 503.157C655.715 502.255 642.416 502.922 638.647 503.465L637.028 500.546C629.047 502.937 628.262 504.721 620.507 500.741C615.519 498.182 619.269 501.111 614.561 502.843L612.977 500.847C602.753 499.588 591.59 505.4 583.388 497.269C585.688 484.177 585.879 470.802 583.952 457.651C579.142 425.935 561.85 397.461 535.926 378.568C510.38 359.906 478.475 352.138 447.209 356.968C445.5 356.78 440.306 354.643 434.24 353.862C433.914 352.365 434.012 352.264 433.136 351.037L422.983 354.799C421.125 353.578 420.683 353.158 419.074 351.608C409.956 351.904 400.835 352.26 391.722 352.574C387.694 352.713 388.519 352.874 386.092 350.538C379.369 350.66 368.279 348.916 362.983 352.605L349.089 348.292L345.541 350.355L344.121 349.526L345.335 346.648L344.416 346.288L340.758 349.539C335.315 349.108 331.784 347.736 326.659 346.056C325.294 347.179 323.954 348.331 322.64 349.513C311.486 348.915 284.019 348.138 274.79 345.881L274.307 345.759L271.242 348.687L269.948 348.536L268.173 345.156C268.143 345.169 264.088 347.433 264.608 347.445C257.738 347.275 248.152 343.585 241.953 347.062C240.439 347.911 241.295 347.569 239.493 347.24L239.537 344.756C236.998 343.956 220.498 346.101 216.057 346.105C205.53 346.576 194.385 343.397 184.164 342.82C175.72 342.343 179.692 346.15 169.632 341.54Z"/><defs><linearGradient id="gradient_3" gradientUnits="userSpaceOnUse" x1="470.12561" y1="400.8609" x2="464.90897" y2="546.17621"><stop offset="0" stop-color="#042739"/><stop offset="1" stop-color="#034560"/></linearGradient></defs><path fill="url(#gradient_3)" d="M457.146 400.97C497.448 394.918 535.043 422.632 541.185 462.92C547.326 503.209 519.695 540.865 479.42 547.096C439.019 553.345 401.219 525.609 395.059 485.195C388.898 444.78 416.718 407.041 457.146 400.97Z"/><path fill="#FEFFFF" d="M462.543 417.049C493.887 413.977 521.832 436.786 525.103 468.11C528.374 499.434 505.744 527.523 474.441 530.993C442.855 534.495 414.457 511.615 411.156 480.008C407.856 448.401 430.915 420.148 462.543 417.049Z"/><defs><linearGradient id="gradient_4" gradientUnits="userSpaceOnUse" x1="288.92731" y1="604.03784" x2="283.9664" y2="725.57013"><stop offset="0" stop-color="#025271"/><stop offset="1" stop-color="#016B91"/></linearGradient></defs><path fill="url(#gradient_4)" d="M274.709 602.38C290.59 600.662 308.491 606.854 320.485 617.13C333.285 628.128 341.152 643.79 342.333 660.624C343.535 677.57 337.849 694.284 326.561 706.98C315.219 719.517 299.345 727.013 282.457 727.805C264.042 728.72 249.233 721.815 235.732 709.771C233.442 707.474 229.681 702.83 227.419 700.222C244.135 707.443 264.364 718.441 282.445 716.6C295.972 715.296 308.417 708.638 317.008 698.107C325.57 687.566 329.514 674.014 327.947 660.525C324.676 631.205 303.366 620.298 279.046 611.395C275.518 610.104 267.132 606.813 264.358 604.573C267.435 603.162 271.275 602.864 274.709 602.38Z"/><path d="M1875.12 428.22L1920.38 428.22L1920.38 655.825L1875.08 655.825L1875.08 517.515L1813.81 648.417L1785.71 648.417C1779.23 635.353 1772.15 618.08 1766.13 604.53L1727.27 517.302L1727.27 550.5L1727.27 655.141L1681.01 655.141L1682.04 428.896L1726.31 428.896L1802.28 591.208L1875.12 428.22Z"/><path d="M1498.8 428L1549.17 428C1557.19 452.105 1569.04 481.275 1578.07 505.43L1633.75 654.033L1581.65 654.033L1567.9 611.859L1548.5 611.859L1479.13 611.859L1464.48 654.028L1414.15 654.937C1423.34 627.63 1435.96 596.241 1446.13 568.944L1498.8 428ZM1491.14 574.014L1523.5 574.014L1553.58 574.014C1549.78 563.47 1524.24 488.992 1521.53 485.762L1491.14 574.014Z"/><path d="M1221.15 427.52L1371.71 428.596L1371.71 470.116L1268.04 470.116L1268.04 521.796L1358.7 521.796L1358.7 563.923C1334.92 563.961 1291.52 562.401 1269.06 564.251L1269.06 616.373L1372.09 616.373L1372.09 656.512L1221.15 656.512L1221.15 427.52Z"/><path d="M855.483 424.339C885.905 421.157 918.022 432.432 944.14 447.219L923.411 481.482C904.588 472.268 884.231 463.594 862.676 465.244C849.9 466.222 831.377 480.121 835.015 492.979C841.123 514.57 885.797 521.593 903.793 530.673C912.608 535.12 920.818 537.654 928.616 544.029C955.779 561.905 955.899 605.811 937.157 629.877C922.783 648.335 900.146 656.374 876.761 659.187C845.046 663.127 810.522 654.19 782.84 638.734L796.437 601.709C820.658 612.247 847.255 617.337 873.584 614.588C885.874 613.305 903.578 603.777 899.204 589.665C889.318 557.766 835.791 560.454 812.667 540.947C800.303 531.758 788.234 517.772 786.915 501.323C783.368 457.097 815.763 429.41 855.483 424.339Z"/><path d="M984.807 427.964L1168.4 428.987L1168.4 468.556L1099.83 468.556L1099.83 586.5L1099.83 655.287L1053.36 655.287L1053.36 469.027L984.807 469.027L984.807 427.964Z"/><path d="M2015.18 410.598C2040.89 405.516 2065.85 422.257 2070.9 447.975C2075.95 473.693 2059.19 498.633 2033.46 503.659C2007.78 508.677 1982.89 491.941 1977.84 466.263C1972.79 440.585 1989.5 415.673 2015.18 410.598ZM2027.5 496.847C2049.53 495.112 2065.94 475.783 2064.08 453.764C2062.22 431.744 2042.79 415.446 2020.78 417.436C1998.95 419.409 1982.82 438.641 1984.66 460.48C1986.51 482.319 2005.65 498.567 2027.5 496.847Z"/><path d="M2006.59 432.534C2013.04 432.598 2021.19 431.737 2027.19 432.112C2043.26 433.117 2052.46 450.784 2031.54 457.206C2034.93 461.146 2046.82 472.775 2044.13 478.05L2039.24 478.329C2030.83 464.496 2029.94 457.686 2012.69 457.986C2012.7 462.971 2013.3 473.549 2011.81 477.819C2009.98 478.607 2009.25 478.232 2007.3 477.799C2005.85 472.563 2006.54 439.569 2006.59 432.534ZM2012.69 452.822C2019.61 452.892 2028.97 453.621 2035.13 450.607C2036.59 447.03 2037.21 446.131 2036.3 442.36C2031 435.592 2020.78 437.469 2012.69 437.644L2012.69 452.822Z"/></svg>