<svg width="725" height="347" viewBox="0 0 725 347" fill="none" xmlns="http://www.w3.org/2000/svg">
<path d="M553.648 128.5C558.248 103.9 552.348 97.1996 542.048 97.1996C531.048 97.1996 524.048 107.1 519.948 128.5C515.348 153.1 521.248 159.8 531.548 159.8C542.548 159.8 549.548 150 553.648 128.5ZM591.248 128.5C583.748 168.9 560.448 189.4 528.448 189.4C487.348 189.4 476.648 158.6 482.248 128.5C489.748 88.0996 513.048 67.5996 545.048 67.5996C586.148 67.5996 596.848 98.3996 591.248 128.5ZM245.648 68.3996C207.448 68.3996 178.748 93.3996 171.448 133.7C167.848 153.4 171.048 166.8 178.748 176.2C183.748 182.2 189.748 186.8 199.348 187.4C217.148 188.6 229.948 176.9 235.048 168.8H235.448C235.148 181.2 243.648 187.4 251.948 187.4C262.448 187.4 270.548 182 274.748 172.9C273.548 172.3 272.448 171.4 271.548 170.4C268.648 166.8 268.748 161.4 270.548 151.8L284.848 74.8996C275.648 71.2996 262.448 68.3996 245.648 68.3996ZM222.048 158C215.848 158 212.048 155.8 209.248 151.8C205.748 146.8 204.648 139.2 206.748 128.6C211.248 106.9 220.748 97.8996 234.848 97.7996C238.648 97.6996 242.548 98.1996 246.148 99.1996L236.348 151.7C232.848 155.4 226.548 158 222.048 158ZM356.648 97.7996C362.848 97.6996 366.348 99.9996 369.248 104C372.848 109.1 373.448 118 371.348 128.6C366.948 150.3 358.148 158 343.848 158C340.048 158.1 336.148 157.6 332.448 156.6L342.248 104.1C346.048 100.3 351.248 98.0996 356.648 97.7996ZM327.548 182.7C343.248 187.2 357.348 185.8 369.148 180.2C388.748 170.8 402.148 151.1 406.748 125.9C410.348 106.2 406.748 91.0996 400.248 81.9996C394.548 73.8996 385.348 68.8996 375.448 68.4996C359.948 67.4996 349.148 73.5996 342.048 82.1996H341.648C341.848 73.4996 336.048 68.4996 324.548 68.4996C314.048 68.4996 305.948 73.8996 301.848 82.9996C303.048 83.5996 304.148 84.4996 305.148 85.4996C308.048 89.0996 307.948 94.4996 306.148 104.1L284.248 222H320.248L327.548 182.7Z" fill="#E73224"/>
<path d="M398.548 276.4C393.948 300.8 378.048 313.1 359.948 312.3C345.748 311.7 335.948 300.5 338.948 284.1C342.848 263.1 362.048 255.3 381.748 255.3H402.448L398.548 276.4ZM686.348 70.2L649.748 153.8H647.948L643.648 70.2H607.248L621.748 194.3C609.048 218.3 585.548 222 564.648 222H444.648L472.848 70.2H436.848L408.548 222H385.748C348.648 222 310.048 238 301.948 280.7C293.748 324.8 327.148 346.3 358.248 346.3C403.748 346.3 427.548 313.3 433.748 279.7L438.448 255.1H564.548C624.848 255.1 644.848 228.8 666.748 185.1C686.548 145.6 724.348 70.1 724.348 70.1H686.348V70.2ZM141.748 185.4L170.148 32.7H479.848L485.948 0H82.2478C33.5478 0 6.44778 16.1 0.947784 50C-2.15222 69 2.44779 84.5 13.3478 96.2C24.7478 108.6 43.4478 114.2 62.2478 114.3L68.2478 82.3C57.2478 82 47.8478 79.8 42.5478 74.4C37.8478 69.6 36.0478 62.7 37.7478 54.3C41.1478 37.5 57.7478 32.7 86.1478 32.7H131.248L102.748 185.3L141.748 185.4Z" fill="#E73224"/>
</svg>
