<svg width="77" height="50" viewBox="0 0 77 50" fill="none" xmlns="http://www.w3.org/2000/svg">
<rect width="76.9857" height="50" fill="white"/>
<mask id="mask0_1775_113" style="mask-type:alpha" maskUnits="userSpaceOnUse" x="28" y="12" width="21" height="26">
<path d="M47.8833 21.118C47.7404 21.2291 45.217 22.6546 45.217 25.8242C45.217 29.4903 48.4279 30.7873 48.524 30.8194C48.5092 30.8985 48.0139 32.5957 46.8311 34.325C45.7764 35.8468 44.6749 37.3662 42.9992 37.3662C41.3236 37.3662 40.8923 36.3903 38.9579 36.3903C37.0728 36.3903 36.4026 37.3983 34.8698 37.3983C33.3371 37.3983 32.2676 35.9901 31.038 34.2608C29.6137 32.2301 28.4629 29.0753 28.4629 26.0811C28.4629 21.2785 31.5776 18.7315 34.6431 18.7315C36.272 18.7315 37.6297 19.8037 38.6524 19.8037C39.6257 19.8037 41.1437 18.6673 42.9968 18.6673C43.6991 18.6673 46.2224 18.7315 47.8833 21.118ZM42.1171 16.6341C42.8834 15.7225 43.4256 14.4576 43.4256 13.1927C43.4256 13.0173 43.4108 12.8395 43.3787 12.6962C42.1318 12.7431 40.6484 13.5287 39.7539 14.5688C39.0516 15.3692 38.3961 16.6341 38.3961 17.9162C38.3961 18.1089 38.4281 18.3016 38.4429 18.3634C38.5218 18.3782 38.6499 18.3955 38.7781 18.3955C39.8968 18.3955 41.3039 17.6445 42.1171 16.6341Z" fill="#D9D9D9"/>
</mask>
<g mask="url(#mask0_1775_113)">
<mask id="mask1_1775_113" style="mask-type:luminance" maskUnits="userSpaceOnUse" x="25" y="12" width="27" height="26">
<path d="M51.2219 12.2709H25.7637V37.7291H51.2219V12.2709Z" fill="white"/>
</mask>
<g mask="url(#mask1_1775_113)">
<path d="M33.4023 32.5222L35.3333 30.914L35.6677 34.6722L33.4023 32.5222Z" fill="#1E0B85"/>
<path d="M31.6553 33.4618L35.6671 34.6722L33.6785 38.7475L31.6553 33.4618Z" fill="#330F89"/>
<path d="M33.6784 38.7475L30.4102 38.5054L31.6552 33.4618L33.6784 38.7475Z" fill="#351590"/>
<path d="M33.4018 32.5222L31.6553 33.4618L35.6671 34.6722L33.4018 32.5222Z" fill="#281191"/>
<path d="M30.3301 26.5448L32.7453 27.7149L32.2784 24.7579L30.3301 26.5448Z" fill="#4451D1"/>
<path d="M45.1664 33.4618L41.8232 31.6288L44.4978 29.7382L45.1664 33.4618Z" fill="#FD6C55"/>
<path d="M41.8232 35.1218V31.6288L45.1664 33.4618L41.8232 35.1218Z" fill="#9C2D6C"/>
<path d="M44.7514 38.1538L45.1664 33.4618L41.8232 35.1219L44.7514 38.1538Z" fill="#831C6F"/>
<path d="M48.026 35.3063L45.167 33.4618L44.752 38.1538L48.026 35.3063Z" fill="#6F1163"/>
<path d="M48.026 32.8047L45.167 33.4618L48.026 35.3063V32.8047Z" fill="#B20454"/>
<path d="M46.0662 28.274L48.026 32.8046L45.167 33.4618L46.0662 28.274Z" fill="#D60257"/>
<path d="M44.498 29.7381L46.0659 28.274L45.1667 33.4618L44.498 29.7381Z" fill="#E60F49"/>
<path d="M43.8867 26.4526L44.4977 29.7381L46.0656 28.274L43.8867 26.4526Z" fill="#F84E48"/>
<path d="M41.7656 29.0119L43.8868 26.4526L44.4978 29.7381L41.7656 29.0119Z" fill="#FD915E"/>
<path d="M41.1895 25.6917L43.8871 26.4526L41.7659 29.0119L41.1895 25.6917Z" fill="#F77A5D"/>
<path d="M44.1288 24.8156L46.0656 28.274L43.8867 26.4526L44.1288 24.8156Z" fill="#F32C33"/>
<path d="M41.1895 25.6917L44.1292 24.8156L43.8871 26.4526L41.1895 25.6917Z" fill="#F34531"/>
<path d="M41.7659 22.2448L44.1292 24.8155L41.1895 25.6917L41.7659 22.2448Z" fill="#FC8448"/>
<path d="M40.0596 20.4464L42.6592 20.9306L41.7658 22.2448L40.0596 20.4464Z" fill="#FCA158"/>
<path d="M39.0449 23.9682L41.7656 22.2448L41.1892 25.6917L39.0449 23.9682Z" fill="#FEAF5C"/>
<path d="M36.7051 26.8446L39.0453 23.9683L41.1896 25.6917L36.7051 26.8446Z" fill="#FCD783"/>
<path d="M38.1692 28.4239L41.1896 25.6917L36.7051 26.8445L38.1692 28.4239Z" fill="#FE93B6"/>
<path d="M39.7829 30.3491L41.1893 25.6917L38.1689 28.4239L39.7829 30.3491Z" fill="#FD7198"/>
<path d="M41.8233 31.6288L41.7656 29.0118L44.4978 29.7381L41.8233 31.6288Z" fill="#FE9067"/>
<path d="M39.7832 30.3491L41.8237 31.6288L41.7661 29.0118L39.7832 30.3491Z" fill="#C965AA"/>
<path d="M41.1896 25.6917L41.7661 29.0119L39.7832 30.3491L41.1896 25.6917Z" fill="#DA6EA9"/>
<path d="M38.5439 33.4618L39.7828 30.3491L41.8233 31.6288L38.5439 33.4618Z" fill="#603496"/>
<path d="M41.8233 35.1218L38.5439 33.4618L41.8233 31.6288V35.1218Z" fill="#3B0D6E"/>
<path d="M39.4753 35.8827L41.8233 35.1219L38.5439 33.4618L39.4753 35.8827Z" fill="#5B3594"/>
<path d="M42.757 38.6725L41.8232 35.1218L44.7514 38.1538L42.757 38.6725Z" fill="#691D6F"/>
<path d="M38.6191 38.4304L41.824 35.1218L42.7578 38.6725L38.6191 38.4304Z" fill="#3B0D6E"/>
<path d="M39.4761 35.8827L38.6191 38.4304L41.824 35.1218L39.4761 35.8827Z" fill="#310C66"/>
<path d="M36.832 35.5253L38.5445 33.4618L39.4758 35.8827L36.832 35.5253Z" fill="#563F9F"/>
<path d="M38.6189 38.4305L36.832 35.5253L39.4758 35.8827L38.6189 38.4305Z" fill="#5F238D"/>
<path d="M51.5306 38.1537L48.026 35.3063L44.752 38.1537H51.5306Z" fill="#39094D"/>
<path d="M52.0257 34.3149L48.0254 35.3063L51.53 38.1538L52.0257 34.3149Z" fill="#43054E"/>
<path d="M51.8528 32.4703L48.0254 35.3063L52.0257 34.3149L51.8528 32.4703Z" fill="#78015B"/>
<path d="M48.0254 32.8047L51.8528 32.4703L48.0254 35.3063V32.8047Z" fill="#4F0459"/>
<path d="M49.6739 29.5883L51.8528 32.4703L48.0254 32.8046L49.6739 29.5883Z" fill="#69025B"/>
<path d="M46.0654 28.274L49.6738 29.5883L48.0252 32.8046L46.0654 28.274Z" fill="#78015B"/>
<path d="M48.2793 26.0376L49.6742 29.5883L52.6716 26.9253L48.2793 26.0376Z" fill="#8F0059"/>
<path d="M46.0654 28.2741L48.2789 26.0376L49.6738 29.5883L46.0654 28.2741Z" fill="#C20255"/>
<path d="M44.1289 24.8156L48.2791 26.0375L46.0656 28.274L44.1289 24.8156Z" fill="#E50036"/>
<path d="M48.3715 22.6713L52.6716 26.9252L48.2793 26.0376L48.3715 22.6713Z" fill="#F1005D"/>
<path d="M44.1289 24.8156L48.3713 22.6713L48.2791 26.0376L44.1289 24.8156Z" fill="#FA0047"/>
<path d="M44.4978 22.4868L44.1289 24.8155L41.7656 22.2448L44.4978 22.4868Z" fill="#FB9770"/>
<path d="M46.0659 19.9276L48.3715 22.6713L44.498 22.4869L46.0659 19.9276Z" fill="#EF3A59"/>
<path d="M44.1289 24.8156L48.3713 22.6713L44.4978 22.4869L44.1289 24.8156Z" fill="#F9485F"/>
<path d="M42.6591 20.9305L44.4978 22.4869L41.7656 22.2448L42.6591 20.9305Z" fill="#FDBC6A"/>
<path d="M46.0658 19.9276L42.6592 20.9306L44.4979 22.4869L46.0658 19.9276Z" fill="#FE8D77"/>
<path d="M48.6247 18.3713L48.3711 22.6713L46.0654 19.9276L48.6247 18.3713Z" fill="#FD2F89"/>
<path d="M47.4951 11.4946L48.8958 15.8696L51.7836 11.4946H47.4951Z" fill="#FE61B0"/>
<path d="M48.3721 22.6713L53.116 19.8123L48.6257 18.3713L48.3721 22.6713Z" fill="#F1005D"/>
<path d="M52.6721 26.9252L53.116 19.8123L48.3721 22.6713L52.6721 26.9252Z" fill="#FD1573"/>
<path d="M48.8956 15.8696L46.0654 19.9276L48.6247 18.3713L48.8956 15.8696Z" fill="#FB6DA0"/>
<path d="M41.4257 18.0139L42.6592 20.9306L40.0596 20.4464L41.4257 18.0139Z" fill="#FCDD9A"/>
<path d="M46.0654 17.7026L48.8956 15.8696L46.0654 19.9276V17.7026Z" fill="#F092AB"/>
<path d="M41.4258 18.0139L46.0659 19.9276L42.6593 20.9306L41.4258 18.0139Z" fill="#FCC79F"/>
<path d="M46.0659 17.7026L41.4258 18.0139L46.0659 19.9276V17.7026Z" fill="#FCCFBE"/>
<path d="M47.4949 11.4946L46.0654 17.7026L48.8956 15.8696L47.4949 11.4946Z" fill="#FCACC5"/>
<path d="M42.3652 13.6821L47.4953 11.4946L46.0658 17.7026L42.3652 13.6821Z" fill="#FFA3D2"/>
<path d="M42.6592 10.1747L42.3652 13.6822L47.4953 11.4947L42.6592 10.1747Z" fill="#EA8CC4"/>
<path d="M41.4258 18.0139L42.3653 13.6821L46.0659 17.7026L41.4258 18.0139Z" fill="#FCACC5"/>
<path d="M37.8232 10.8664L41.4258 18.0139L42.3654 13.6822L37.8232 10.8664Z" fill="#FFBCDD"/>
<path d="M42.6593 10.1747L37.8232 10.8664L42.3654 13.6822L42.6593 10.1747Z" fill="#FCACC5"/>
<path d="M37.1433 38.5803L36.832 35.5253L38.6189 38.4305L37.1433 38.5803Z" fill="#562791"/>
<path d="M35.333 30.914L39.7829 30.3491L38.5441 33.4618L35.333 30.914Z" fill="#5538B0"/>
<path d="M38.169 28.424L35.333 30.9141L39.7829 30.3492L38.169 28.424Z" fill="#6B44B8"/>
<path d="M36.7049 26.8445L35.333 30.914L38.169 28.4239L36.7049 26.8445Z" fill="#6E85DE"/>
<path d="M39.0449 23.9683L40.0594 20.4464L41.7656 22.2448L39.0449 23.9683Z" fill="#FDBC6A"/>
<path d="M38.2266 20.0314L39.0451 23.9683L40.0596 20.4464L38.2266 20.0314Z" fill="#FDAF88"/>
<path d="M36.4746 21.4839L38.2269 20.0314L39.0454 23.9683L36.4746 21.4839Z" fill="#DB9DBA"/>
<path d="M35.5293 26.1068L39.0454 23.9683L36.7052 26.8446L35.5293 26.1068Z" fill="#FECCC0"/>
<path d="M36.29 23.4091L36.4745 21.4839L39.0453 23.9682L36.29 23.4091Z" fill="#A59DCF"/>
<path d="M34.2266 23.0402L36.2901 23.4091L35.5293 26.1067L34.2266 23.0402Z" fill="#85C5ED"/>
<path d="M36.4746 21.4839L34.2266 23.0402L36.2901 23.4091L36.4746 21.4839Z" fill="#AAC2E0"/>
<path d="M35.5293 26.1067L39.0454 23.9682L36.2902 23.4091L35.5293 26.1067Z" fill="#AAC2E0"/>
<path d="M38.2266 20.0314L41.4257 18.0139L40.0596 20.4464L38.2266 20.0314Z" fill="#FBA38F"/>
<path d="M38.2266 16.4345L41.4257 18.0139L38.2266 20.0313V16.4345Z" fill="#FE95A3"/>
<path d="M37.8232 10.8664L38.2267 16.4345L41.4258 18.0139L37.8232 10.8664Z" fill="#F780AE"/>
<path d="M36.0996 16.5267L38.2266 16.4345V20.0313L36.0996 16.5267Z" fill="#EF96C2"/>
<path d="M37.8231 10.8664L36.0996 16.5268L38.2266 16.4345L37.8231 10.8664Z" fill="#DF89C4"/>
<path d="M35.0967 18.4462L36.0996 16.5267L38.2266 20.0313L35.0967 18.4462Z" fill="#BA8CC5"/>
<path d="M34.9238 10.8664L36.0997 16.5268L37.8232 10.8664H34.9238Z" fill="#D893D0"/>
<path d="M36.4743 21.4839L35.0967 18.4462L38.2266 20.0313L36.4743 21.4839Z" fill="#C7B5D4"/>
<path d="M34.2266 19.965L35.0969 18.4462L36.4746 21.4839L34.2266 19.965Z" fill="#A8C4E7"/>
<path d="M33.2578 21.115L36.4742 21.4839L34.2262 23.0402L33.2578 21.115Z" fill="#54AEF0"/>
<path d="M34.2262 19.9651L33.2578 21.115L36.4742 21.4839L34.2262 19.9651Z" fill="#85C5ED"/>
<path d="M32.1631 22.8788L33.2583 21.115L34.2266 23.0402L32.1631 22.8788Z" fill="#4CA7F9"/>
<path d="M30.3299 26.5448L32.1629 22.8788L28.9004 22.6713L30.3299 26.5448Z" fill="#239EFC"/>
<path d="M27.4482 23.5302L28.9008 22.6713L30.3303 26.5448L27.4482 23.5302Z" fill="#2961C8"/>
<path d="M32.2784 24.7579L34.2266 23.0402L32.1631 22.8788L32.2784 24.7579Z" fill="#4783E0"/>
<path d="M36.7051 26.8445L34.2266 28.274L35.3333 30.914L36.7051 26.8445Z" fill="#5EABF9"/>
<path d="M35.667 34.6722L38.5438 33.4618L36.8314 35.5253L35.667 34.6722Z" fill="#211C8A"/>
<path d="M35.333 30.914L35.6673 34.6722L38.5441 33.4618L35.333 30.914Z" fill="#262699"/>
<path d="M36.8317 35.5253L33.6787 38.7475L35.6673 34.6722L36.8317 35.5253Z" fill="#2E1E8B"/>
<path d="M37.143 38.5803L33.6787 38.7475L36.8317 35.5253L37.143 38.5803Z" fill="#2D1B87"/>
<path d="M30.411 38.5054L31.6561 33.4618L27.9209 33.9402L30.411 38.5054Z" fill="#21138D"/>
<path d="M29.4766 30.7238L27.9203 33.9402L24.6348 28.8793L29.4766 30.7238Z" fill="#593FC8"/>
<path d="M30.3297 26.5448L29.4766 30.7238L24.6348 28.8793L30.3297 26.5448Z" fill="#3431BE"/>
<path d="M31.6561 33.4618L29.4772 30.7238L27.9209 33.9402L31.6561 33.4618Z" fill="#3427AF"/>
<path d="M31.4307 30.1359L33.402 32.5222L31.6555 33.4618L31.4307 30.1359Z" fill="#2029AA"/>
<path d="M29.4766 30.7238L31.4306 30.1359L31.6554 33.4618L29.4766 30.7238Z" fill="#2A21A8"/>
<path d="M27.9209 33.9402L25.1426 38.9492L30.411 38.5054L27.9209 33.9402Z" fill="#220F84"/>
<path d="M30.3297 26.5448L24.7731 25.8531L24.6348 28.8793L30.3297 26.5448Z" fill="#718FF1"/>
<path d="M27.448 23.5302L24.7734 25.8531L30.3301 26.5448L27.448 23.5302Z" fill="#4195ED"/>
<path d="M32.4277 19.2301L35.0965 18.4462L34.2261 19.965L32.4277 19.2301Z" fill="#5386D0"/>
<path d="M32.7044 14.5986L35.0965 18.4462L32.4277 19.2301L32.7044 14.5986Z" fill="#5C77C8"/>
<path d="M29.3389 15.3854L32.7051 14.5986L32.4284 19.2301L29.3389 15.3854Z" fill="#579DE0"/>
<path d="M27.5518 20.0314L29.3386 15.3855L29.6614 20.0314H27.5518Z" fill="#53B1F3"/>
<path d="M32.4277 19.2301L33.2578 21.115L34.2261 19.965L32.4277 19.2301Z" fill="#4993D8"/>
<path d="M29.6613 21.3456L32.1629 22.8788L28.9004 22.6713L29.6613 21.3456Z" fill="#3286E4"/>
<path d="M33.258 21.115L29.6611 21.3456L32.1628 22.8788L33.258 21.115Z" fill="#4783E0"/>
<path d="M32.4279 19.2301L29.6611 21.3455L33.258 21.115L32.4279 19.2301Z" fill="#53B1F3"/>
<path d="M28.9008 22.6713L27.552 20.0314L27.4482 23.5302L28.9008 22.6713Z" fill="#1DA8EB"/>
<path d="M29.6614 21.3456L27.5518 20.0314L28.9006 22.6713L29.6614 21.3456Z" fill="#4CA7F9"/>
<path d="M29.6611 20.0313V21.3455L32.4279 19.2301L29.6611 20.0313Z" fill="#4CA7F9"/>
<path d="M27.5518 20.0314L29.6614 21.3456V20.0314H27.5518Z" fill="#43C4F7"/>
<path d="M29.3385 15.3855L24.9463 17.547L27.5517 20.0314L29.3385 15.3855Z" fill="#34C7FA"/>
<path d="M36.1002 16.5267L32.7051 14.5986L35.0972 18.4462L36.1002 16.5267Z" fill="#9A7ECA"/>
<path d="M34.9243 10.8664L32.7051 14.5987L36.1002 16.5268L34.9243 10.8664Z" fill="#937FCC"/>
<path d="M30.5488 10.6647L32.7046 14.5987L34.9238 10.8664L30.5488 10.6647Z" fill="#838CD7"/>
<path d="M29.3389 15.3855L30.5493 10.6647L32.7051 14.5987L29.3389 15.3855Z" fill="#6E8ED6"/>
<path d="M24.5654 11.8117L29.3381 15.3855L30.5486 10.6647L24.5654 11.8117Z" fill="#45A9E5"/>
<path d="M24.9459 17.547L24.5654 11.8117L29.3381 15.3855L24.9459 17.547Z" fill="#32B2ED"/>
<path d="M32.2784 24.7579L30.3301 26.5448L32.1631 22.8788L32.2784 24.7579Z" fill="#3B4ED0"/>
<path d="M31.4306 30.1359L30.3297 26.5448L29.4766 30.7238L31.4306 30.1359Z" fill="#262CC0"/>
<path d="M32.7453 27.7149L31.431 30.1359L30.3301 26.5448L32.7453 27.7149Z" fill="#2A21A8"/>
<path d="M31.4307 30.1359L33.4856 29.8189L32.7449 27.715L31.4307 30.1359Z" fill="#3A38B5"/>
<path d="M33.402 32.5222L33.4856 29.8188L31.4307 30.1359L33.402 32.5222Z" fill="#1646C0"/>
<path d="M35.3333 30.914L33.4023 32.5222L33.4859 29.8188L35.3333 30.914Z" fill="#0F3EB1"/>
<path d="M34.2265 28.2741L33.4858 29.8189L32.7451 27.715L34.2265 28.2741Z" fill="#2A21A8"/>
<path d="M35.3328 30.914L33.4854 29.8188L34.226 28.274L35.3328 30.914Z" fill="#1646C0"/>
<path d="M29.3389 15.3855L29.6617 20.0314L32.4284 19.2302L29.3389 15.3855Z" fill="#4DC9F7"/>
<path d="M35.5293 26.1068L36.7051 26.8446L34.2266 28.2741L35.5293 26.1068Z" fill="#7EBDF4"/>
<path d="M32.2783 24.7579L35.5293 26.1067L32.7452 27.7149L32.2783 24.7579Z" fill="#839CE2"/>
<path d="M34.2266 23.0402L35.5293 26.1067L32.2783 24.7579L34.2266 23.0402Z" fill="#A59DCF"/>
<path d="M34.2265 28.2741L35.5292 26.1068L32.7451 27.7149L34.2265 28.2741Z" fill="#3B4ED0"/>
</g>
</g>
</svg>
