<svg width="240" height="240" viewBox="0 0 240 240" fill="none" xmlns="http://www.w3.org/2000/svg">
<path d="M210.795 81.816C209.406 82.896 184.875 96.744 184.875 127.536C184.875 163.152 216.09 175.752 217.024 176.064C216.88 176.832 212.065 193.32 200.566 210.12C190.313 224.904 179.605 239.664 163.315 239.664C147.025 239.664 142.833 230.184 124.028 230.184C105.701 230.184 99.1855 239.976 84.285 239.976C69.3845 239.976 58.9877 226.296 47.0338 209.496C33.1873 189.768 22 159.12 22 130.032C22 83.376 52.2801 58.632 82.0811 58.632C97.9158 58.632 111.115 69.048 121.057 69.048C130.52 69.048 145.276 58.008 163.291 58.008C170.119 58.008 194.649 58.632 210.795 81.816ZM154.739 38.256C162.189 29.4 167.459 17.112 167.459 4.824C167.459 3.12 167.316 1.392 167.004 0C154.883 0.456 140.461 8.088 131.765 18.192C124.938 25.968 118.566 38.256 118.566 50.712C118.566 52.584 118.877 54.456 119.021 55.056C119.787 55.2 121.033 55.368 122.279 55.368C133.155 55.368 146.834 48.072 154.739 38.256Z" fill="url(#paint0_linear_1770_100)"/>
<defs>
<linearGradient id="paint0_linear_1770_100" x1="119.512" y1="0" x2="119.512" y2="239.976" gradientUnits="userSpaceOnUse">
<stop stop-color="#007AFF"/>
<stop offset="1" stop-color="#4199FA"/>
</linearGradient>
</defs>
</svg>
