<svg width="32" height="32" viewBox="0 0 32 32" fill="none" xmlns="http://www.w3.org/2000/svg">
<path d="M10.4 2.6665H21.6C25.8666 2.6665 29.3333 6.13317 29.3333 10.3998V21.5998C29.3333 23.6508 28.5185 25.6178 27.0683 27.0681C25.618 28.5184 23.651 29.3332 21.6 29.3332H10.4C6.13329 29.3332 2.66663 25.8665 2.66663 21.5998V10.3998C2.66663 8.34883 3.48139 6.38183 4.93167 4.93154C6.38195 3.48126 8.34895 2.6665 10.4 2.6665ZM10.1333 5.33317C8.86025 5.33317 7.63935 5.83888 6.73918 6.73906C5.83901 7.63923 5.33329 8.86013 5.33329 10.1332V21.8665C5.33329 24.5198 7.47996 26.6665 10.1333 26.6665H21.8666C23.1397 26.6665 24.3606 26.1608 25.2607 25.2606C26.1609 24.3604 26.6666 23.1395 26.6666 21.8665V10.1332C26.6666 7.47984 24.52 5.33317 21.8666 5.33317H10.1333ZM23 7.33317C23.442 7.33317 23.8659 7.50877 24.1785 7.82133C24.491 8.13389 24.6666 8.55781 24.6666 8.99984C24.6666 9.44186 24.491 9.86579 24.1785 10.1783C23.8659 10.4909 23.442 10.6665 23 10.6665C22.5579 10.6665 22.134 10.4909 21.8214 10.1783C21.5089 9.86579 21.3333 9.44186 21.3333 8.99984C21.3333 8.55781 21.5089 8.13389 21.8214 7.82133C22.134 7.50877 22.5579 7.33317 23 7.33317ZM16 9.33317C17.7681 9.33317 19.4638 10.0355 20.714 11.2858C21.9642 12.536 22.6666 14.2317 22.6666 15.9998C22.6666 17.7679 21.9642 19.4636 20.714 20.7139C19.4638 21.9641 17.7681 22.6665 16 22.6665C14.2318 22.6665 12.5362 21.9641 11.2859 20.7139C10.0357 19.4636 9.33329 17.7679 9.33329 15.9998C9.33329 14.2317 10.0357 12.536 11.2859 11.2858C12.5362 10.0355 14.2318 9.33317 16 9.33317ZM16 11.9998C14.9391 11.9998 13.9217 12.4213 13.1715 13.1714C12.4214 13.9216 12 14.939 12 15.9998C12 17.0607 12.4214 18.0781 13.1715 18.8283C13.9217 19.5784 14.9391 19.9998 16 19.9998C17.0608 19.9998 18.0782 19.5784 18.8284 18.8283C19.5785 18.0781 20 17.0607 20 15.9998C20 14.939 19.5785 13.9216 18.8284 13.1714C18.0782 12.4213 17.0608 11.9998 16 11.9998Z" fill="currentColor"/>
</svg>
