<svg width="472" height="105" viewBox="0 0 472 105" fill="none" xmlns="http://www.w3.org/2000/svg">
<path d="M151.461 54.1C151.461 56.9333 151.978 59.5667 153.011 62C154.045 64.4333 155.461 66.55 157.261 68.35C159.061 70.15 161.178 71.5667 163.611 72.6C166.045 73.6333 168.661 74.15 171.461 74.15C175.295 74.15 178.578 73.45 181.311 72.05C184.078 70.6167 186.078 68.4833 187.311 65.65H180.111C179.245 65.65 178.445 65.5 177.711 65.2C176.978 64.8667 176.328 64.4167 175.761 63.85C175.228 63.2833 174.795 62.6333 174.461 61.9C174.161 61.1333 174.011 60.3167 174.011 59.45C174.011 58.6167 174.161 57.8333 174.461 57.1C174.795 56.3333 175.228 55.6667 175.761 55.1C176.328 54.5333 176.978 54.0833 177.711 53.75C178.445 53.4167 179.245 53.25 180.111 53.25L194.811 53.35C195.678 53.35 196.495 53.5167 197.261 53.85C198.028 54.15 198.695 54.5667 199.261 55.1C199.828 55.6333 200.278 56.2833 200.611 57.05C200.945 57.7833 201.111 58.6 201.111 59.5C201.011 63.4 200.161 67.0167 198.561 70.35C196.995 73.65 194.861 76.5 192.161 78.9C189.495 81.3 186.378 83.1833 182.811 84.55C179.245 85.9167 175.445 86.6 171.411 86.6C168.411 86.6 165.528 86.2167 162.761 85.45C159.995 84.6833 157.411 83.6 155.011 82.2C152.611 80.7667 150.428 79.0667 148.461 77.1C146.495 75.1333 144.811 72.95 143.411 70.55C142.011 68.15 140.928 65.5833 140.161 62.85C139.395 60.0833 139.011 57.2 139.011 54.2C139.011 51.2333 139.378 48.3667 140.111 45.6C140.878 42.8333 141.945 40.25 143.311 37.85C144.711 35.4167 146.378 33.2 148.311 31.2C150.245 29.2 152.395 27.4833 154.761 26.05C157.161 24.6167 159.745 23.5167 162.511 22.75C165.278 21.95 168.161 21.55 171.161 21.55C175.728 21.55 179.945 22.3667 183.811 24C187.678 25.6 191.228 28 194.461 31.2C195.061 31.8 195.511 32.4667 195.811 33.2C196.111 33.9333 196.261 34.7 196.261 35.5C196.261 36.2667 196.111 37.0333 195.811 37.8C195.511 38.5333 195.061 39.2 194.461 39.8C193.861 40.4 193.178 40.85 192.411 41.15C191.678 41.45 190.911 41.6167 190.111 41.65C189.345 41.65 188.578 41.5167 187.811 41.25C187.045 40.95 186.361 40.5 185.761 39.9C183.728 37.9 181.461 36.4333 178.961 35.5C176.495 34.5667 173.945 34.1 171.311 34.1C168.611 34.1 166.061 34.6167 163.661 35.65C161.261 36.65 159.161 38.05 157.361 39.85C155.561 41.65 154.128 43.7667 153.061 46.2C151.995 48.6333 151.461 51.2667 151.461 54.1ZM206.589 62.75C206.589 59.45 207.223 56.3667 208.489 53.5C209.756 50.6 211.473 48.0667 213.639 45.9C215.806 43.7333 218.323 42.0333 221.189 40.8C224.089 39.5333 227.173 38.9 230.439 38.9C233.673 38.9 236.723 39.5167 239.589 40.75C242.456 41.9833 244.956 43.6667 247.089 45.8C249.256 47.9 250.973 50.3833 252.239 53.25C253.506 56.1167 254.173 59.1667 254.239 62.4V79.65C254.239 80.5167 254.073 81.35 253.739 82.15C253.406 82.9167 252.956 83.5833 252.389 84.15C251.823 84.7167 251.156 85.1667 250.389 85.5C249.623 85.8333 248.789 86 247.889 86C246.623 86 245.523 85.7 244.589 85.1C243.656 84.4667 242.956 83.65 242.489 82.65C240.689 83.85 238.773 84.8 236.739 85.5C234.739 86.2 232.639 86.55 230.439 86.55C227.173 86.55 224.089 85.9333 221.189 84.7C218.323 83.4333 215.806 81.7333 213.639 79.6C211.473 77.4333 209.756 74.9 208.489 72C207.223 69.1 206.589 66.0167 206.589 62.75ZM219.039 62.75C219.039 64.3167 219.339 65.8 219.939 67.2C220.539 68.5667 221.356 69.7667 222.389 70.8C223.423 71.8333 224.623 72.65 225.989 73.25C227.389 73.8167 228.873 74.1 230.439 74.1C232.039 74.1 233.523 73.8167 234.889 73.25C236.289 72.65 237.489 71.8333 238.489 70.8C239.523 69.7667 240.339 68.5667 240.939 67.2C241.539 65.8 241.839 64.3167 241.839 62.75C241.839 61.15 241.539 59.6667 240.939 58.3C240.339 56.9333 239.523 55.7333 238.489 54.7C237.489 53.6667 236.289 52.8667 234.889 52.3C233.523 51.7 232.039 51.4 230.439 51.4C228.873 51.4 227.389 51.7 225.989 52.3C224.623 52.8667 223.423 53.6667 222.389 54.7C221.356 55.7333 220.539 56.9333 219.939 58.3C219.339 59.6667 219.039 61.15 219.039 62.75ZM263.725 28.05C263.725 27.1167 263.891 26.25 264.225 25.45C264.591 24.65 265.075 23.95 265.675 23.35C266.275 22.75 266.975 22.2833 267.775 21.95C268.608 21.5833 269.475 21.4 270.375 21.4C271.275 21.4 272.125 21.5833 272.925 21.95C273.758 22.2833 274.475 22.75 275.075 23.35C275.708 23.95 276.191 24.65 276.525 25.45C276.891 26.25 277.075 27.1167 277.075 28.05C277.075 28.95 276.891 29.8167 276.525 30.65C276.191 31.45 275.708 32.15 275.075 32.75C274.475 33.35 273.758 33.8333 272.925 34.2C272.125 34.5333 271.275 34.7 270.375 34.7C269.475 34.7 268.608 34.5333 267.775 34.2C266.975 33.8333 266.275 33.35 265.675 32.75C265.075 32.15 264.591 31.45 264.225 30.65C263.891 29.8167 263.725 28.95 263.725 28.05ZM276.625 45V79.85C276.625 80.7167 276.458 81.5167 276.125 82.25C275.825 82.9833 275.391 83.6333 274.825 84.2C274.258 84.7667 273.591 85.2167 272.825 85.55C272.091 85.85 271.308 86 270.475 86C269.608 86 268.791 85.85 268.025 85.55C267.291 85.2167 266.641 84.7667 266.075 84.2C265.508 83.6333 265.058 82.9833 264.725 82.25C264.391 81.5167 264.225 80.7167 264.225 79.85V45C264.225 44.1667 264.391 43.3833 264.725 42.65C265.058 41.8833 265.508 41.2167 266.075 40.65C266.641 40.0833 267.308 39.65 268.075 39.35C268.875 39.0167 269.708 38.85 270.575 38.85C271.408 38.85 272.191 39.0167 272.925 39.35C273.691 39.65 274.341 40.0833 274.875 40.65C275.408 41.2167 275.825 41.8833 276.125 42.65C276.458 43.3833 276.625 44.1667 276.625 45ZM292.938 38.85C294.338 38.85 295.555 39.2667 296.588 40.1C297.655 40.9333 298.371 41.9833 298.738 43.25C300.405 41.8833 302.171 40.8167 304.038 40.05C305.905 39.2833 307.838 38.9 309.838 38.9C312.771 38.9 315.455 39.5 317.888 40.7C320.321 41.9 322.405 43.55 324.138 45.65C325.905 47.7167 327.271 50.1667 328.238 53C329.205 55.8 329.705 58.8 329.738 62V80.05C329.738 80.9167 329.571 81.7167 329.238 82.45C328.905 83.1833 328.455 83.8167 327.888 84.35C327.355 84.8833 326.705 85.3167 325.938 85.65C325.171 85.95 324.371 86.1 323.538 86.1C322.705 86.1 321.905 85.95 321.138 85.65C320.405 85.3167 319.755 84.8833 319.188 84.35C318.655 83.8167 318.221 83.1833 317.888 82.45C317.555 81.7167 317.388 80.9167 317.388 80.05V62.05C317.355 60.5167 317.121 59.1 316.688 57.8C316.288 56.4667 315.705 55.3167 314.938 54.35C314.171 53.3833 313.238 52.6167 312.138 52.05C311.038 51.4833 309.805 51.2 308.438 51.2C307.071 51.2 305.821 51.45 304.688 51.95C303.555 52.45 302.571 53.15 301.738 54.05C300.905 54.95 300.238 56.0167 299.738 57.25C299.271 58.4833 299.021 59.8333 298.988 61.3V79.85C298.988 80.7167 298.821 81.5167 298.488 82.25C298.188 82.9833 297.755 83.6333 297.188 84.2C296.621 84.7667 295.955 85.2167 295.188 85.55C294.455 85.85 293.671 86 292.838 86C291.971 86 291.155 85.85 290.388 85.55C289.655 85.2167 289.005 84.7667 288.438 84.2C287.871 83.6333 287.421 82.9833 287.088 82.25C286.755 81.5167 286.588 80.7167 286.588 79.85V45C286.588 44.1667 286.755 43.3833 287.088 42.65C287.421 41.8833 287.871 41.2167 288.438 40.65C289.005 40.0833 289.671 39.65 290.438 39.35C291.238 39.0167 292.071 38.85 292.938 38.85Z" fill="black"/>
<path d="M347.022 22H371.922C372.756 22 373.539 22.1667 374.272 22.5C375.039 22.8 375.689 23.2333 376.222 23.8C376.789 24.3667 377.222 25.0333 377.522 25.8C377.856 26.5333 378.022 27.3333 378.022 28.2C378.022 29.0667 377.856 29.8833 377.522 30.65C377.222 31.3833 376.789 32.0333 376.222 32.6C375.689 33.1667 375.039 33.6167 374.272 33.95C373.539 34.25 372.756 34.4 371.922 34.4H353.222V47.95H365.372C366.206 47.95 367.006 48.1167 367.772 48.45C368.539 48.75 369.189 49.1833 369.722 49.75C370.289 50.2833 370.739 50.9333 371.072 51.7C371.406 52.4333 371.572 53.2333 371.572 54.1C371.572 54.9667 371.406 55.7667 371.072 56.5C370.739 57.2 370.289 57.8167 369.722 58.35C369.189 58.85 368.539 59.25 367.772 59.55C367.006 59.85 366.206 60 365.372 60H353.222V79.9C353.222 80.7667 353.056 81.5667 352.722 82.3C352.389 83.0333 351.939 83.6833 351.372 84.25C350.839 84.7833 350.189 85.2167 349.422 85.55C348.656 85.85 347.856 86 347.022 86C346.156 86 345.339 85.85 344.572 85.55C343.806 85.2167 343.139 84.7833 342.572 84.25C342.039 83.6833 341.606 83.0333 341.272 82.3C340.972 81.5667 340.822 80.7667 340.822 79.9V27.95C340.856 27.3167 340.972 26.65 341.172 25.95C341.406 25.2167 341.756 24.5667 342.222 24C342.722 23.4333 343.356 22.9667 344.122 22.6C344.922 22.2 345.889 22 347.022 22ZM373.777 62.75C373.777 59.45 374.41 56.3667 375.677 53.5C376.944 50.6 378.66 48.0667 380.827 45.9C382.994 43.7333 385.51 42.0333 388.377 40.8C391.277 39.5333 394.36 38.9 397.627 38.9C400.86 38.9 403.91 39.5167 406.777 40.75C409.644 41.9833 412.144 43.6667 414.277 45.8C416.444 47.9 418.16 50.3833 419.427 53.25C420.694 56.1167 421.36 59.1667 421.427 62.4V79.65C421.427 80.5167 421.26 81.35 420.927 82.15C420.594 82.9167 420.144 83.5833 419.577 84.15C419.01 84.7167 418.344 85.1667 417.577 85.5C416.81 85.8333 415.977 86 415.077 86C413.81 86 412.71 85.7 411.777 85.1C410.844 84.4667 410.144 83.65 409.677 82.65C407.877 83.85 405.96 84.8 403.927 85.5C401.927 86.2 399.827 86.55 397.627 86.55C394.36 86.55 391.277 85.9333 388.377 84.7C385.51 83.4333 382.994 81.7333 380.827 79.6C378.66 77.4333 376.944 74.9 375.677 72C374.41 69.1 373.777 66.0167 373.777 62.75ZM386.227 62.75C386.227 64.3167 386.527 65.8 387.127 67.2C387.727 68.5667 388.544 69.7667 389.577 70.8C390.61 71.8333 391.81 72.65 393.177 73.25C394.577 73.8167 396.06 74.1 397.627 74.1C399.227 74.1 400.71 73.8167 402.077 73.25C403.477 72.65 404.677 71.8333 405.677 70.8C406.71 69.7667 407.527 68.5667 408.127 67.2C408.727 65.8 409.027 64.3167 409.027 62.75C409.027 61.15 408.727 59.6667 408.127 58.3C407.527 56.9333 406.71 55.7333 405.677 54.7C404.677 53.6667 403.477 52.8667 402.077 52.3C400.71 51.7 399.227 51.4 397.627 51.4C396.06 51.4 394.577 51.7 393.177 52.3C391.81 52.8667 390.61 53.6667 389.577 54.7C388.544 55.7333 387.727 56.9333 387.127 58.3C386.527 59.6667 386.227 61.15 386.227 62.75ZM443.812 28.1V79.9C443.812 80.7667 443.645 81.5667 443.312 82.3C443.012 83.0333 442.579 83.6833 442.012 84.25C441.445 84.7833 440.779 85.2167 440.012 85.55C439.279 85.85 438.479 86 437.612 86C436.745 86 435.929 85.85 435.162 85.55C434.429 85.2167 433.779 84.7833 433.212 84.25C432.645 83.6833 432.195 83.0333 431.862 82.3C431.562 81.5667 431.412 80.7667 431.412 79.9V28.1C431.412 27.2333 431.562 26.4333 431.862 25.7C432.195 24.9667 432.645 24.3333 433.212 23.8C433.779 23.2333 434.429 22.8 435.162 22.5C435.929 22.1667 436.745 22 437.612 22C438.479 22 439.279 22.1667 440.012 22.5C440.779 22.8 441.445 23.2333 442.012 23.8C442.579 24.3333 443.012 24.9667 443.312 25.7C443.645 26.4333 443.812 27.2333 443.812 28.1ZM466.175 28.1V79.9C466.175 80.7667 466.009 81.5667 465.675 82.3C465.375 83.0333 464.942 83.6833 464.375 84.25C463.809 84.7833 463.142 85.2167 462.375 85.55C461.642 85.85 460.842 86 459.975 86C459.109 86 458.292 85.85 457.525 85.55C456.792 85.2167 456.142 84.7833 455.575 84.25C455.009 83.6833 454.559 83.0333 454.225 82.3C453.925 81.5667 453.775 80.7667 453.775 79.9V28.1C453.775 27.2333 453.925 26.4333 454.225 25.7C454.559 24.9667 455.009 24.3333 455.575 23.8C456.142 23.2333 456.792 22.8 457.525 22.5C458.292 22.1667 459.109 22 459.975 22C460.842 22 461.642 22.1667 462.375 22.5C463.142 22.8 463.809 23.2333 464.375 23.8C464.942 24.3333 465.375 24.9667 465.675 25.7C466.009 26.4333 466.175 27.2333 466.175 28.1Z" fill="#2196F3"/>
<rect width="105" height="105" rx="24" fill="#2196F3"/>
<g clip-path="url(#clip0_793_24)">
<path d="M77.241 74.1393C77.241 75.832 76.6051 77.3733 75.5588 78.5429C75.469 78.6433 75.3756 78.7419 75.2805 78.8352C75.0022 79.0766 74.7203 79.3126 74.435 79.5433C73.0206 80.6865 71.5145 81.7222 69.931 82.6364C67.2061 84.2147 64.2486 85.4354 61.1238 86.2386C58.309 86.9643 55.3586 87.35 52.3166 87.35C49.2746 87.35 46.3242 86.9643 43.5094 86.2386C40.3847 85.4354 37.4272 84.2147 34.7023 82.6364C32.6696 81.4615 30.7637 80.0876 29.0146 78.5429C27.9102 77.5688 26.8691 76.5278 25.8951 75.4233C24.3503 73.6742 22.9764 71.7684 21.8015 69.7357C20.2232 67.0107 19.0026 64.0533 18.1994 60.9285C17.4736 58.1137 17.0879 55.1633 17.0879 52.1213C17.0879 49.0793 17.4736 46.1289 18.1994 43.3141C19.0026 40.1893 20.2232 37.2319 21.8015 34.5069C22.9764 32.4742 24.3503 30.5683 25.8951 28.8192C26.8691 27.7148 27.9102 26.6738 29.0146 25.6997C30.7637 24.155 32.6696 22.781 34.7023 21.6062C37.4272 20.0279 40.3847 18.8072 43.5094 18.004V18.0586C44.2228 17.7944 44.9943 17.65 45.7993 17.65C49.0809 17.65 51.8023 20.042 52.3166 23.1774V25.3334C52.2973 25.4567 52.2726 25.58 52.2462 25.6997C51.7213 28.0548 49.9387 29.936 47.64 30.6001C47.4216 30.6476 47.2032 30.6987 46.9865 30.7533C45.7852 31.051 44.6244 31.4491 43.5094 31.9335C41.9365 32.6222 40.4604 33.487 39.1041 34.5069C37.4378 35.7593 35.9546 37.2424 34.7023 38.9088C33.6824 40.2651 32.8175 41.7411 32.1288 43.3141C30.9522 46.0109 30.2987 48.9895 30.2987 52.1213C30.2987 55.2531 30.9522 58.2317 32.1288 60.9285C32.8175 62.5014 33.6824 63.9775 34.7023 65.3338C35.9546 67.0001 37.4378 68.4833 39.1041 69.7357C40.4604 70.7555 41.9365 71.6204 43.5094 72.3091C46.2062 73.4858 49.1848 74.1393 52.3166 74.1393C55.4485 74.1393 58.4271 73.4858 61.1238 72.3091C62.6968 71.6204 64.1729 70.7555 65.5292 69.7357H65.7124C66.7745 68.5485 68.2594 67.7488 69.931 67.5709C70.1635 67.5462 70.3978 67.5339 70.6356 67.5339C72.5925 67.5339 74.3504 68.3846 75.5588 69.7357C76.6051 70.9053 77.241 72.4465 77.241 74.1393Z" fill="white" stroke="white" stroke-miterlimit="10"/>
<path d="M87.912 44.075C87.912 44.8113 87.7834 45.5177 87.5456 46.1729C87.4417 46.4583 87.3184 46.7331 87.1757 46.9955C86.8904 47.5275 86.5293 48.0119 86.1065 48.4346C84.9915 49.5496 83.4485 50.2401 81.747 50.2401H64.7544V58.2934C64.7544 59.2357 64.543 60.1288 64.1643 60.9285C63.539 62.2496 62.4575 63.3117 61.1241 63.9141C60.3508 64.2646 59.493 64.4584 58.5893 64.4584C56.1269 64.4584 54.0026 63.0158 53.0144 60.9285C52.6357 60.1288 52.4243 59.2357 52.4243 58.2934V44.1138C52.4243 43.8425 52.4419 43.5766 52.4754 43.3141H52.4895C52.567 42.6888 52.7379 42.0917 52.988 41.5386C53.0426 41.4153 53.1042 41.2937 53.1694 41.1757C53.4548 40.6367 53.8211 40.1435 54.2492 39.7155C55.3642 38.6005 56.9072 37.91 58.6087 37.91H81.747C82.9148 37.91 84.0086 38.2359 84.9404 38.8013C86.1347 39.5253 87.063 40.6438 87.5456 41.9772C87.6989 42.4034 87.8081 42.8508 87.8662 43.3141C87.8961 43.5642 87.912 43.8179 87.912 44.075Z" fill="white" stroke="white" stroke-miterlimit="10"/>
</g>
<defs>
<clipPath id="clip0_793_24">
<rect width="71" height="69.8762" fill="white" transform="translate(17 17.5619)"/>
</clipPath>
</defs>
</svg>
