<svg width="105" height="105" viewBox="0 0 105 105" fill="none" xmlns="http://www.w3.org/2000/svg">
<rect width="105" height="105" rx="24" fill="#2196F3"/>
<g clip-path="url(#clip0_817_45)">
<path d="M77.2411 74.1392C77.2411 75.8319 76.6052 77.3732 75.5589 78.5428C75.4691 78.6432 75.3757 78.7418 75.2806 78.8352C75.0023 79.0765 74.7205 79.3125 74.4351 79.5433C73.0207 80.6865 71.5147 81.7222 69.9311 82.6364C67.2062 84.2146 64.2487 85.4353 61.1239 86.2385C58.3092 86.9642 55.3588 87.35 52.3168 87.35C49.2747 87.35 46.3243 86.9642 43.5096 86.2385C40.3848 85.4353 37.4273 84.2146 34.7024 82.6364C32.6697 81.4615 30.7638 80.0876 29.0147 78.5428C27.9103 77.5687 26.8693 76.5277 25.8952 75.4233C24.3504 73.6742 22.9765 71.7683 21.8016 69.7356C20.2234 67.0107 19.0027 64.0532 18.1995 60.9284C17.4738 58.1136 17.088 55.1632 17.088 52.1212C17.088 49.0792 17.4738 46.1288 18.1995 43.314C19.0027 40.1893 20.2234 37.2318 21.8016 34.5069C22.9765 32.4742 24.3504 30.5683 25.8952 28.8192C26.8693 27.7148 27.9103 26.6737 29.0147 25.6997C30.7638 24.1549 32.6697 22.781 34.7024 21.6061C37.4273 20.0278 40.3848 18.8072 43.5096 18.004V18.0586C44.2229 17.7943 44.9945 17.6499 45.7994 17.6499C49.081 17.6499 51.8024 20.0419 52.3168 23.1773V25.3333C52.2974 25.4566 52.2727 25.5799 52.2463 25.6997C51.7214 28.0547 49.9388 29.9359 47.6401 30.6C47.4217 30.6475 47.2033 30.6986 46.9866 30.7532C45.7853 31.0509 44.6246 31.449 43.5096 31.9334C41.9366 32.6221 40.4605 33.487 39.1042 34.5069C37.4379 35.7592 35.9548 37.2424 34.7024 38.9087C33.6825 40.265 32.8176 41.7411 32.1289 43.314C30.9523 46.0108 30.2988 48.9894 30.2988 52.1212C30.2988 55.2531 30.9523 58.2317 32.1289 60.9284C32.8176 62.5014 33.6825 63.9775 34.7024 65.3338C35.9548 67.0001 37.4379 68.4832 39.1042 69.7356C40.4605 70.7555 41.9366 71.6203 43.5096 72.3091C46.2063 73.4857 49.1849 74.1392 52.3168 74.1392C55.4486 74.1392 58.4272 73.4857 61.1239 72.3091C62.6969 71.6203 64.173 70.7555 65.5293 69.7356H65.7125C66.7746 68.5484 68.2595 67.7487 69.9311 67.5708C70.1636 67.5461 70.3979 67.5338 70.6357 67.5338C72.5927 67.5338 74.3506 68.3846 75.5589 69.7356C76.6052 70.9052 77.2411 72.4465 77.2411 74.1392Z" fill="white" stroke="white" stroke-miterlimit="10"/>
<path d="M87.912 44.0751C87.912 44.8113 87.7834 45.5177 87.5456 46.1729C87.4417 46.4583 87.3184 46.7331 87.1757 46.9955C86.8904 47.5275 86.5293 48.0119 86.1065 48.4346C84.9915 49.5496 83.4485 50.2401 81.747 50.2401H64.7544V58.2934C64.7544 59.2358 64.543 60.1288 64.1643 60.9285C63.539 62.2496 62.4575 63.3117 61.1241 63.9141C60.3508 64.2647 59.493 64.4584 58.5893 64.4584C56.1269 64.4584 54.0026 63.0158 53.0144 60.9285C52.6357 60.1288 52.4243 59.2358 52.4243 58.2934V44.1138C52.4243 43.8426 52.4419 43.5766 52.4754 43.3141H52.4895C52.567 42.6888 52.7379 42.0917 52.988 41.5386C53.0426 41.4153 53.1042 41.2938 53.1694 41.1757C53.4548 40.6367 53.8211 40.1435 54.2492 39.7155C55.3642 38.6005 56.9072 37.91 58.6087 37.91H81.747C82.9148 37.91 84.0086 38.2359 84.9404 38.8013C86.1347 39.5253 87.063 40.6438 87.5456 41.9772C87.6989 42.4035 87.8081 42.8509 87.8662 43.3141C87.8961 43.5642 87.912 43.8179 87.912 44.0751Z" fill="white" stroke="white" stroke-miterlimit="10"/>
</g>
<defs>
<clipPath id="clip0_817_45">
<rect width="71" height="69.8762" fill="white" transform="translate(17 17.5619)"/>
</clipPath>
</defs>
</svg>
