<?xml version="1.0" encoding="utf-8" ?><svg xmlns="http://www.w3.org/2000/svg" xmlns:xlink="http://www.w3.org/1999/xlink" width="4500" height="680" viewBox="0 0 4500 680"><path d="M1182.49 154.49L1275.18 154.447C1326.12 154.42 1384.61 149.022 1425.65 185.497C1471.28 226.066 1474.44 309.291 1433.83 354.396C1406.73 384.498 1370.22 392.59 1331.48 394.51L1272 394.51L1272 524L1182.49 524L1182.49 154.49ZM1272 322.832C1299.91 322.966 1337.07 327.242 1358.51 310.131C1375.51 289.967 1376.11 255.67 1356.25 238.146C1338.72 222.672 1295.25 226.868 1272 227L1272 322.832Z"/><path d="M937.239 151.604C1023.59 144.688 1100.32 183.359 1127.39 268.746C1129.46 275.266 1131.09 281.882 1132.76 288.51L1037.86 288.51C1019.08 243.219 970.88 223.283 924.665 238.627C849.997 263.42 847.823 406.282 918.681 436.517C965.751 456.601 1016.11 436.857 1037.88 389.49L1056.5 389.49L1132.76 389.49C1113.55 465.639 1064.92 515.623 984.637 525.45C934.145 531.631 883.173 522.346 842.429 490.471C762.658 428.062 755.52 291.283 816.17 213.717C846.993 174.359 888.856 157.17 937.239 151.604Z"/><path d="M1478.59 154.49L1584.99 154.49C1610.05 189.503 1636.5 229.834 1660.67 265.702L1726.02 154.49L1828.19 154.49L1711.64 340.548C1746.98 394.893 1785.6 447.833 1821.06 502.161C1825.67 509.235 1831.11 516.057 1835.29 523.313L1834.04 524L1729.52 524C1703.88 486.09 1678 446.853 1651.78 409.455L1585.09 524L1482.38 524L1600.52 333.816L1478.59 154.49Z"/><path d="M298.742 87.4987C339.089 86.9188 373.349 92.4346 410.696 108.711C473.446 136.131 522.776 187.296 547.884 251.006C572.779 314.606 571.424 385.485 544.118 448.088C516.649 510.646 465.583 559.823 402.035 584.916C334.444 611.227 265.716 607.873 199.801 578.908L235.696 538.702C285.73 556.155 335.666 556.787 385.225 536.704C436.562 515.895 477.442 475.414 498.754 424.285C515.699 383.881 519.255 339.112 508.901 296.54C495.822 242.946 461.956 196.757 414.776 168.165C368.051 139.784 311.954 131.159 258.861 144.194C205.491 157.378 159.524 191.184 131.036 238.201C99.7915 289.816 94.7 343.457 108.92 401.158L62.5918 423.577C55.8007 403.95 51.7571 379.008 50.6072 358.395C47.0214 290.259 70.683 223.495 116.375 172.823C164.375 119.255 227.489 91.3729 298.742 87.4987Z"/><path d="M3456.49 155.832L3534.71 155.775C3576.94 155.756 3623.1 151.539 3660.64 176.595C3707.49 207.868 3715.9 283.103 3685.45 328.533C3666.81 356.334 3637.26 366.399 3605.59 372.134C3638.76 419.518 3673.77 475.277 3705.95 524L3652.2 524C3648.98 521.18 3630.39 490.739 3627.11 485.596L3555.61 373.51L3504.17 373.51L3504.17 524L3456.49 524L3456.49 155.832ZM3504.17 339L3551.22 339.075C3580.89 339.083 3610.81 340.791 3635.1 320.38C3650.88 303.9 3654.81 287.156 3654.16 264.953C3652.22 198.393 3600.65 197.038 3550.54 197.089L3504.17 197.168L3504.17 339Z"/><path d="M1981.83 155.832L2059.54 155.795C2101.13 155.74 2146.39 151.614 2183.91 175.301C2232.05 205.695 2241.32 280.999 2211.51 327.307C2192.95 356.146 2163.24 365.94 2131 372.201L2231.15 524L2177.25 524C2174.71 521.438 2153.06 486.552 2149.86 481.523L2080.78 373.51L2029.51 373.51L2029.51 524L1981.83 524L1981.83 155.832ZM2160.62 320.02C2176.2 303.686 2179.99 286.925 2179.38 264.965C2177.54 198.092 2125.14 196.997 2074.83 197.105L2029.51 197.168L2029.51 339L2076.31 339.076C2105.71 339.085 2136.94 340.815 2160.62 320.02Z"/><path d="M3218.82 162.49L3273.02 162.49C3286.49 201.395 3303.65 244.153 3318.24 282.985L3408.74 524L3357.24 524C3347.08 495.56 3336.76 467.172 3326.31 438.836L3273.5 438.836L3164.84 438.836L3134.15 524L3082.53 524L3218.82 162.49ZM3178.63 401.49L3246.5 401.49L3312.86 401.49L3265.92 272.174C3262.73 263.338 3248.79 222.745 3245.53 216.751L3178.63 401.49Z"/><path d="M4159 155.832L4206.84 155.832L4206.84 315L4393.49 315L4393.49 155.832L4441.84 155.832L4441.84 523.933L4431.5 524L4393.49 524L4393.49 353.836L4206.84 353.836L4206.84 524L4159 524L4159 155.832Z"/><path d="M3907.2 152.602C3997.86 144.793 4068.9 188.216 4095.74 276L4045.43 276C4044.66 274.126 4043.86 272.262 4043.03 270.41C3998.39 170.364 3850.22 170.177 3809.76 273.038C3781.61 344.588 3799.98 446.034 3879.33 475.474C3914.25 488.43 3953.98 484.293 3987.37 468.919C4016.73 452.626 4032.36 433.583 4045.42 403L4095.71 403C4089.33 426.314 4078.25 448.078 4063.15 466.953C4033.04 504.067 3995.21 520.504 3948.65 525.899C3843.27 538.709 3759.27 470.556 3749.44 364.603C3739.43 256.817 3794.25 163.744 3907.2 152.602Z"/><path d="M2636.49 151.5C2702.9 145.276 2763.49 173.034 2775.59 244.836L2724.2 244.836C2714.77 208.831 2688.95 188.845 2651.56 189.188C2633.62 189.353 2616.43 193.828 2603.52 206.847C2592.51 217.955 2588.68 233.076 2589.02 248.328C2589.89 320.656 2715.57 313.019 2756.65 358.358C2775.73 377.209 2783.56 400.211 2783.28 427.169C2782.58 495.338 2730.23 527.2 2669.5 527.51C2604.26 528.871 2548.25 492.919 2539.06 424.49L2589.92 424.49C2604.48 514.702 2742.14 509.947 2731.72 420.767C2724.1 355.46 2613.15 357.108 2571.71 321.561C2552.79 305.329 2541.12 288.977 2538.44 262.949C2531.31 194.17 2573.55 158.634 2636.49 151.5Z"/><path d="M2286 155.832L2489.17 155.832L2489.17 194.51L2333.84 194.51L2333.84 320L2473.84 320L2473.84 357L2333.84 357L2333.84 383.5L2333.84 485L2489.17 485L2489.17 524L2286 524L2286 155.832Z"/><path d="M2846.83 155.832L3050 155.832L3050 194.51L2894.51 194.51L2894.51 320L3034.17 320L3034.17 357L2894.51 357L2894.51 384.5L2894.51 485L3050 485L3050 524L2846.83 524L2846.83 155.832Z"/><path d="M479.87 240.048L480.627 240.813L154.652 551.813C137.059 539.856 119.923 521.803 106.463 505.424C97.2704 493.914 90.896 483.998 83.4105 471.371C98.2424 463.404 113.017 454.608 127.951 446.519C133.83 456.854 140.747 466.306 147.902 475.77C182.454 449.705 223.874 421.732 259.542 396.417L479.87 240.048Z"/></svg>