<?xml version="1.0" encoding="utf-8" ?><svg xmlns="http://www.w3.org/2000/svg" xmlns:xlink="http://www.w3.org/1999/xlink" width="128" height="100" viewBox="0 0 128 100"><path fill="#27B1F1" d="M63.7751 9.14328C69.4248 4.83362 82.2571 3.89731 89.1786 4.76212C107.197 7.01349 122.516 20.9532 126.815 38.5236C127.292 40.4754 127.237 43.2983 128 45.1557L128 52.3382C127.501 53.894 127.301 55.7513 127.063 57.4082C125.076 71.2462 115.461 82.5612 103.445 89.0124C94.2736 93.9363 75.4184 95.909 66.2861 90.081C64.695 90.3972 61.9887 91.5138 60.4091 92.1381C57.0617 93.4609 54.7974 94.0111 51.2223 94.3668C37.684 95.7138 27.4343 92.8732 16.8411 84.3727C8.07404 77.3229 2.4266 67.1118 1.11515 55.9385C-2.37338 23.7582 23.9688 1.13351 55.0637 6.46613C57.0925 6.81405 62.5307 9.31146 63.7751 9.14328ZM75.6186 82.978C81.8318 82.6872 87.8488 83.7896 93.3029 80.2345C102.803 74.042 105.304 59.8741 95.9123 52.4164C94.4032 51.2181 91.9494 49.7655 90.0588 49.3975C81.8739 46.1807 67.5126 46.2189 67.8529 34.2249C68.0847 26.0547 73.1905 22.3344 80.9736 22.4464C87.9667 22.3308 94.9604 22.262 101.954 22.2401C101.789 19.9682 101.71 18.8959 101.805 16.5741C92.7576 16.3811 83.2763 16.5145 74.1915 16.5249L53.302 16.4886C47.398 16.494 39.9245 16.1609 34.2051 17.5041C32.813 17.8311 30.239 19.7618 29.2208 20.8069C24.9589 25.1815 24.425 30.3456 24.4052 36.096L24.3924 53.4604C24.3513 61.9616 22.7878 71.9674 29.1313 78.4059C34.5366 83.8921 40.4813 82.7889 47.5063 82.9381C56.6912 83.1109 66.4806 82.5787 75.6186 82.978Z"/><path fill="#2A69F6" d="M40.9945 22.353C48.5232 21.8546 58.6807 22.8735 65.9636 22.0631C58.0044 34.846 61.7526 46.3366 76.1543 51.391C83.2376 53.8769 96.0472 55.1153 95.855 65.1062C95.5987 78.427 83.4577 77.0905 73.9199 77.111L54.875 77.1501C51.3064 77.1721 47.7377 77.1708 44.1691 77.1465C27.6788 76.8823 29.7915 65.5432 30.0685 52.4752C40.9601 52.7005 53.344 52.7148 64.223 52.4661C64.0358 50.9918 64.0715 48.7889 64.0545 47.2479C60.0619 46.905 54.5821 47.0896 50.4836 47.1192L30.0626 47.2061C29.7934 37.5134 27.881 23.3864 40.9945 22.353Z"/><path fill="#2A69F6" d="M66.2861 90.081C64.695 90.3972 61.9887 91.5138 60.4091 92.1381C57.0617 93.4609 54.7974 94.0111 51.2223 94.3668C37.684 95.7138 27.4343 92.8732 16.8411 84.3727C8.07404 77.3229 2.4266 67.1118 1.11515 55.9385C-2.37338 23.7582 23.9688 1.13351 55.0637 6.46613C57.0925 6.81405 62.5307 9.31146 63.7751 9.14328C65.9482 11.0483 73.1585 13.7811 74.1915 16.5249L53.302 16.4886C47.398 16.494 39.9245 16.1609 34.2051 17.5041C32.813 17.8311 30.239 19.7618 29.2208 20.8069C24.9589 25.1815 24.425 30.3456 24.4052 36.096L24.3924 53.4604C24.3513 61.9616 22.7878 71.9674 29.1313 78.4059C34.5366 83.8921 40.4813 82.7889 47.5063 82.9381C56.6912 83.1109 66.4806 82.5787 75.6186 82.978C73.389 85.393 71.7678 86.4715 69.0367 88.2337C68.3618 88.6691 66.7958 89.5843 66.2861 90.081Z"/><path fill="#2A69F6" d="M90.0588 49.3975C81.8739 46.1807 67.5126 46.2189 67.8529 34.2249C68.0847 26.0547 73.1905 22.3344 80.9736 22.4464C87.0607 32.0761 90.0829 37.5645 90.0588 49.3975Z"/></svg>