<svg width="300" height="300" viewBox="0 0 300 300" fill="none" xmlns="http://www.w3.org/2000/svg">
<path d="M98.898 198.582H171.084L187.758 213.33H82.224L98.898 198.582Z" fill="white"/>
<path d="M187.758 213.63H82.224C82.098 213.63 81.99 213.552 81.942 213.438C81.9 213.324 81.93 213.192 82.026 213.108L98.7 198.36C98.754 198.312 98.826 198.288 98.898 198.288H171.084C171.156 198.288 171.228 198.312 171.282 198.36L187.956 213.108C188.052 213.192 188.082 213.324 188.04 213.438C187.998 213.552 187.884 213.63 187.758 213.63ZM83.016 213.03H186.966L170.97 198.882H99.012L83.016 213.03Z" fill="#153456"/>
<path d="M159.792 185.124H108.618V204.684H159.792V185.124Z" fill="#2196F3"/>
<path d="M159.798 204.984H108.624C108.456 204.984 108.324 204.852 108.324 204.684V185.124C108.324 184.956 108.456 184.824 108.624 184.824H159.798C159.966 184.824 160.098 184.956 160.098 185.124V204.684C160.098 204.852 159.966 204.984 159.798 204.984ZM108.924 204.384H159.498V185.424H108.924V204.384Z" fill="#153456"/>
<path d="M187.758 213.33H82.224V221.97H187.758V213.33Z" fill="#2196F3"/>
<path d="M187.758 222.27H82.224C82.056 222.27 81.924 222.138 81.924 221.97V213.324C81.924 213.156 82.056 213.024 82.224 213.024H187.758C187.926 213.024 188.058 213.156 188.058 213.324V221.97C188.058 222.138 187.926 222.27 187.758 222.27ZM82.524 221.67H187.458V213.624H82.524V221.67Z" fill="#153456"/>
<path d="M228.72 68.9761H41.262C39.8968 68.9761 38.79 70.0828 38.79 71.4481V189.75C38.79 191.115 39.8968 192.222 41.262 192.222H228.72C230.085 192.222 231.192 191.115 231.192 189.75V71.4481C231.192 70.0828 230.085 68.9761 228.72 68.9761Z" fill="white"/>
<path d="M228.726 192.516H41.256C39.732 192.516 38.484 191.274 38.484 189.744V71.442C38.484 69.918 39.726 68.67 41.256 68.67H228.72C230.244 68.67 231.492 69.912 231.492 71.442V189.744C231.492 191.268 230.25 192.516 228.72 192.516H228.726ZM41.256 69.276C40.062 69.276 39.084 70.248 39.084 71.448V189.75C39.084 190.944 40.056 191.922 41.256 191.922H228.72C229.914 191.922 230.892 190.95 230.892 189.75V71.442C230.892 70.248 229.92 69.27 228.72 69.27H41.256V69.276Z" fill="#153456"/>
<path d="M222.204 77.514H47.778V173.052H222.204V77.514Z" fill="white"/>
<path d="M222.204 173.352H47.778C47.61 173.352 47.478 173.22 47.478 173.052V77.508C47.478 77.34 47.61 77.208 47.778 77.208H222.204C222.372 77.208 222.504 77.34 222.504 77.508V173.052C222.504 173.22 222.372 173.352 222.204 173.352ZM48.078 172.752H221.904V77.808H48.078V172.752Z" fill="#153456"/>
<path d="M130.83 134.34C128.94 134.34 127.044 134.01 125.214 133.344C121.716 132.078 118.836 129.738 116.874 126.594C116.784 126.456 116.832 126.27 116.97 126.18C117.114 126.096 117.294 126.138 117.384 126.276C119.274 129.312 122.052 131.562 125.418 132.78C133.626 135.762 142.728 131.508 145.704 123.3C146.55 120.978 146.832 118.56 146.556 116.118C146.538 115.956 146.658 115.806 146.82 115.788C146.982 115.764 147.132 115.89 147.15 116.052C147.438 118.584 147.138 121.092 146.262 123.504C144.762 127.632 141.75 130.926 137.772 132.786C135.558 133.818 133.194 134.34 130.824 134.34H130.83Z" fill="#153456"/>
<path d="M114.714 119.292C114.558 119.292 114.426 119.172 114.414 119.01C114.258 116.724 114.576 114.462 115.368 112.29C116.868 108.162 119.88 104.868 123.858 103.008C127.836 101.148 132.3 100.95 136.428 102.45C139.368 103.518 141.93 105.384 143.826 107.85C143.928 107.982 143.904 108.168 143.772 108.27C143.64 108.372 143.454 108.348 143.352 108.216C141.522 105.84 139.056 104.04 136.224 103.014C132.252 101.574 127.95 101.76 124.116 103.554C120.282 105.342 117.378 108.522 115.938 112.5C115.176 114.594 114.87 116.772 115.02 118.974C115.032 119.142 114.906 119.28 114.744 119.292C114.738 119.292 114.732 119.292 114.72 119.292H114.714Z" fill="#153456"/>
<path d="M115.632 132.894L114.678 122.724L123.816 125.934L115.632 132.894Z" fill="#2196F3"/>
<path d="M115.632 133.194C115.596 133.194 115.554 133.188 115.518 133.17C115.416 133.128 115.344 133.032 115.332 132.918L114.378 122.748C114.366 122.646 114.414 122.544 114.492 122.484C114.57 122.418 114.678 122.4 114.774 122.436L123.906 125.64C124.008 125.676 124.08 125.76 124.104 125.868C124.122 125.976 124.086 126.084 124.002 126.15L115.824 133.116C115.77 133.164 115.698 133.188 115.632 133.188V133.194ZM115.02 123.162L115.878 132.288L123.222 126.036L115.02 123.156V123.162Z" fill="#153456"/>
<path d="M146.79 102.456L146.958 112.674L138.102 108.774L146.79 102.456Z" fill="#2196F3"/>
<path d="M146.958 112.974C146.916 112.974 146.874 112.968 146.838 112.95L137.976 109.05C137.88 109.008 137.808 108.912 137.796 108.81C137.784 108.702 137.832 108.6 137.916 108.534L146.61 102.222C146.7 102.156 146.82 102.15 146.922 102.198C147.024 102.246 147.084 102.348 147.09 102.462L147.258 112.674C147.258 112.776 147.21 112.872 147.126 112.926C147.078 112.962 147.018 112.974 146.958 112.974ZM138.696 108.708L146.652 112.206L146.502 103.038L138.702 108.708H138.696Z" fill="#153456"/>
<path d="M231.498 141.336L38.79 186.156V171.546L231.498 126.726V141.336Z" fill="white"/>
<path d="M38.79 186.456C38.724 186.456 38.658 186.432 38.604 186.39C38.532 186.336 38.49 186.246 38.49 186.156V171.546C38.49 171.408 38.586 171.288 38.724 171.252L231.432 126.432C231.522 126.414 231.618 126.432 231.684 126.492C231.756 126.546 231.798 126.636 231.798 126.726V141.336C231.798 141.474 231.702 141.594 231.564 141.63L38.856 186.45C38.856 186.45 38.808 186.456 38.79 186.456ZM39.09 171.786V185.778L231.198 141.096V127.104L39.09 171.786Z" fill="#153456"/>
<path d="M50.472 183.438L40.812 185.688L52.902 168.264L62.562 166.02L50.472 183.438Z" fill="#2196F3"/>
<path d="M40.8121 185.988C40.7161 185.988 40.6201 185.94 40.5661 185.856C40.4941 185.754 40.5001 185.616 40.5661 185.514L52.6561 168.09C52.6981 168.03 52.7641 167.988 52.8361 167.97L62.4961 165.726C62.6221 165.696 62.7421 165.75 62.8141 165.852C62.8861 165.954 62.8801 166.092 62.8141 166.194L50.7241 183.618C50.6821 183.678 50.6161 183.72 50.5441 183.738L40.8841 185.982C40.8841 185.982 40.8361 185.988 40.8181 185.988H40.8121ZM53.0821 168.528L41.5021 185.214L50.2921 183.168L61.8721 166.482L53.0821 168.528Z" fill="#153456"/>
<path d="M70.5481 178.77L60.8881 181.02L72.9781 163.596L82.6381 161.352L70.5481 178.77Z" fill="#2196F3"/>
<path d="M60.888 181.32C60.792 181.32 60.696 181.272 60.642 181.188C60.57 181.086 60.576 180.948 60.642 180.846L72.732 163.422C72.774 163.362 72.84 163.32 72.912 163.302L82.572 161.052C82.698 161.022 82.818 161.076 82.89 161.178C82.962 161.28 82.956 161.418 82.89 161.52L70.8 178.944C70.758 179.004 70.692 179.046 70.62 179.064L60.96 181.308C60.96 181.308 60.912 181.314 60.894 181.314L60.888 181.32ZM73.158 163.86L61.578 180.546L70.368 178.5L81.948 161.814L73.158 163.86Z" fill="#153456"/>
<path d="M90.624 174.102L80.964 176.346L93.054 158.928L102.714 156.678L90.624 174.102Z" fill="#2196F3"/>
<path d="M80.964 176.646C80.868 176.646 80.772 176.598 80.718 176.514C80.646 176.412 80.652 176.274 80.718 176.172L92.808 158.748C92.85 158.688 92.916 158.646 92.988 158.628L102.648 156.384C102.768 156.354 102.894 156.408 102.966 156.51C103.038 156.612 103.032 156.75 102.966 156.852L90.876 174.276C90.834 174.336 90.768 174.378 90.696 174.396L81.036 176.64C81.036 176.64 80.988 176.646 80.97 176.646H80.964ZM93.234 159.192L81.654 175.878L90.444 173.832L102.024 157.146L93.234 159.192Z" fill="#153456"/>
<path d="M110.7 169.434L101.04 171.678L113.13 154.26L122.784 152.01L110.7 169.434Z" fill="#2196F3"/>
<path d="M101.04 171.978C100.944 171.978 100.848 171.93 100.794 171.846C100.722 171.744 100.728 171.606 100.794 171.504L112.884 154.08C112.926 154.02 112.992 153.978 113.064 153.96L122.724 151.71C122.844 151.68 122.97 151.734 123.042 151.836C123.114 151.938 123.108 152.076 123.042 152.178L110.952 169.602C110.91 169.662 110.844 169.704 110.772 169.722L101.112 171.966C101.112 171.966 101.064 171.972 101.046 171.972L101.04 171.978ZM113.31 154.524L101.73 171.21L110.52 169.164L122.1 152.478L113.31 154.524Z" fill="#153456"/>
<path d="M130.77 164.766L121.116 167.01L133.2 149.586L142.86 147.342L130.77 164.766Z" fill="#2196F3"/>
<path d="M121.116 167.31C121.02 167.31 120.924 167.262 120.87 167.178C120.798 167.076 120.804 166.938 120.87 166.836L132.96 149.412C133.002 149.352 133.068 149.31 133.14 149.292L142.8 147.048C142.926 147.018 143.046 147.072 143.118 147.174C143.19 147.276 143.184 147.414 143.118 147.516L131.028 164.94C130.986 165 130.92 165.042 130.848 165.06L121.188 167.304C121.188 167.304 121.14 167.31 121.122 167.31H121.116ZM133.38 149.856L121.8 166.542L130.59 164.496L142.17 147.81L133.38 149.856Z" fill="#153456"/>
<path d="M150.846 160.092L141.186 162.342L153.276 144.918L162.936 142.674L150.846 160.092Z" fill="#2196F3"/>
<path d="M141.186 162.642C141.09 162.642 140.994 162.594 140.94 162.51C140.868 162.408 140.874 162.27 140.94 162.168L153.03 144.744C153.072 144.684 153.138 144.642 153.21 144.624L162.87 142.38C162.996 142.35 163.116 142.404 163.188 142.506C163.26 142.608 163.254 142.746 163.188 142.848L151.098 160.272C151.056 160.332 150.99 160.374 150.918 160.392L141.258 162.636C141.258 162.636 141.21 162.642 141.192 162.642H141.186ZM153.456 145.188L141.876 161.874L150.666 159.828L162.246 143.142L153.456 145.188Z" fill="#153456"/>
<path d="M170.922 155.424L161.262 157.674L173.352 140.25L183.012 138.006L170.922 155.424Z" fill="#2196F3"/>
<path d="M161.262 157.974C161.166 157.974 161.07 157.926 161.016 157.842C160.944 157.74 160.95 157.602 161.016 157.5L173.106 140.076C173.148 140.016 173.214 139.974 173.286 139.956L182.946 137.712C183.072 137.682 183.192 137.736 183.264 137.838C183.336 137.94 183.33 138.078 183.264 138.18L171.174 155.604C171.132 155.664 171.066 155.706 170.994 155.724L161.334 157.968C161.334 157.968 161.286 157.974 161.268 157.974H161.262ZM173.532 140.514L161.952 157.2L170.742 155.154L182.322 138.468L173.532 140.514Z" fill="#153456"/>
<path d="M190.998 150.756L181.338 153.006L193.428 135.582L203.088 133.338L190.998 150.756Z" fill="#2196F3"/>
<path d="M181.338 153.306C181.242 153.306 181.146 153.258 181.092 153.174C181.02 153.072 181.026 152.934 181.092 152.832L193.182 135.408C193.224 135.348 193.29 135.306 193.362 135.288L203.022 133.044C203.142 133.014 203.268 133.068 203.34 133.17C203.412 133.272 203.406 133.41 203.34 133.512L191.25 150.936C191.208 150.996 191.142 151.038 191.07 151.056L181.41 153.3C181.41 153.3 181.362 153.306 181.344 153.306H181.338ZM193.608 135.846L182.028 152.532L190.818 150.486L202.398 133.8L193.608 135.846Z" fill="#153456"/>
<path d="M211.074 146.088L201.414 148.332L213.504 130.914L223.164 128.664L211.074 146.088Z" fill="#2196F3"/>
<path d="M201.414 148.632C201.318 148.632 201.222 148.584 201.168 148.5C201.096 148.398 201.102 148.26 201.168 148.158L213.258 130.734C213.3 130.674 213.366 130.632 213.438 130.614L223.098 128.37C223.218 128.34 223.344 128.394 223.416 128.496C223.488 128.598 223.482 128.736 223.416 128.838L211.326 146.262C211.284 146.322 211.218 146.364 211.146 146.382L201.486 148.626C201.486 148.626 201.438 148.632 201.42 148.632H201.414ZM213.684 131.178L202.104 147.864L210.894 145.818L222.474 129.132L213.684 131.178Z" fill="#153456"/>
<path d="M38.79 141.336L231.498 186.156V171.546L38.79 126.726V141.336Z" fill="white"/>
<path d="M231.498 186.456C231.498 186.456 231.45 186.456 231.432 186.45L38.718 141.63C38.58 141.6 38.484 141.48 38.484 141.336V126.726C38.484 126.636 38.526 126.546 38.598 126.492C38.67 126.432 38.766 126.414 38.85 126.432L231.558 171.252C231.696 171.282 231.792 171.402 231.792 171.546V186.156C231.792 186.246 231.75 186.336 231.678 186.39C231.624 186.432 231.558 186.456 231.492 186.456H231.498ZM39.09 141.102L231.198 185.784V171.792L39.09 127.104V141.096V141.102Z" fill="#153456"/>
<path d="M219.816 183.438L229.476 185.688L217.386 168.264L207.726 166.02L219.816 183.438Z" fill="#2196F3"/>
<path d="M229.476 185.988C229.476 185.988 229.428 185.988 229.41 185.982L219.75 183.738C219.678 183.72 219.612 183.678 219.57 183.618L207.48 166.194C207.408 166.092 207.408 165.96 207.48 165.852C207.552 165.75 207.672 165.702 207.798 165.726L217.458 167.97C217.53 167.988 217.596 168.03 217.638 168.09L229.728 185.514C229.8 185.616 229.8 185.748 229.728 185.856C229.674 185.94 229.578 185.988 229.482 185.988H229.476ZM219.996 183.174L228.786 185.22L217.206 168.534L208.416 166.488L219.996 183.174Z" fill="#153456"/>
<path d="M199.74 178.77L209.4 181.02L197.31 163.596L187.65 161.352L199.74 178.77Z" fill="#2196F3"/>
<path d="M209.4 181.32C209.4 181.32 209.352 181.32 209.334 181.314L199.674 179.07C199.602 179.052 199.536 179.01 199.494 178.95L187.404 161.526C187.332 161.424 187.332 161.292 187.404 161.184C187.476 161.082 187.596 161.034 187.722 161.058L197.382 163.308C197.454 163.326 197.52 163.368 197.562 163.428L209.652 180.852C209.724 180.954 209.724 181.086 209.652 181.194C209.598 181.278 209.502 181.326 209.406 181.326L209.4 181.32ZM199.92 178.506L208.71 180.552L197.13 163.866L188.34 161.82L199.92 178.506Z" fill="#153456"/>
<path d="M179.664 174.102L189.324 176.346L177.234 158.928L167.574 156.678L179.664 174.102Z" fill="#2196F3"/>
<path d="M189.324 176.646C189.324 176.646 189.276 176.646 189.258 176.64L179.598 174.396C179.526 174.378 179.46 174.336 179.418 174.276L167.328 156.852C167.256 156.75 167.256 156.618 167.328 156.51C167.4 156.408 167.52 156.36 167.646 156.384L177.306 158.628C177.378 158.646 177.444 158.688 177.486 158.748L189.576 176.172C189.648 176.274 189.648 176.406 189.576 176.514C189.522 176.598 189.426 176.646 189.33 176.646H189.324ZM179.844 173.838L188.634 175.884L177.054 159.198L168.264 157.152L179.844 173.838Z" fill="#153456"/>
<path d="M159.588 169.434L169.248 171.678L157.158 154.26L147.498 152.01L159.588 169.434Z" fill="#2196F3"/>
<path d="M169.248 171.978C169.248 171.978 169.2 171.978 169.182 171.972L159.522 169.728C159.45 169.71 159.384 169.668 159.342 169.608L147.252 152.184C147.18 152.082 147.18 151.95 147.252 151.842C147.324 151.74 147.444 151.692 147.57 151.716L157.23 153.966C157.302 153.984 157.368 154.026 157.41 154.086L169.5 171.51C169.572 171.612 169.572 171.744 169.5 171.852C169.446 171.936 169.35 171.984 169.254 171.984L169.248 171.978ZM159.768 169.17L168.558 171.216L156.978 154.53L148.188 152.484L159.768 169.17Z" fill="#153456"/>
<path d="M139.512 164.766L149.172 167.01L137.082 149.586L127.422 147.342L139.512 164.766Z" fill="#2196F3"/>
<path d="M149.172 167.31C149.172 167.31 149.124 167.31 149.106 167.304L139.446 165.06C139.374 165.042 139.308 165 139.266 164.94L127.176 147.516C127.104 147.414 127.104 147.282 127.176 147.174C127.248 147.072 127.368 147.024 127.494 147.048L137.154 149.292C137.226 149.31 137.292 149.352 137.334 149.412L149.424 166.836C149.496 166.938 149.496 167.07 149.424 167.178C149.37 167.262 149.274 167.31 149.178 167.31H149.172ZM139.692 164.496L148.482 166.542L136.902 149.856L128.112 147.81L139.692 164.496Z" fill="#153456"/>
<path d="M119.436 160.092L129.096 162.342L117.012 144.918L107.352 142.674L119.436 160.092Z" fill="#2196F3"/>
<path d="M129.096 162.642C129.096 162.642 129.048 162.642 129.03 162.636L119.37 160.392C119.298 160.374 119.232 160.332 119.19 160.272L107.1 142.848C107.028 142.746 107.028 142.614 107.1 142.506C107.172 142.404 107.292 142.356 107.418 142.38L117.078 144.624C117.15 144.642 117.216 144.684 117.258 144.744L129.348 162.168C129.42 162.27 129.42 162.402 129.348 162.51C129.294 162.594 129.198 162.642 129.102 162.642H129.096ZM119.622 159.828L128.412 161.874L116.832 145.188L108.042 143.142L119.622 159.828Z" fill="#153456"/>
<path d="M99.366 155.424L109.026 157.674L96.936 140.25L87.276 138.006L99.366 155.424Z" fill="#2196F3"/>
<path d="M109.026 157.974C109.026 157.974 108.978 157.974 108.96 157.968L99.3001 155.724C99.2281 155.706 99.1621 155.664 99.1201 155.604L87.0301 138.18C86.9581 138.078 86.9581 137.946 87.0301 137.838C87.1021 137.736 87.2221 137.688 87.3481 137.712L97.0081 139.956C97.0801 139.974 97.1461 140.016 97.1881 140.076L109.278 157.5C109.35 157.602 109.35 157.734 109.278 157.842C109.224 157.926 109.128 157.974 109.032 157.974H109.026ZM99.5461 155.16L108.336 157.206L96.7561 140.52L87.9661 138.474L99.5461 155.16Z" fill="#153456"/>
<path d="M79.2899 150.756L88.95 153.006L76.86 135.582L67.2 133.338L79.2899 150.756Z" fill="#2196F3"/>
<path d="M88.95 153.306C88.95 153.306 88.902 153.306 88.884 153.3L79.224 151.056C79.152 151.038 79.086 150.996 79.044 150.936L66.954 133.512C66.882 133.41 66.882 133.278 66.954 133.17C67.026 133.068 67.146 133.02 67.272 133.044L76.932 135.288C77.004 135.306 77.07 135.348 77.112 135.408L89.202 152.832C89.274 152.934 89.274 153.066 89.202 153.174C89.148 153.258 89.052 153.306 88.956 153.306H88.95ZM79.47 150.492L88.26 152.538L76.68 135.852L67.89 133.806L79.47 150.492Z" fill="#153456"/>
<path d="M59.214 146.088L68.874 148.332L56.784 130.914L47.124 128.664L59.214 146.088Z" fill="#2196F3"/>
<path d="M68.874 148.632C68.874 148.632 68.826 148.632 68.808 148.626L59.148 146.382C59.076 146.364 59.01 146.322 58.968 146.262L46.878 128.838C46.806 128.736 46.806 128.604 46.878 128.496C46.95 128.394 47.07 128.346 47.196 128.37L56.856 130.614C56.928 130.632 56.994 130.674 57.036 130.734L69.126 148.158C69.198 148.26 69.198 148.392 69.126 148.5C69.072 148.584 68.976 148.632 68.88 148.632H68.874ZM59.394 145.824L68.184 147.87L56.604 131.184L47.814 129.138L59.394 145.824Z" fill="#153456"/>
<path d="M49.0981 190.038H74.7841V187.89H49.0981V190.038Z" fill="#153456"/>
<path d="M74.778 190.332H49.092C48.924 190.332 48.792 190.2 48.792 190.032V187.884C48.792 187.716 48.924 187.584 49.092 187.584H74.778C74.946 187.584 75.078 187.716 75.078 187.884V190.032C75.078 190.2 74.946 190.332 74.778 190.332ZM49.392 189.732H74.478V188.184H49.392V189.732Z" fill="#153456"/>
<path d="M53.6281 213.762H79.3141V211.614H53.6281V213.762Z" fill="#153456"/>
<path d="M79.314 214.068H53.628C53.46 214.068 53.328 213.936 53.328 213.768V211.62C53.328 211.452 53.46 211.32 53.628 211.32H79.314C79.482 211.32 79.614 211.452 79.614 211.62V213.768C79.614 213.936 79.482 214.068 79.314 214.068ZM53.928 213.468H79.014V211.92H53.928V213.468Z" fill="#153456"/>
<path d="M58.1641 237.498H83.8501V235.35H58.1641V237.498Z" fill="#153456"/>
<path d="M83.85 237.798H58.164C57.996 237.798 57.864 237.666 57.864 237.498V235.35C57.864 235.182 57.996 235.05 58.164 235.05H83.85C84.018 235.05 84.15 235.182 84.15 235.35V237.498C84.15 237.666 84.018 237.798 83.85 237.798ZM58.464 237.198H83.55V235.65H58.464V237.198Z" fill="#153456"/>
<path d="M59.988 247.998C60.048 247.998 60.108 247.998 60.168 247.98C60.654 247.884 60.972 247.41 60.876 246.924L44.508 165.108C44.412 164.622 43.932 164.304 43.452 164.4C42.966 164.496 42.648 164.97 42.744 165.456L59.112 247.272C59.196 247.698 59.574 247.998 59.994 247.998H59.988Z" fill="white"/>
<path d="M59.988 248.298C59.418 248.298 58.926 247.89 58.812 247.332L42.444 165.516C42.378 165.204 42.444 164.88 42.624 164.616C42.804 164.346 43.074 164.166 43.386 164.106C43.698 164.04 44.016 164.106 44.286 164.28C44.556 164.46 44.736 164.73 44.802 165.048L61.17 246.864C61.236 247.176 61.17 247.5 60.99 247.764C60.81 248.034 60.54 248.214 60.228 248.274C60.156 248.292 60.072 248.298 59.994 248.298H59.988ZM43.62 164.682C43.578 164.682 43.542 164.682 43.5 164.694C43.344 164.724 43.206 164.814 43.116 164.952C43.026 165.084 42.996 165.246 43.026 165.402L59.394 247.218C59.46 247.536 59.808 247.746 60.096 247.692C60.258 247.662 60.39 247.566 60.48 247.434C60.57 247.302 60.6 247.14 60.57 246.984L44.202 165.168C44.172 165.012 44.076 164.874 43.944 164.784C43.842 164.718 43.728 164.682 43.614 164.682H43.62Z" fill="#153456"/>
<path d="M86.4841 247.998C86.5441 247.998 86.6041 247.998 86.6641 247.98C87.1501 247.884 87.4681 247.41 87.3721 246.924L70.3501 163.29C70.2541 162.804 69.7741 162.486 69.2941 162.582C68.8081 162.678 68.4901 163.152 68.5861 163.638L85.6081 247.272C85.6921 247.698 86.0701 247.998 86.4901 247.998H86.4841Z" fill="white"/>
<path d="M86.484 248.298C85.914 248.298 85.422 247.89 85.308 247.332L68.286 163.698C68.22 163.386 68.286 163.062 68.466 162.798C68.646 162.528 68.916 162.348 69.228 162.288C69.54 162.222 69.858 162.288 70.128 162.462C70.398 162.642 70.578 162.912 70.644 163.23L87.666 246.864C87.732 247.176 87.666 247.5 87.486 247.764C87.306 248.034 87.036 248.214 86.724 248.274C86.652 248.292 86.568 248.298 86.49 248.298H86.484ZM69.468 162.864C69.426 162.864 69.39 162.864 69.348 162.876C69.192 162.906 69.054 162.996 68.964 163.134C68.874 163.266 68.844 163.428 68.874 163.584L85.896 247.218C85.95 247.5 86.196 247.704 86.484 247.704C86.526 247.704 86.562 247.704 86.598 247.692C86.76 247.662 86.892 247.566 86.982 247.434C87.072 247.302 87.102 247.14 87.072 246.984L70.05 163.35C70.02 163.194 69.924 163.056 69.792 162.966C69.69 162.9 69.576 162.864 69.462 162.864H69.468Z" fill="#153456"/>
<path d="M56.8081 187.884H31.1221V190.032H56.8081V187.884Z" fill="white"/>
<path d="M56.808 190.332H31.122C30.954 190.332 30.822 190.2 30.822 190.032V187.884C30.822 187.716 30.954 187.584 31.122 187.584H56.808C56.976 187.584 57.108 187.716 57.108 187.884V190.032C57.108 190.2 56.976 190.332 56.808 190.332ZM31.422 189.732H56.508V188.184H31.422V189.732Z" fill="#153456"/>
<path d="M52.2721 211.62H26.5861V213.768H52.2721V211.62Z" fill="white"/>
<path d="M52.272 214.068H26.586C26.418 214.068 26.286 213.936 26.286 213.768V211.62C26.286 211.452 26.418 211.32 26.586 211.32H52.272C52.44 211.32 52.572 211.452 52.572 211.62V213.768C52.572 213.936 52.44 214.068 52.272 214.068ZM26.886 213.468H51.972V211.92H26.886V213.468Z" fill="#153456"/>
<path d="M47.736 235.35H22.05V237.498H47.736V235.35Z" fill="white"/>
<path d="M47.736 237.798H22.05C21.882 237.798 21.75 237.666 21.75 237.498V235.35C21.75 235.182 21.882 235.05 22.05 235.05H47.736C47.904 235.05 48.036 235.182 48.036 235.35V237.498C48.036 237.666 47.904 237.798 47.736 237.798ZM22.35 237.198H47.436V235.65H22.35V237.198Z" fill="#153456"/>
<path d="M45.9121 247.998C45.8521 247.998 45.7921 247.998 45.7321 247.98C45.2461 247.884 44.9281 247.41 45.0241 246.924L61.3921 165.108C61.4881 164.622 61.9681 164.304 62.4481 164.4C62.9341 164.496 63.2521 164.97 63.1561 165.456L46.7881 247.272C46.7041 247.698 46.3261 247.998 45.9061 247.998H45.9121Z" fill="white"/>
<path d="M45.912 248.298C45.828 248.298 45.75 248.292 45.672 248.274C45.36 248.214 45.09 248.028 44.91 247.764C44.73 247.5 44.67 247.176 44.73 246.864L61.098 165.048C61.158 164.73 61.344 164.46 61.614 164.28C61.884 164.106 62.202 164.04 62.514 164.106C62.826 164.172 63.096 164.352 63.276 164.616C63.456 164.88 63.516 165.204 63.456 165.516L47.088 247.332C46.974 247.89 46.482 248.298 45.912 248.298ZM62.28 164.682C62.166 164.682 62.052 164.718 61.95 164.784C61.818 164.874 61.722 165.012 61.692 165.168L45.324 246.984C45.294 247.14 45.324 247.302 45.414 247.434C45.504 247.566 45.636 247.656 45.798 247.692C46.104 247.758 46.44 247.542 46.506 247.224L62.874 165.408C62.904 165.252 62.874 165.09 62.784 164.958C62.694 164.826 62.562 164.736 62.4 164.7C62.358 164.694 62.322 164.688 62.28 164.688V164.682Z" fill="#153456"/>
<path d="M19.4161 247.998C19.3561 247.998 19.2961 247.998 19.2361 247.98C18.7501 247.884 18.4321 247.41 18.5281 246.924L34.8961 165.108C34.9921 164.622 35.4721 164.304 35.9521 164.4C36.4381 164.496 36.7561 164.97 36.6601 165.456L20.2921 247.272C20.2081 247.698 19.8301 247.998 19.4101 247.998H19.4161Z" fill="white"/>
<path d="M19.416 248.298C19.332 248.298 19.254 248.292 19.176 248.274C18.864 248.214 18.594 248.028 18.414 247.764C18.234 247.5 18.174 247.176 18.234 246.864L34.602 165.048C34.662 164.73 34.848 164.46 35.118 164.28C35.388 164.106 35.7 164.04 36.018 164.106C36.33 164.166 36.6 164.352 36.78 164.616C36.96 164.88 37.02 165.204 36.96 165.516L20.592 247.332C20.478 247.89 19.986 248.298 19.416 248.298ZM35.778 164.682C35.664 164.682 35.5501 164.718 35.4481 164.784C35.3161 164.874 35.2201 165.012 35.1901 165.168L18.822 246.984C18.792 247.14 18.822 247.302 18.912 247.434C19.002 247.566 19.134 247.656 19.296 247.692C19.602 247.758 19.938 247.542 20.004 247.224L36.372 165.408C36.402 165.252 36.372 165.09 36.282 164.958C36.192 164.826 36.0601 164.736 35.8981 164.7C35.8561 164.694 35.82 164.688 35.778 164.688V164.682Z" fill="#153456"/>
<path d="M63.7921 165.282H33.9121L44.9701 161.658H73.7341L63.7921 165.282Z" fill="#2196F3"/>
<path d="M63.7921 165.582H33.9121C33.7621 165.582 33.6361 165.474 33.6181 165.33C33.5941 165.186 33.6781 165.042 33.8221 165L44.8741 161.376C44.9041 161.364 44.9341 161.358 44.9701 161.358H73.7401C73.8841 161.358 74.0101 161.46 74.0341 161.604C74.0581 161.748 73.9801 161.886 73.8421 161.94L63.9001 165.564C63.8701 165.576 63.8341 165.582 63.7981 165.582H63.7921ZM35.7901 164.982H63.7441L72.0421 161.958H45.0181L35.7901 164.982Z" fill="#153456"/>
<path d="M63.7921 163.47H33.9121L44.9701 159.84H73.7341L63.7921 163.47Z" fill="white"/>
<path d="M63.7921 163.77H33.9121C33.7621 163.77 33.6361 163.662 33.6181 163.518C33.5941 163.374 33.6781 163.23 33.8221 163.188L44.8741 159.558C44.9041 159.546 44.9341 159.54 44.9701 159.54H73.7401C73.8841 159.54 74.0101 159.642 74.0341 159.786C74.0581 159.93 73.9801 160.068 73.8421 160.122L63.9001 163.752C63.8701 163.764 63.8341 163.77 63.7981 163.77H63.7921ZM35.7901 163.17H63.7441L72.0421 160.14H45.0181L35.7901 163.17Z" fill="#153456"/>
<path d="M63.792 163.47V165.282L73.734 161.658V159.84L63.792 163.47Z" fill="#153456"/>
<path d="M63.7921 165.582C63.7321 165.582 63.6721 165.564 63.6181 165.528C63.5401 165.474 63.4921 165.378 63.4921 165.282V163.47C63.4921 163.344 63.5701 163.23 63.6901 163.188L73.6321 159.558C73.7221 159.522 73.8241 159.54 73.9081 159.594C73.9861 159.648 74.0341 159.744 74.0341 159.84V161.652C74.0341 161.778 73.9561 161.892 73.8361 161.934L63.8941 165.558C63.8581 165.57 63.8281 165.576 63.7921 165.576V165.582ZM64.0921 163.68V164.856L73.4341 161.448V160.272L64.0921 163.68Z" fill="#153456"/>
<path d="M37.608 87.816C35.466 86.496 34.692 83.904 34.692 83.904L42.996 82.374L45.564 85.878L40.68 88.884L37.608 87.81V87.816Z" fill="#153456"/>
<path d="M40.68 89.184C40.644 89.184 40.614 89.184 40.578 89.166L37.506 88.092C37.506 88.092 37.464 88.074 37.446 88.062C35.232 86.7 34.428 84.09 34.398 83.982C34.374 83.898 34.386 83.814 34.428 83.742C34.47 83.67 34.548 83.616 34.632 83.604L42.936 82.074C43.044 82.056 43.164 82.098 43.23 82.194L45.798 85.698C45.846 85.764 45.864 85.848 45.852 85.932C45.834 86.016 45.786 86.088 45.714 86.13L40.83 89.136C40.782 89.166 40.728 89.178 40.674 89.178L40.68 89.184ZM37.74 87.54L40.644 88.554L45.132 85.794L42.864 82.704L35.094 84.132C35.37 84.84 36.174 86.562 37.74 87.54Z" fill="#153456"/>
<path d="M67.056 98.262L58.104 101.406L56.718 97.902L83.898 87.582C84.48 87.36 84.894 86.832 84.96 86.214C85.128 84.642 85.47 81.738 85.728 81.252C86.082 80.58 89.838 78.96 90.708 78.918C91.308 78.888 93.708 79.416 95.136 79.74C95.7 79.866 96 80.478 95.766 81.006L95.25 82.152C95.064 82.566 94.608 82.782 94.17 82.656C92.976 82.314 90.756 81.69 90.354 81.6C89.802 81.48 88.218 84.642 88.14 85.116C88.062 85.59 89.208 88.434 89.484 88.908C89.76 89.382 93.552 88.986 93.552 88.986C93.552 88.986 95.118 85.53 95.472 85.488C95.826 85.446 97.644 85.728 97.92 86.04C98.196 86.352 96.396 90.996 96.12 91.434C95.844 91.872 91.26 92.46 90.192 92.502C89.124 92.544 86.436 90.948 85.926 91.026C85.416 91.104 72.768 96.216 72.768 96.216L67.062 98.25L67.056 98.262Z" fill="white"/>
<path d="M58.098 101.7C57.978 101.7 57.864 101.628 57.822 101.508L56.436 98.004C56.406 97.932 56.406 97.848 56.436 97.77C56.466 97.698 56.526 97.638 56.604 97.608L83.784 87.288C84.264 87.108 84.6 86.676 84.654 86.166C84.972 83.208 85.242 81.498 85.452 81.096C85.896 80.262 89.85 78.642 90.684 78.606C91.308 78.564 93.474 79.044 95.19 79.434C95.544 79.512 95.844 79.746 96.006 80.076C96.168 80.4 96.174 80.784 96.024 81.114L95.5079 82.26C95.2559 82.812 94.656 83.1 94.074 82.932C91.944 82.326 90.564 81.942 90.276 81.882C89.88 82.044 88.494 84.714 88.422 85.152C88.386 85.53 89.406 88.188 89.73 88.746C89.97 88.896 91.758 88.848 93.342 88.692C94.914 85.236 95.262 85.2 95.43 85.182C95.772 85.14 97.746 85.386 98.136 85.836C98.664 86.436 96.39 91.542 96.36 91.59C95.928 92.268 90.522 92.784 90.192 92.796C89.514 92.814 88.392 92.316 87.396 91.872C86.868 91.638 86.148 91.314 85.962 91.314C85.962 91.314 85.962 91.314 85.956 91.314C85.506 91.416 77.88 94.458 72.864 96.486L67.146 98.526L58.194 101.67C58.164 101.682 58.128 101.688 58.092 101.688L58.098 101.7ZM57.108 98.07L58.272 101.022L66.954 97.974L72.66 95.94C74.766 95.088 85.35 90.822 85.872 90.738C86.172 90.684 86.688 90.912 87.648 91.338C88.536 91.734 89.67 92.244 90.174 92.208C91.416 92.16 95.484 91.578 95.886 91.248C96.126 90.864 97.632 86.934 97.65 86.214C97.332 86.028 95.964 85.782 95.562 85.788C95.286 86.07 94.464 87.702 93.822 89.112C93.78 89.208 93.684 89.274 93.582 89.286C90.936 89.562 89.472 89.484 89.22 89.058C89.004 88.692 87.738 85.686 87.84 85.062C87.924 84.546 89.238 81.912 89.976 81.408C90.126 81.306 90.276 81.27 90.414 81.3C90.822 81.39 92.994 82.002 94.248 82.362C94.542 82.446 94.848 82.302 94.974 82.02L95.49 80.874C95.568 80.706 95.562 80.514 95.478 80.346C95.394 80.184 95.244 80.064 95.064 80.022C92.718 79.482 91.152 79.182 90.714 79.206C89.826 79.248 86.244 80.892 85.986 81.378C85.86 81.624 85.596 83.022 85.254 86.232C85.176 86.97 84.696 87.588 84 87.852L57.102 98.064L57.108 98.07Z" fill="#153456"/>
<path d="M72.84 99.582C74.736 96.936 75.924 94.992 74.7 94.482C71.814 93.294 70.548 93.93 71.502 94.836C72.456 95.742 72.768 96.222 72.768 96.222L67.062 98.256L66.762 100.254L71.466 101.952L72.852 99.582H72.84Z" fill="white"/>
<path d="M71.46 102.252C71.424 102.252 71.394 102.252 71.358 102.234L66.654 100.536C66.522 100.488 66.438 100.35 66.462 100.212L66.762 98.214C66.78 98.106 66.852 98.016 66.96 97.974L72.276 96.078C72.084 95.856 71.772 95.508 71.298 95.052C70.728 94.506 70.896 94.098 70.998 93.948C71.412 93.318 72.912 93.42 74.826 94.206C75.156 94.344 75.378 94.578 75.468 94.89C75.738 95.826 74.844 97.32 73.11 99.744L71.736 102.102C71.682 102.198 71.58 102.252 71.478 102.252H71.46ZM67.086 100.056L71.322 101.586L72.582 99.432C72.582 99.432 72.594 99.414 72.6 99.408C73.482 98.178 75.12 95.892 74.88 95.058C74.856 94.968 74.796 94.848 74.586 94.764C72.534 93.918 71.598 94.116 71.49 94.278C71.472 94.302 71.496 94.428 71.706 94.626C72.666 95.55 73.002 96.036 73.014 96.06C73.062 96.138 73.08 96.234 73.05 96.318C73.02 96.402 72.954 96.474 72.864 96.504L67.326 98.478L67.092 100.056H67.086Z" fill="#153456"/>
<path d="M32.352 92.682C32.352 92.682 27.798 93.996 25.476 101.784C23.154 109.572 24.348 115.338 29.664 115.44C34.98 115.542 32.352 92.682 32.352 92.682Z" fill="#2196F3"/>
<path d="M48.4739 75.534C49.3019 78.876 49.2419 81.66 49.2419 81.66C49.2419 81.66 50.5019 81.93 50.3039 82.746C50.1059 83.562 49.0259 83.472 49.0259 83.472C49.0259 83.472 50.3939 89.886 44.0039 88.842L44.0339 92.268C44.0339 92.268 40.2179 91.8 37.6499 92.172L37.6079 87.81C37.6079 87.81 42.5699 89.202 43.6199 84.87C43.6199 84.87 41.1899 83.298 42.1439 81.414C43.0979 79.536 44.8019 82.206 44.8019 82.206C44.8019 82.206 44.9999 78.192 45.7319 77.364C46.4639 76.536 47.7059 76.488 48.4799 75.528L48.4739 75.534Z" fill="white"/>
<path d="M44.04 92.574C44.04 92.574 44.016 92.574 44.004 92.574C43.968 92.574 40.194 92.112 37.698 92.478C37.614 92.49 37.524 92.466 37.458 92.406C37.392 92.352 37.356 92.268 37.356 92.178L37.314 87.816C37.314 87.72 37.356 87.63 37.434 87.576C37.512 87.522 37.608 87.498 37.698 87.528C37.722 87.534 40.02 88.158 41.7 87.174C42.468 86.724 43.002 85.992 43.284 85.008C42.366 84.336 41.088 82.86 41.886 81.294C42.156 80.76 42.516 80.484 42.954 80.46C43.56 80.436 44.16 80.946 44.562 81.402C44.664 80.142 44.922 77.85 45.51 77.184C45.894 76.746 46.398 76.512 46.884 76.284C47.4 76.038 47.886 75.81 48.246 75.36C48.318 75.27 48.438 75.228 48.546 75.258C48.66 75.282 48.744 75.366 48.774 75.48C49.476 78.306 49.548 80.712 49.554 81.45C49.83 81.54 50.262 81.738 50.49 82.092C50.628 82.314 50.67 82.566 50.61 82.83C50.454 83.478 49.866 83.718 49.392 83.778C49.506 84.624 49.65 86.796 48.36 88.158C47.478 89.082 46.116 89.43 44.322 89.208L44.352 92.286C44.352 92.37 44.316 92.454 44.25 92.514C44.196 92.562 44.124 92.592 44.052 92.592L44.04 92.574ZM40.05 91.734C41.598 91.734 43.08 91.872 43.734 91.938L43.704 88.848C43.704 88.758 43.74 88.674 43.806 88.62C43.872 88.56 43.962 88.536 44.052 88.554C45.822 88.842 47.118 88.566 47.91 87.732C49.296 86.274 48.738 83.568 48.732 83.538C48.714 83.448 48.732 83.346 48.798 83.28C48.858 83.208 48.948 83.172 49.05 83.178C49.086 83.178 49.878 83.238 50.01 82.68C50.034 82.572 50.022 82.488 49.968 82.404C49.806 82.146 49.332 81.996 49.176 81.96C49.038 81.93 48.936 81.804 48.942 81.66C48.942 81.636 48.984 79.164 48.306 76.134C47.94 76.44 47.532 76.632 47.13 76.818C46.68 77.028 46.254 77.232 45.948 77.574C45.468 78.12 45.168 80.718 45.096 82.23C45.096 82.362 45 82.47 44.874 82.506C44.748 82.536 44.616 82.488 44.544 82.38C44.208 81.852 43.482 81.042 42.972 81.06C42.762 81.072 42.57 81.24 42.408 81.564C41.586 83.178 43.758 84.612 43.782 84.63C43.89 84.702 43.938 84.828 43.908 84.954C43.602 86.208 42.96 87.132 41.988 87.696C40.506 88.566 38.688 88.35 37.908 88.2L37.944 91.848C38.61 91.77 39.336 91.74 40.05 91.74V91.734Z" fill="#153456"/>
<path d="M46.464 78.036C47.034 77.28 48.192 77.088 48.972 77.616C49.272 77.826 49.884 78.366 49.452 78.684C49.368 78.732 49.272 78.738 49.188 78.702C48.42 78.33 47.664 78.216 46.854 78.492C46.56 78.624 46.266 78.294 46.47 78.03L46.464 78.036Z" fill="#153456"/>
<path d="M48.3239 79.6259C48.2939 80.0339 48.0359 80.3459 47.7599 80.3219C47.4839 80.2979 47.2739 79.9559 47.3099 79.5479C47.3219 79.4279 47.3519 79.3139 47.3939 79.2119L47.8559 79.5119L47.6699 78.8999C47.7359 78.8639 47.7959 78.8519 47.8679 78.8579C48.1499 78.8819 48.3539 79.2239 48.3179 79.6319L48.3239 79.6259Z" fill="#153456"/>
<path d="M47.274 85.734C46.134 85.734 45.714 84.57 45.654 83.934C45.636 83.772 45.756 83.622 45.924 83.604C46.074 83.586 46.236 83.706 46.254 83.874C46.254 83.928 46.404 85.2 47.346 85.128C47.508 85.11 47.652 85.242 47.664 85.41C47.676 85.578 47.55 85.716 47.382 85.728C47.346 85.728 47.316 85.728 47.28 85.728L47.274 85.734Z" fill="#153456"/>
<path d="M28.536 125.322C25.578 124.542 25.782 118.47 26.898 110.682C28.014 102.894 28.716 94.602 32.358 92.682C36 90.762 48.438 90.054 52.89 92.682C57.342 95.31 63.714 103.404 63.714 103.404L65.778 100.146C66.132 99.582 66.792 99.294 67.446 99.414C68.976 99.702 71.73 100.476 73.434 102.504C73.89 103.044 73.932 103.824 73.548 104.418C71.94 106.938 67.386 113.88 65.322 115.038C62.796 116.454 55.716 111.096 55.716 111.096L56.118 123.336L28.53 125.334L28.536 125.322Z" fill="#2196F3"/>
<path d="M28.728 123.786C38.844 121.08 54.864 121.986 54.864 121.986C54.864 121.986 62.478 124.788 62.274 131.898C62.112 137.688 61.746 147.654 61.62 151.164C61.59 151.962 61.038 152.634 60.258 152.826C58.56 153.24 55.392 153.702 51.864 152.67C51.078 152.442 50.538 151.722 50.562 150.906L50.952 135.702L44.442 134.898C44.442 134.898 45.444 150.924 44.742 158.334C44.184 164.25 42.858 172.968 42.348 176.25C42.222 177.042 41.586 177.648 40.788 177.72C38.994 177.888 35.718 178.032 32.838 177.306C32.016 177.102 31.458 176.334 31.518 175.488C31.884 170.292 33.168 151.938 33.426 147.822C33.726 143.016 26.916 134.802 28.716 123.786H28.728Z" fill="white"/>
<path d="M37.9259 178.158C36.3359 178.158 34.4879 178.032 32.7779 177.6C31.8119 177.354 31.1639 176.46 31.2359 175.47C31.6199 170.004 32.8859 151.866 33.1439 147.804C33.2519 146.076 32.3639 143.79 31.3439 141.144C29.5439 136.5 27.2999 130.716 28.4459 123.738C28.4639 123.624 28.5479 123.528 28.6619 123.498C38.7059 120.81 54.7319 121.68 54.8939 121.686C54.9239 121.686 54.9539 121.692 54.9779 121.704C55.0559 121.734 62.7899 124.668 62.5859 131.91C62.4239 137.586 62.0759 147.276 61.9319 151.176C61.8959 152.1 61.2419 152.898 60.3419 153.114C58.7099 153.51 55.4339 154.02 51.7979 152.958C50.8799 152.688 50.2559 151.842 50.2799 150.9L50.6639 135.972L44.7839 135.246C44.9279 137.67 45.7019 151.638 45.0599 158.37C44.5019 164.256 43.1939 172.872 42.6599 176.304C42.5159 177.234 41.7659 177.942 40.8359 178.026C40.1039 178.092 39.0899 178.158 37.9379 178.158H37.9259ZM28.9919 124.026C27.9479 130.758 30.1319 136.392 31.8899 140.928C32.9399 143.64 33.8459 145.98 33.7319 147.84C33.4799 151.902 32.2079 170.046 31.8239 175.512C31.7759 176.214 32.2319 176.85 32.9159 177.018C35.7779 177.738 39.0659 177.582 40.7639 177.426C41.4179 177.366 41.9519 176.862 42.0539 176.208C42.5879 172.782 43.8959 164.178 44.4479 158.31C45.1379 151.008 44.1539 135.084 44.1479 134.922C44.1479 134.832 44.1779 134.748 44.2439 134.682C44.3099 134.616 44.3939 134.592 44.4839 134.604L50.9939 135.402C51.1439 135.42 51.2639 135.552 51.2579 135.708L50.8679 150.912C50.8499 151.584 51.2999 152.184 51.9539 152.376C55.4579 153.402 58.6199 152.91 60.1919 152.526C60.8459 152.364 61.3019 151.812 61.3259 151.146C61.4699 147.246 61.8179 137.556 61.9799 131.886C62.1659 125.34 55.3919 122.508 54.8039 122.274C53.8439 122.226 38.6879 121.488 28.9919 124.02V124.026Z" fill="#153456"/>
<path d="M44.454 135.204C44.454 135.204 44.43 135.204 44.418 135.204C42.906 135.018 39.732 133.68 38.868 131.304C38.814 131.148 38.892 130.974 39.048 130.92C39.204 130.866 39.378 130.944 39.432 131.1C40.206 133.236 43.11 134.442 44.496 134.61C44.658 134.628 44.778 134.778 44.754 134.946C44.736 135.096 44.604 135.21 44.454 135.21V135.204Z" fill="#153456"/>
<path d="M31.512 178.284L31.374 186.81C31.362 187.404 31.836 187.896 32.436 187.914L48.174 188.274C48.834 188.292 49.356 187.716 49.278 187.062L49.236 186.696C49.236 186.696 48.51 179.28 40.704 178.614C40.704 178.614 36.816 179.598 31.512 178.278V178.284Z" fill="#2196F3"/>
<path d="M49.02 186.828H49.014L31.566 186.426C31.398 186.426 31.272 186.282 31.272 186.12C31.272 185.952 31.404 185.826 31.578 185.826L49.026 186.228C49.194 186.228 49.32 186.372 49.32 186.534C49.32 186.696 49.182 186.828 49.02 186.828Z" fill="#153456"/>
<path d="M35.7839 186.528C35.6279 186.528 35.4959 186.402 35.4839 186.246C35.4779 186.102 35.25 182.736 31.428 182.454C31.26 182.442 31.1399 182.298 31.1519 182.13C31.1639 181.962 31.3079 181.836 31.4759 181.854C35.8319 182.178 36.084 186.174 36.09 186.21C36.096 186.378 35.97 186.516 35.808 186.522H35.79L35.7839 186.528Z" fill="#153456"/>
<path d="M40.4339 181.404C40.3499 181.404 40.2599 181.368 40.2059 181.296C40.0979 181.17 40.1159 180.978 40.2419 180.876L43.9379 177.798C44.0639 177.69 44.2559 177.708 44.3579 177.834C44.4659 177.96 44.4479 178.152 44.3219 178.254L40.6259 181.332C40.5719 181.38 40.4999 181.404 40.4339 181.404Z" fill="#153456"/>
<path d="M42.216 182.13C42.132 182.13 42.042 182.094 41.988 182.022C41.88 181.896 41.898 181.704 42.024 181.602L45.72 178.524C45.846 178.416 46.038 178.434 46.14 178.56C46.248 178.686 46.23 178.878 46.104 178.98L42.408 182.058C42.354 182.106 42.282 182.13 42.216 182.13Z" fill="#153456"/>
<path d="M50.994 155.772L50.736 160.116C50.706 160.608 51 161.064 51.468 161.238L52.584 161.652C54.798 162.48 57.228 162.54 59.484 161.826L67.506 159.288C69.066 158.562 69.828 156.78 69.282 155.148C68.874 153.936 67.818 153.054 66.546 152.874L62.376 152.286C61.956 152.226 61.542 152.43 61.332 152.796C60.6 154.074 58.248 156.738 51.936 155.088C51.48 154.968 51.024 155.292 50.994 155.76V155.772Z" fill="#2196F3"/>
<path d="M56.016 161.22C53.43 161.22 51.606 160.11 51.528 160.062C51.39 159.972 51.342 159.792 51.432 159.648C51.522 159.504 51.702 159.462 51.846 159.552C51.864 159.564 53.79 160.734 56.424 160.614C59.1 160.488 68.58 157.194 68.676 157.164C68.832 157.11 69.006 157.194 69.06 157.35C69.114 157.506 69.03 157.68 68.874 157.734C68.484 157.872 59.22 161.082 56.454 161.214C56.31 161.22 56.166 161.226 56.022 161.226L56.016 161.22Z" fill="#153456"/>
<path d="M54.6179 161.106C54.4499 161.106 54.3179 160.974 54.3179 160.806C54.3179 160.02 54.0959 158.37 53.4239 158.262C53.2979 158.244 53.2019 158.262 53.1059 158.346C52.7459 158.646 52.5899 159.588 52.5719 160.116C52.5719 160.284 52.4399 160.41 52.2659 160.41C52.0979 160.41 51.9719 160.266 51.9719 160.104C51.9719 159.936 52.0379 158.46 52.7219 157.89C52.9499 157.704 53.2199 157.626 53.5199 157.674C54.8699 157.896 54.9179 160.512 54.9179 160.812C54.9179 160.98 54.7859 161.112 54.6179 161.112V161.106Z" fill="#153456"/>
<path d="M63.498 154.224C63.354 154.224 63.2279 154.122 63.2039 153.978L62.7 151.26C62.67 151.098 62.778 150.942 62.94 150.912C63.108 150.882 63.258 150.99 63.288 151.152L63.792 153.87C63.822 154.032 63.714 154.188 63.552 154.218C63.534 154.218 63.516 154.218 63.498 154.218V154.224Z" fill="#153456"/>
<path d="M65.052 154.29C64.908 154.29 64.782 154.188 64.758 154.044L64.254 151.326C64.224 151.164 64.332 151.008 64.494 150.978C64.656 150.948 64.812 151.056 64.842 151.218L65.346 153.936C65.376 154.098 65.268 154.254 65.106 154.284C65.088 154.284 65.07 154.284 65.052 154.284V154.29Z" fill="#153456"/>
<path d="M54.3 110.784C54.24 110.784 54.174 110.766 54.12 110.724C53.916 110.574 49.146 106.95 49.17 103.098C49.17 102.936 49.308 102.798 49.47 102.798C49.638 102.798 49.77 102.936 49.77 103.098C49.746 106.644 54.432 110.202 54.48 110.238C54.612 110.34 54.642 110.526 54.54 110.658C54.48 110.736 54.39 110.778 54.3 110.778V110.784Z" fill="#153456"/>
<path d="M26.4899 114.108C26.4899 114.108 26.4659 114.108 26.4539 114.108C26.2919 114.09 26.1719 113.94 26.1959 113.772C27.1019 106.422 29.3519 96.258 29.3759 96.156C29.4119 95.994 29.5739 95.892 29.7359 95.928C29.8979 95.964 29.9999 96.126 29.9639 96.288C29.9399 96.39 27.6959 106.524 26.7899 113.844C26.7719 113.994 26.6399 114.108 26.4899 114.108Z" fill="#153456"/>
<path d="M69.696 91.8899C68.73 91.1579 67.29 91.506 66.702 92.514C66.114 93.522 65.262 94.9559 65.922 95.1899C66.582 95.4239 68.184 94.014 68.184 94.014L69.69 91.8899H69.696Z" fill="white"/>
<path d="M66.0839 95.514C65.9939 95.514 65.9039 95.502 65.8259 95.472C65.6339 95.406 65.5019 95.274 65.4359 95.088C65.2259 94.512 65.7419 93.564 66.4379 92.376C66.7859 91.788 67.3679 91.38 68.0459 91.248C68.6999 91.116 69.3719 91.266 69.8819 91.65C70.0139 91.746 70.0379 91.932 69.9479 92.064L68.4419 94.188C68.4419 94.188 68.4119 94.224 68.3939 94.236C68.0279 94.56 66.8759 95.514 66.0899 95.514H66.0839ZM68.5199 91.8C68.3999 91.8 68.2799 91.812 68.1599 91.836C67.6499 91.938 67.2119 92.238 66.9599 92.664C66.5999 93.282 65.8679 94.53 65.9939 94.884C66.3119 95.016 67.2539 94.428 67.9619 93.81L69.2639 91.974C69.0359 91.86 68.7779 91.8 68.5139 91.8H68.5199Z" fill="#153456"/>
<path d="M71.2319 91.356C70.2659 90.624 68.8259 90.972 68.2379 91.98C67.6499 92.988 66.7979 94.422 67.4579 94.656C68.1179 94.89 69.7199 93.48 69.7199 93.48L71.2259 91.356H71.2319Z" fill="white"/>
<path d="M67.6199 94.98C67.5299 94.98 67.4399 94.968 67.3619 94.938C67.1699 94.872 67.0379 94.74 66.9719 94.554C66.7619 93.978 67.2779 93.03 67.9739 91.842C68.3159 91.254 68.8979 90.852 69.5819 90.714C70.2359 90.582 70.9079 90.732 71.4179 91.116C71.5499 91.212 71.5739 91.398 71.4839 91.53L69.9779 93.654C69.9779 93.654 69.9479 93.69 69.9299 93.702C69.5639 94.026 68.4119 94.98 67.6259 94.98H67.6199ZM70.0559 91.266C69.9359 91.266 69.8159 91.278 69.6959 91.302C69.1859 91.404 68.7479 91.704 68.4959 92.13C68.1359 92.748 67.4039 93.996 67.5299 94.35C67.8479 94.476 68.7899 93.894 69.4979 93.276L70.7999 91.44C70.5719 91.326 70.3139 91.266 70.0499 91.266H70.0559Z" fill="#153456"/>
<path d="M72.954 90.648C71.988 89.916 70.548 90.264 69.96 91.272C69.372 92.28 68.52 93.714 69.18 93.948C69.84 94.182 71.442 92.772 71.442 92.772L72.948 90.648H72.954Z" fill="white"/>
<path d="M69.342 94.272C69.252 94.272 69.162 94.26 69.084 94.23C68.892 94.164 68.76 94.032 68.694 93.846C68.484 93.27 69 92.322 69.696 91.134C70.038 90.546 70.62 90.144 71.304 90.006C71.958 89.874 72.63 90.024 73.14 90.408C73.272 90.504 73.296 90.69 73.206 90.822L71.7 92.946C71.7 92.946 71.67 92.982 71.652 92.994C71.286 93.318 70.134 94.272 69.348 94.272H69.342ZM71.778 90.558C71.658 90.558 71.538 90.57 71.418 90.594C70.908 90.696 70.47 90.996 70.218 91.422C69.858 92.04 69.126 93.288 69.252 93.642C69.576 93.774 70.512 93.186 71.22 92.568L72.522 90.732C72.294 90.618 72.036 90.558 71.772 90.558H71.778Z" fill="#153456"/>
<path d="M74.4299 91.134C74.4299 91.134 74.5499 89.562 73.3439 89.586C72.1379 89.61 69.8939 93.036 71.2319 93.33C72.5699 93.624 73.1579 91.566 73.1579 91.566L74.4299 91.134Z" fill="white"/>
<path d="M71.502 93.66C71.394 93.66 71.286 93.648 71.166 93.624C70.716 93.522 70.476 93.15 70.524 92.622C70.644 91.404 72.258 89.316 73.332 89.292C73.716 89.292 74.046 89.412 74.28 89.664C74.79 90.198 74.724 91.122 74.724 91.164C74.712 91.284 74.634 91.386 74.52 91.428L73.392 91.812C73.224 92.286 72.642 93.672 71.496 93.672L71.502 93.66ZM73.38 89.886C73.38 89.886 73.362 89.886 73.356 89.886C72.642 89.904 71.226 91.674 71.13 92.676C71.1 92.994 71.226 93.018 71.304 93.036C72.354 93.27 72.87 91.5 72.876 91.482C72.9 91.386 72.978 91.314 73.068 91.278L74.136 90.912C74.124 90.66 74.064 90.276 73.854 90.06C73.734 89.94 73.578 89.88 73.38 89.88V89.886Z" fill="#153456"/>
<path d="M49.218 76.2899C46.014 76.5359 44.736 77.6579 44.886 80.9219C44.982 83.0219 44.67 84.0239 43.668 84.8039C42.666 85.5839 40.2 85.7399 36.552 85.8719C32.904 86.0039 32.148 84.6779 32.148 84.6779C32.148 84.6779 26.988 78.8459 31.554 72.2039C36.12 65.5619 45.24 65.7839 49.074 68.5619C51.402 70.2479 51.774 72.6119 51.684 74.2619C51.624 75.3599 50.724 76.2239 49.626 76.2719L49.218 76.2899Z" fill="#2196F3"/>
<path d="M36.072 86.184C32.946 86.184 32.052 85.068 31.908 84.864C31.59 84.486 26.79 78.606 31.308 72.042C33.822 68.388 37.374 67.098 39.918 66.66C43.368 66.06 47.034 66.72 49.254 68.328C51.684 70.086 52.08 72.54 51.984 74.286C51.918 75.54 50.91 76.524 49.644 76.578L49.242 76.596C46.074 76.842 45.054 77.928 45.192 80.916C45.294 83.124 44.94 84.204 43.854 85.05C42.762 85.902 40.26 86.052 36.57 86.178C36.402 86.178 36.234 86.184 36.078 86.184H36.072ZM42.48 67.032C41.664 67.032 40.836 67.098 40.014 67.242C37.59 67.662 34.194 68.892 31.8 72.372C27.426 78.738 32.172 84.246 32.376 84.48C32.388 84.498 32.4 84.51 32.412 84.528C32.412 84.534 33.192 85.686 36.546 85.572C39.9 85.452 42.54 85.308 43.488 84.57C44.406 83.856 44.682 82.938 44.592 80.934C44.442 77.64 45.732 76.254 49.2 75.99C49.2 75.99 49.206 75.99 49.212 75.99L49.62 75.972C50.58 75.93 51.336 75.186 51.39 74.244C51.474 72.642 51.114 70.398 48.906 68.802C47.328 67.662 44.964 67.032 42.486 67.032H42.48Z" fill="#153456"/>
<path d="M238.782 189.648L244.908 237.846C245.01 238.56 244.686 239.268 244.08 239.652C242.244 240.81 240.054 241.26 237.912 240.918L235.854 240.588C235.092 240.468 234.492 239.874 234.348 239.118L227.652 202.578L222.228 238.08C222.072 239.094 221.274 239.892 220.254 240.042L219.18 240.198C216.642 240.564 214.05 240.264 211.662 239.316C210.678 238.926 210.084 237.93 210.204 236.88L215.592 189.66H238.782V189.648Z" fill="white"/>
<path d="M239.328 241.332C238.842 241.332 238.35 241.296 237.864 241.212L235.806 240.882C234.918 240.738 234.216 240.054 234.054 239.166L227.682 204.378L222.528 238.11C222.354 239.262 221.454 240.156 220.302 240.324L219.228 240.48C216.636 240.852 213.984 240.546 211.554 239.58C210.45 239.142 209.772 238.014 209.904 236.832L215.292 189.612C215.31 189.462 215.436 189.348 215.592 189.348H238.782C238.932 189.348 239.058 189.462 239.082 189.612L245.208 237.81C245.328 238.632 244.95 239.46 244.242 239.91C242.76 240.846 241.062 241.332 239.328 241.332ZM227.652 202.272C227.796 202.272 227.922 202.374 227.946 202.518L234.642 239.058C234.756 239.694 235.26 240.186 235.896 240.288L237.954 240.618C240.024 240.954 242.142 240.516 243.912 239.394C244.422 239.07 244.692 238.482 244.608 237.882L238.518 189.936H215.856L210.498 236.892C210.396 237.804 210.918 238.68 211.77 239.016C214.104 239.94 216.648 240.24 219.132 239.88L220.206 239.724C221.1 239.592 221.79 238.908 221.928 238.014L227.352 202.512C227.376 202.368 227.496 202.26 227.646 202.26L227.652 202.272Z" fill="#153456"/>
<path d="M226.17 157.314C237.036 157.116 242.616 160.08 243.414 171.9C244.212 183.726 212.016 175.578 212.016 175.578C212.016 175.578 209.424 159.204 226.17 157.314Z" fill="#2196F3"/>
<path d="M239.724 173.658C239.586 173.658 239.46 173.562 239.43 173.418C239.412 173.34 237.72 165.432 236.058 161.73C235.992 161.58 236.058 161.4 236.208 161.334C236.358 161.262 236.538 161.334 236.604 161.484C238.29 165.246 239.946 172.968 240.012 173.298C240.048 173.46 239.94 173.622 239.778 173.652C239.76 173.652 239.736 173.658 239.718 173.658H239.724Z" fill="#153456"/>
<path d="M216.702 174.36C216.54 174.36 216.408 174.234 216.402 174.072C216.402 174.012 216.222 167.772 218.22 162.786C218.28 162.63 218.454 162.558 218.61 162.618C218.766 162.678 218.838 162.852 218.778 163.008C216.834 167.874 217.002 173.988 217.008 174.054C217.008 174.222 216.882 174.36 216.72 174.366H216.708L216.702 174.36Z" fill="#153456"/>
<path d="M228.012 171.588V198.132L249.36 189.168L252.858 161.61L228.012 171.588Z" fill="white"/>
<path d="M228.012 198.432C227.952 198.432 227.898 198.414 227.844 198.384C227.76 198.33 227.712 198.234 227.712 198.132V171.588C227.712 171.468 227.784 171.354 227.898 171.312L252.744 161.334C252.846 161.292 252.954 161.31 253.038 161.376C253.122 161.442 253.164 161.544 253.152 161.652L249.654 189.21C249.642 189.318 249.57 189.408 249.474 189.45L228.126 198.414C228.09 198.432 228.048 198.438 228.012 198.438V198.432ZM228.312 171.792V197.682L249.084 188.964L252.498 162.084L228.318 171.798L228.312 171.792Z" fill="#153456"/>
<path d="M250.53 182.262C248.952 181.878 246.414 179.766 246.876 178.908C247.338 178.05 248.028 178.38 248.028 178.38C248.028 178.38 246.84 177.192 247.302 176.598C247.764 176.004 248.676 176.37 248.676 176.37C248.676 176.37 247.866 175.218 248.394 174.456C248.922 173.694 249.876 174.456 249.876 174.456C249.876 174.456 248.922 172.152 249.906 171.918C250.89 171.684 253.296 173.436 253.23 175.446C253.164 177.456 252.666 182.61 250.53 182.256V182.262Z" fill="white"/>
<path d="M250.74 182.58C250.656 182.58 250.572 182.574 250.482 182.556C250.476 182.556 250.464 182.556 250.458 182.556C249.084 182.22 247.116 180.726 246.636 179.646C246.486 179.31 246.474 179.016 246.606 178.77C246.822 178.368 247.098 178.164 247.362 178.074C247.014 177.6 246.672 176.922 247.062 176.418C247.356 176.04 247.776 175.956 248.112 175.962C247.914 175.494 247.764 174.828 248.142 174.288C248.322 174.03 248.562 173.874 248.844 173.832C249.018 173.808 249.192 173.826 249.348 173.868C249.186 173.298 249.042 172.53 249.288 172.056C249.402 171.834 249.594 171.684 249.834 171.63C250.38 171.504 251.184 171.81 251.94 172.428C252.966 173.268 253.56 174.402 253.53 175.452C253.5 176.352 253.284 180.912 251.7 182.208C251.406 182.448 251.082 182.568 250.734 182.568L250.74 182.58ZM250.59 181.968C250.854 182.01 251.094 181.938 251.322 181.752C252.468 180.81 252.87 177.342 252.93 175.44C252.96 174.57 252.444 173.622 251.562 172.896C250.908 172.356 250.272 172.146 249.972 172.218C249.9 172.236 249.858 172.266 249.822 172.338C249.63 172.716 249.894 173.742 250.146 174.348C250.2 174.474 250.158 174.618 250.05 174.702C249.942 174.786 249.792 174.786 249.684 174.702C249.57 174.612 249.21 174.396 248.934 174.432C248.814 174.45 248.718 174.516 248.634 174.636C248.304 175.116 248.724 175.932 248.916 176.202C248.994 176.31 248.988 176.454 248.904 176.562C248.826 176.664 248.682 176.706 248.556 176.658C248.55 176.658 247.848 176.388 247.53 176.796C247.338 177.042 247.824 177.768 248.232 178.176C248.334 178.278 248.352 178.44 248.262 178.56C248.178 178.68 248.022 178.722 247.89 178.656C247.818 178.626 247.434 178.494 247.128 179.058C247.092 179.13 247.11 179.25 247.176 179.406C247.578 180.312 249.39 181.674 250.578 181.974L250.59 181.968Z" fill="#153456"/>
<path d="M251.358 180.954C251.274 180.954 251.19 180.918 251.13 180.846C250.134 179.664 247.932 178.662 247.908 178.65C247.758 178.584 247.692 178.404 247.758 178.254C247.824 178.104 248.004 178.032 248.154 178.104C248.25 178.146 250.5 179.166 251.586 180.456C251.694 180.582 251.676 180.774 251.55 180.882C251.496 180.93 251.424 180.954 251.358 180.954Z" fill="#153456"/>
<path d="M251.754 179.106C251.664 179.106 251.58 179.07 251.52 178.992C251.514 178.986 250.824 178.152 248.508 176.616C248.37 176.526 248.334 176.34 248.424 176.202C248.514 176.064 248.706 176.028 248.838 176.118C251.25 177.72 251.958 178.584 251.982 178.62C252.084 178.746 252.066 178.938 251.934 179.04C251.88 179.082 251.814 179.106 251.748 179.106H251.754Z" fill="#153456"/>
<path d="M252.15 177C252.036 177 251.934 176.94 251.88 176.832C251.88 176.826 251.442 175.98 249.702 174.702C249.57 174.606 249.54 174.414 249.636 174.282C249.732 174.15 249.924 174.12 250.056 174.216C251.94 175.596 252.402 176.532 252.42 176.568C252.492 176.718 252.432 176.898 252.282 176.97C252.24 176.988 252.198 177 252.15 177Z" fill="#153456"/>
<path d="M228.012 171.588V198.132L206.664 189.168L203.166 161.61L228.012 171.588Z" fill="white"/>
<path d="M228.012 198.432C227.97 198.432 227.934 198.426 227.898 198.408L206.55 189.444C206.448 189.402 206.382 189.312 206.37 189.204L202.872 161.646C202.86 161.538 202.902 161.436 202.986 161.37C203.07 161.304 203.184 161.292 203.28 161.328L228.126 171.306C228.24 171.354 228.312 171.462 228.312 171.582V198.126C228.312 198.228 228.264 198.318 228.18 198.378C228.132 198.414 228.072 198.426 228.012 198.426V198.432ZM206.94 188.958L227.712 197.676V171.786L203.532 162.072L206.94 188.952V188.958Z" fill="#153456"/>
<path d="M205.494 182.262C207.072 181.878 209.61 179.766 209.148 178.908C208.686 178.05 207.996 178.38 207.996 178.38C207.996 178.38 209.184 177.192 208.722 176.598C208.26 176.004 207.348 176.37 207.348 176.37C207.348 176.37 208.158 175.218 207.63 174.456C207.102 173.694 206.148 174.456 206.148 174.456C206.148 174.456 207.102 172.152 206.118 171.918C205.134 171.684 202.728 173.436 202.794 175.446C202.86 177.456 203.358 182.61 205.494 182.256V182.262Z" fill="white"/>
<path d="M205.284 182.58C204.936 182.58 204.612 182.46 204.318 182.22C202.74 180.924 202.518 176.364 202.488 175.464C202.458 174.408 203.046 173.28 204.078 172.44C204.834 171.822 205.644 171.51 206.184 171.642C206.43 171.696 206.616 171.846 206.73 172.068C206.97 172.542 206.832 173.31 206.67 173.88C206.826 173.838 207 173.82 207.174 173.844C207.456 173.886 207.702 174.042 207.876 174.3C208.254 174.84 208.098 175.506 207.906 175.974C208.242 175.974 208.662 176.052 208.956 176.43C209.34 176.922 208.992 177.612 208.65 178.08C208.92 178.164 209.196 178.374 209.412 178.776C209.544 179.022 209.532 179.316 209.382 179.652C208.902 180.726 206.94 182.226 205.56 182.562C205.554 182.562 205.542 182.562 205.536 182.562C205.452 182.574 205.362 182.586 205.278 182.586L205.284 182.58ZM205.926 172.2C205.596 172.2 205.032 172.422 204.456 172.896C203.574 173.622 203.058 174.57 203.088 175.44C203.148 177.342 203.556 180.816 204.696 181.752C204.924 181.938 205.164 182.01 205.428 181.968C206.616 181.668 208.428 180.306 208.83 179.4C208.902 179.244 208.914 179.124 208.878 179.052C208.572 178.488 208.188 178.62 208.116 178.656C207.984 178.716 207.828 178.668 207.744 178.554C207.666 178.434 207.678 178.278 207.78 178.176C208.2 177.756 208.674 177.042 208.482 176.79C208.164 176.382 207.462 176.652 207.456 176.652C207.33 176.7 207.192 176.664 207.108 176.556C207.024 176.454 207.024 176.304 207.096 176.196C207.288 175.92 207.714 175.104 207.378 174.63C207.294 174.51 207.198 174.444 207.078 174.426C206.796 174.384 206.442 174.606 206.328 174.696C206.22 174.78 206.07 174.78 205.962 174.696C205.854 174.612 205.812 174.468 205.866 174.342C206.118 173.736 206.388 172.704 206.19 172.332C206.154 172.266 206.112 172.23 206.04 172.212C206.004 172.206 205.962 172.2 205.92 172.2H205.926Z" fill="#153456"/>
<path d="M204.666 180.954C204.6 180.954 204.528 180.93 204.474 180.882C204.348 180.774 204.33 180.588 204.438 180.456C205.524 179.166 207.78 178.146 207.87 178.104C208.02 178.032 208.2 178.104 208.266 178.254C208.332 178.404 208.266 178.584 208.116 178.65C208.092 178.662 205.89 179.658 204.894 180.846C204.834 180.918 204.75 180.954 204.666 180.954Z" fill="#153456"/>
<path d="M204.27 179.106C204.204 179.106 204.138 179.082 204.084 179.04C203.958 178.938 203.934 178.746 204.036 178.62C204.066 178.584 204.768 177.72 207.18 176.118C207.318 176.028 207.504 176.064 207.594 176.202C207.684 176.34 207.648 176.526 207.51 176.616C205.194 178.152 204.51 178.986 204.498 178.992C204.438 179.064 204.354 179.106 204.264 179.106H204.27Z" fill="#153456"/>
<path d="M203.874 177C203.832 177 203.784 176.988 203.742 176.97C203.592 176.898 203.532 176.718 203.604 176.574C203.622 176.532 204.084 175.602 205.974 174.222C206.106 174.126 206.298 174.15 206.394 174.288C206.49 174.42 206.466 174.612 206.328 174.708C204.588 175.98 204.15 176.832 204.144 176.838C204.09 176.94 203.982 177.006 203.874 177.006V177Z" fill="#153456"/>
<path d="M221.526 241.734C219.564 244.092 212.748 243.162 211.368 240.756C211.368 240.756 206.514 246.726 205.758 249.798C205.002 252.87 209.364 256.572 214.668 252.426C218.814 249.186 220.974 246.786 221.712 245.898C221.904 245.664 221.994 245.364 221.958 245.064L221.526 241.734Z" fill="#2196F3"/>
<path d="M209.382 252.702C207.648 252.702 206.67 252.216 206.13 251.76C206.004 251.652 205.986 251.466 206.094 251.34C206.202 251.214 206.394 251.202 206.514 251.304C206.976 251.7 208.116 252.318 210.576 252.03C214.518 251.574 219.6 245.688 221.064 243.894C221.172 243.768 221.358 243.75 221.484 243.852C221.61 243.954 221.634 244.146 221.526 244.272C219.606 246.624 214.698 252.156 210.642 252.624C210.18 252.678 209.754 252.702 209.37 252.702H209.382Z" fill="#153456"/>
<path d="M220.026 245.886C219.936 245.886 219.846 245.844 219.786 245.772C219.084 244.866 219.216 243.534 219.222 243.48C219.24 243.312 219.39 243.192 219.552 243.21C219.714 243.228 219.834 243.372 219.822 243.54C219.822 243.552 219.714 244.692 220.266 245.406C220.368 245.538 220.344 245.724 220.212 245.826C220.158 245.868 220.092 245.886 220.026 245.886Z" fill="#153456"/>
<path d="M213.66 245.172C213.606 245.172 213.546 245.154 213.498 245.124C211.23 243.642 207.912 243.42 207.876 243.42C207.708 243.408 207.582 243.27 207.594 243.102C207.606 242.934 207.75 242.802 207.912 242.82C208.056 242.826 211.422 243.06 213.822 244.62C213.96 244.71 214.002 244.896 213.912 245.034C213.852 245.124 213.756 245.172 213.66 245.172Z" fill="#153456"/>
<path d="M212.358 246.924C212.304 246.924 212.244 246.906 212.196 246.876C209.928 245.4 206.61 245.172 206.574 245.172C206.406 245.16 206.28 245.022 206.292 244.854C206.304 244.686 206.43 244.554 206.61 244.572C206.754 244.578 210.12 244.812 212.52 246.372C212.658 246.462 212.7 246.648 212.61 246.786C212.55 246.876 212.454 246.924 212.358 246.924Z" fill="#153456"/>
<path d="M235.974 241.734C237.936 244.092 244.752 243.162 246.132 240.756C246.132 240.756 250.986 246.726 251.742 249.798C252.498 252.87 248.136 256.572 242.832 252.426C238.686 249.186 236.526 246.786 235.788 245.898C235.596 245.664 235.506 245.364 235.542 245.064L235.974 241.734Z" fill="#2196F3"/>
<path d="M248.118 252.702C247.734 252.702 247.308 252.678 246.846 252.624C242.796 252.156 237.888 246.63 235.962 244.272C235.86 244.146 235.878 243.954 236.004 243.852C236.13 243.75 236.322 243.768 236.424 243.894C237.888 245.688 242.97 251.574 246.912 252.03C249.372 252.318 250.518 251.7 250.974 251.304C251.1 251.196 251.292 251.208 251.394 251.34C251.502 251.466 251.484 251.658 251.358 251.76C250.824 252.216 249.846 252.702 248.106 252.702H248.118Z" fill="#153456"/>
<path d="M237.474 245.886C237.408 245.886 237.348 245.868 237.288 245.826C237.156 245.724 237.132 245.538 237.234 245.406C237.786 244.692 237.678 243.552 237.678 243.54C237.66 243.378 237.78 243.228 237.948 243.21C238.11 243.186 238.26 243.312 238.278 243.48C238.278 243.534 238.41 244.866 237.714 245.772C237.654 245.85 237.564 245.886 237.474 245.886Z" fill="#153456"/>
<path d="M243.84 245.172C243.744 245.172 243.648 245.124 243.588 245.034C243.498 244.896 243.54 244.71 243.678 244.62C246.078 243.054 249.444 242.826 249.588 242.82C249.744 242.802 249.894 242.934 249.906 243.102C249.918 243.27 249.792 243.408 249.624 243.42C249.594 243.42 246.27 243.648 244.002 245.124C243.954 245.154 243.894 245.172 243.84 245.172Z" fill="#153456"/>
<path d="M245.142 246.924C245.046 246.924 244.95 246.876 244.89 246.786C244.8 246.648 244.842 246.462 244.98 246.372C247.38 244.806 250.746 244.578 250.89 244.572C251.058 244.56 251.196 244.686 251.208 244.854C251.22 245.022 251.094 245.16 250.926 245.172C250.896 245.172 247.572 245.4 245.304 246.876C245.256 246.906 245.196 246.924 245.142 246.924Z" fill="#153456"/>
<path d="M217.254 142.77C217.254 142.77 215.97 144.114 217.182 146.016C218.394 147.918 229.53 152.76 229.53 152.76L230.124 153.87C230.124 153.87 232.47 152.64 233.364 150.672C234.258 148.704 233.118 145.764 233.118 145.764L220.236 141.372L217.254 142.776V142.77Z" fill="#153456"/>
<path d="M230.124 154.164C230.016 154.164 229.914 154.104 229.86 154.008L229.314 152.994C228.15 152.484 218.13 148.062 216.93 146.178C215.604 144.102 217.02 142.578 217.038 142.56C217.062 142.536 217.092 142.512 217.128 142.494L220.11 141.09C220.182 141.054 220.26 141.054 220.332 141.078L233.214 145.47C233.298 145.5 233.364 145.566 233.394 145.644C233.442 145.77 234.57 148.728 233.634 150.786C232.71 152.826 230.358 154.074 230.262 154.122C230.22 154.146 230.172 154.158 230.124 154.158V154.164ZM217.44 143.01C217.26 143.232 216.468 144.33 217.44 145.854C218.394 147.354 226.578 151.146 229.65 152.484C229.71 152.508 229.764 152.556 229.794 152.616L230.244 153.45C230.862 153.078 232.422 152.016 233.094 150.546C233.82 148.938 233.082 146.574 232.884 145.998L220.254 141.69L217.44 143.016V143.01Z" fill="#153456"/>
<path d="M230.22 152.31C229.872 156.774 230.322 159.36 230.322 159.36C230.322 159.36 227.514 160.974 224.958 159.294L225.18 155.526L230.22 152.316V152.31Z" fill="white"/>
<path d="M227.556 160.362C226.698 160.362 225.732 160.158 224.79 159.54C224.7 159.48 224.652 159.378 224.658 159.27L224.88 155.502C224.88 155.406 224.934 155.316 225.018 155.268L230.058 152.058C230.154 151.998 230.274 151.998 230.376 152.058C230.472 152.118 230.532 152.226 230.52 152.34C230.178 156.708 230.616 159.288 230.622 159.312C230.646 159.438 230.586 159.558 230.478 159.624C230.4 159.672 229.158 160.368 227.562 160.368L227.556 160.362ZM225.27 159.132C227.244 160.326 229.374 159.486 229.998 159.192C229.902 158.514 229.656 156.312 229.884 152.886L225.474 155.694L225.27 159.132Z" fill="#153456"/>
<path d="M234.024 149.232C234.144 151.728 231.492 151.554 231.492 151.554C231.492 151.554 227.898 158.178 222.15 157.356C219.354 156.96 217.854 154.884 217.26 152.184C216.786 150.054 216.882 147.528 217.338 145.128C218.622 144.708 219.78 143.796 220.62 142.998C221.34 143.85 222.342 144.294 223.32 144.33C223.968 145.23 224.862 146.028 226.02 146.136C229.506 146.466 230.508 148.254 230.622 148.77C230.736 149.286 230.154 150.684 230.154 150.684L231.234 150.738L232.398 147.516C232.452 147.516 233.934 147.534 234.018 149.226L234.024 149.232Z" fill="white"/>
<path d="M223.116 157.728C222.786 157.728 222.45 157.704 222.102 157.656C219.432 157.278 217.656 155.412 216.96 152.25C216.51 150.228 216.54 147.678 217.038 145.074C217.056 144.966 217.134 144.876 217.242 144.846C218.262 144.516 219.324 143.82 220.41 142.782C220.47 142.728 220.548 142.692 220.632 142.698C220.716 142.698 220.794 142.74 220.848 142.806C221.472 143.55 222.378 143.994 223.332 144.03C223.422 144.03 223.512 144.078 223.566 144.156C224.31 145.188 225.144 145.758 226.05 145.842C229.602 146.178 230.772 148.026 230.916 148.71C231.006 149.13 230.766 149.916 230.586 150.408L231.03 150.432L232.122 147.42C232.164 147.3 232.278 147.222 232.404 147.222C233.034 147.222 234.246 147.642 234.324 149.22C234.36 150.018 234.144 150.66 233.676 151.122C233.022 151.764 232.068 151.854 231.666 151.86C231.096 152.814 227.934 157.734 223.122 157.734L223.116 157.728ZM217.596 145.362C217.146 147.828 217.128 150.222 217.548 152.124C217.992 154.14 219.156 156.636 222.186 157.062C227.658 157.848 231.192 151.476 231.228 151.41C231.282 151.308 231.396 151.248 231.51 151.254C231.522 151.254 232.614 151.314 233.256 150.684C233.598 150.348 233.754 149.862 233.724 149.244C233.67 148.158 232.968 147.9 232.608 147.834L231.522 150.84C231.474 150.966 231.348 151.05 231.222 151.038L230.142 150.984C230.046 150.984 229.956 150.93 229.902 150.846C229.848 150.762 229.842 150.66 229.878 150.57C230.106 150.024 230.394 149.13 230.328 148.836C230.214 148.308 229.17 146.736 225.99 146.436C224.94 146.34 223.986 145.728 223.158 144.618C222.198 144.546 221.286 144.12 220.596 143.424C219.582 144.354 218.574 145.002 217.596 145.356V145.362Z" fill="#153456"/>
<path d="M231.492 151.554C231.492 151.554 227.898 158.178 222.15 157.356C219.354 156.96 217.854 154.884 217.26 152.184C217.902 153.18 219.702 153.384 220.674 152.856C221.652 152.328 224.502 152.142 225.582 152.658C226.656 153.174 229.512 151.686 230.16 150.684L231.24 150.738C231.24 150.738 231.558 151.026 231.498 151.554H231.492Z" fill="#153456"/>
<path d="M223.116 157.728C222.786 157.728 222.45 157.704 222.102 157.656C219.432 157.278 217.656 155.412 216.96 152.25C216.93 152.106 217.002 151.962 217.14 151.908C217.272 151.854 217.428 151.902 217.506 152.022C218.052 152.862 219.672 153.054 220.53 152.592C221.574 152.028 224.532 151.824 225.708 152.388C226.584 152.808 229.278 151.494 229.902 150.522C229.962 150.432 230.064 150.378 230.172 150.384L231.252 150.438C231.324 150.438 231.384 150.468 231.438 150.516C231.594 150.66 231.852 151.05 231.792 151.584C231.792 151.62 231.774 151.656 231.756 151.692C231.72 151.758 228.42 157.722 223.116 157.722V157.728ZM217.8 153.06C218.382 154.848 219.612 156.702 222.186 157.062C227.394 157.806 230.844 152.082 231.198 151.464C231.21 151.26 231.138 151.116 231.09 151.032L230.31 150.99C229.434 152.1 226.644 153.504 225.45 152.928C224.454 152.448 221.718 152.634 220.818 153.12C220.002 153.558 218.718 153.546 217.806 153.06H217.8Z" fill="#153456"/>
<path d="M223.752 147.816C224.322 147.006 225.582 146.826 226.344 147.45C226.632 147.69 227.208 148.296 226.74 148.572C226.65 148.614 226.554 148.608 226.476 148.572C225.714 148.122 224.988 147.978 224.142 148.272C223.854 148.404 223.56 148.08 223.752 147.816Z" fill="#153456"/>
<path d="M218.382 146.622C219.066 145.668 220.536 145.884 221.322 146.562C221.592 146.808 222.252 147.45 221.79 147.75C221.694 147.798 221.586 147.792 221.496 147.75C220.782 147.336 220.23 146.982 219.456 146.946C219.09 146.886 218.184 147.234 218.382 146.628V146.622Z" fill="#153456"/>
<path d="M220.896 152.28C220.896 152.28 220.872 152.28 220.86 152.28C220.26 152.262 219.858 151.854 219.822 151.236C219.804 150.924 219.906 150.654 220.116 150.456C220.44 150.15 220.938 150.09 221.256 150.084C221.316 149.646 221.424 148.68 221.394 147.54C221.394 147.372 221.52 147.234 221.688 147.234H221.694C221.856 147.234 221.988 147.36 221.994 147.528C222.036 149.154 221.82 150.396 221.808 150.45C221.778 150.606 221.646 150.708 221.484 150.696C221.31 150.678 220.758 150.678 220.53 150.894C220.482 150.942 220.416 151.026 220.422 151.212C220.44 151.59 220.68 151.68 220.878 151.686C220.884 151.686 220.89 151.686 220.902 151.686C221.244 151.686 221.628 151.446 221.664 151.074C221.682 150.912 221.832 150.792 221.994 150.81C222.162 150.828 222.276 150.978 222.258 151.14C222.18 151.854 221.496 152.286 220.896 152.286V152.28Z" fill="#153456"/>
<path d="M225.372 149.898C225.312 150.366 225.006 150.708 224.682 150.666C224.358 150.624 224.148 150.216 224.208 149.754C224.226 149.616 224.268 149.484 224.328 149.376L224.844 149.742L224.67 149.028C224.742 148.992 224.82 148.98 224.898 148.992C225.216 149.034 225.432 149.442 225.378 149.904L225.372 149.898Z" fill="#153456"/>
<path d="M220.236 148.692C220.218 149.16 219.936 149.526 219.612 149.514C219.288 149.502 219.042 149.112 219.06 148.644C219.06 148.506 219.096 148.368 219.144 148.254L219.69 148.578L219.456 147.882C219.528 147.84 219.6 147.822 219.684 147.828C220.008 147.84 220.254 148.23 220.236 148.698V148.692Z" fill="#153456"/>
<path d="M221.958 153.522C223.218 155.208 224.1 153.48 224.1 153.48L221.958 153.522Z" fill="white"/>
<path d="M217.254 142.77C216.312 142.68 216.846 140.472 217.254 139.884C217.662 139.296 218.022 139.434 218.022 139.434C218.022 139.434 219.504 136.866 221.04 135.738C222.576 134.61 223.704 133.488 224.376 132.81C225.048 132.132 226.764 130.872 228.342 131.28C229.92 131.688 232.038 134.436 232.35 137.586C232.662 140.736 233.208 142.86 233.118 143.76C233.118 143.76 233.706 143.988 233.478 144.84C233.25 145.692 233.388 146.472 232.848 146.466C232.308 146.46 227.802 144.03 223.95 143.22C220.098 142.41 217.26 142.77 217.26 142.77H217.254Z" fill="white"/>
<path d="M232.854 146.766H232.848C232.614 146.766 232.134 146.562 230.988 146.052C229.164 145.248 226.404 144.036 223.89 143.508C220.128 142.716 217.326 143.058 217.296 143.064C217.272 143.064 217.254 143.064 217.23 143.064C216.936 143.034 216.702 142.866 216.57 142.578C216.21 141.804 216.648 140.232 217.014 139.71C217.326 139.26 217.644 139.14 217.866 139.122C218.22 138.528 219.51 136.494 220.866 135.498C222.39 134.382 223.5 133.266 224.166 132.6C224.964 131.802 226.758 130.566 228.42 130.992C230.154 131.436 232.332 134.34 232.656 137.562C232.806 139.038 232.998 140.286 233.16 141.288C233.322 142.308 233.442 143.082 233.436 143.604C233.7 143.808 233.958 144.228 233.778 144.924C233.712 145.17 233.682 145.416 233.652 145.638C233.58 146.172 233.496 146.772 232.866 146.772L232.854 146.766ZM218.958 142.386C220.17 142.386 221.94 142.488 224.01 142.926C226.584 143.466 229.374 144.696 231.222 145.506C231.948 145.824 232.692 146.154 232.854 146.166C232.938 146.166 232.974 146.046 233.046 145.548C233.076 145.314 233.118 145.044 233.19 144.762C233.334 144.21 233.064 144.06 233.004 144.036C232.884 143.982 232.806 143.856 232.818 143.73C232.86 143.292 232.734 142.488 232.56 141.378C232.398 140.37 232.2 139.11 232.056 137.622C231.738 134.442 229.602 131.916 228.27 131.574C226.872 131.214 225.252 132.366 224.592 133.026C223.914 133.704 222.78 134.838 221.22 135.984C219.756 137.058 218.298 139.56 218.286 139.584C218.214 139.71 218.058 139.764 217.92 139.716C217.932 139.716 217.752 139.698 217.5 140.058C217.23 140.448 216.864 141.804 217.104 142.332C217.146 142.428 217.194 142.458 217.254 142.47C217.416 142.452 218.022 142.392 218.952 142.392L218.958 142.386Z" fill="#153456"/>
<path d="M233.118 144.06C233.064 144.06 233.016 144.048 232.968 144.018C232.92 143.988 227.826 141.06 223.596 140.22C219.444 139.398 218.112 139.716 218.1 139.722C217.938 139.764 217.776 139.668 217.734 139.506C217.692 139.35 217.782 139.182 217.944 139.14C217.998 139.122 219.366 138.768 223.716 139.632C228.042 140.49 233.058 143.376 233.268 143.496C233.412 143.58 233.46 143.76 233.376 143.904C233.322 144 233.22 144.054 233.118 144.054V144.06Z" fill="#153456"/>
<path d="M220.14 139.536C220.758 138.78 221.424 138.012 222.204 137.418C222.564 137.142 222.954 136.902 223.296 136.602C223.674 136.272 224.028 135.912 224.382 135.558C225.042 134.904 225.648 134.214 226.242 133.5C226.836 132.786 227.4 132.168 228.174 131.73C228.51 131.538 228.21 131.022 227.874 131.214C227.124 131.634 226.524 132.246 225.972 132.9C225.348 133.632 224.736 134.358 224.058 135.036C223.698 135.396 223.344 135.756 222.972 136.092C222.6 136.428 222.192 136.668 221.808 136.968C221.022 137.58 220.338 138.342 219.714 139.11C219.474 139.41 219.894 139.836 220.14 139.536Z" fill="#153456"/>
<path d="M227.988 131.274C226.932 132.48 226.074 133.926 225.36 135.36C225.186 135.708 225.078 136.068 224.934 136.422C224.79 136.776 224.52 137.088 224.304 137.412C223.86 138.078 223.572 138.834 223.29 139.578C223.152 139.938 223.734 140.094 223.866 139.74C224.142 139.02 224.418 138.3 224.856 137.658C225.06 137.358 225.294 137.082 225.444 136.746C225.606 136.386 225.702 136.014 225.876 135.66C226.566 134.274 227.388 132.864 228.414 131.694C228.666 131.406 228.246 130.98 227.988 131.268V131.274Z" fill="#153456"/>
<path d="M228.462 131.868C229.716 133.206 229.548 135.204 229.926 136.878C230.13 137.766 230.454 138.624 230.628 139.524C230.82 140.508 230.826 141.516 230.832 142.518C230.832 142.902 231.432 142.902 231.432 142.518C231.432 141.51 231.408 140.502 231.234 139.506C231.06 138.51 230.682 137.568 230.472 136.584C230.1 134.814 230.208 132.858 228.882 131.448C228.618 131.166 228.192 131.592 228.456 131.874L228.462 131.868Z" fill="#153456"/>
<path d="M228.114 131.622C228.15 132.402 228.132 133.176 228.048 133.95C227.964 134.724 227.76 135.492 227.676 136.272C227.592 137.052 227.766 137.76 227.724 138.504C227.682 139.248 227.466 140.046 227.256 140.796C227.154 141.168 227.73 141.33 227.832 140.958C228.03 140.244 228.222 139.524 228.3 138.786C228.384 137.988 228.198 137.208 228.258 136.416C228.318 135.624 228.534 134.88 228.624 134.1C228.72 133.278 228.744 132.45 228.702 131.628C228.684 131.244 228.084 131.244 228.102 131.628L228.114 131.622Z" fill="#153456"/>
<path d="M197.154 226.11C197.154 226.11 197.154 226.104 197.154 226.098V224.616H196.392L193.686 220.446C193.026 219.432 191.898 218.82 190.686 218.82H169.032C167.82 218.82 166.692 219.432 166.032 220.446L163.326 224.616H162.582V225.972C162.57 226.08 162.564 226.188 162.582 226.29V226.338C162.678 226.854 163.116 227.286 163.716 227.286H195.978C196.578 227.286 197.016 226.854 197.112 226.338H197.136V226.11H197.154Z" fill="#153456"/>
<path d="M195.996 227.586H163.734C163.044 227.586 162.468 227.124 162.318 226.452C162.3 226.416 162.294 226.38 162.294 226.338C162.276 226.206 162.276 226.068 162.294 225.93V224.61C162.294 224.442 162.426 224.31 162.594 224.31H163.176L165.792 220.278C166.512 219.174 167.724 218.514 169.044 218.514H190.698C192.018 218.514 193.23 219.174 193.944 220.278L196.56 224.31H197.16C197.328 224.31 197.46 224.442 197.46 224.61V226.338C197.46 226.404 197.436 226.47 197.4 226.518C197.226 227.154 196.668 227.586 196.002 227.586H195.996ZM162.894 226.272C162.894 226.272 162.894 226.278 162.894 226.284C162.96 226.626 163.248 226.992 163.734 226.992H195.996C196.482 226.992 196.77 226.626 196.836 226.284C196.836 226.26 196.848 226.236 196.854 226.218V224.916H196.392C196.29 224.916 196.194 224.862 196.14 224.778L193.434 220.608C192.828 219.672 191.802 219.114 190.686 219.114H169.032C167.916 219.114 166.89 219.672 166.284 220.608L163.578 224.778C163.524 224.862 163.428 224.916 163.326 224.916H162.882V225.972C162.87 226.092 162.87 226.17 162.882 226.248C162.882 226.248 162.882 226.26 162.882 226.272H162.894Z" fill="#153456"/>
<path d="M195.996 225.81H163.734C162.816 225.81 162.264 224.79 162.762 224.022L166.038 218.97C166.698 217.956 167.826 217.344 169.032 217.344H190.686C191.898 217.344 193.026 217.956 193.68 218.97L196.956 224.022C197.454 224.79 196.902 225.81 195.984 225.81H195.996Z" fill="#2196F3"/>
<path d="M195.996 226.11H163.734C163.188 226.11 162.708 225.822 162.45 225.348C162.192 224.868 162.21 224.316 162.51 223.86L165.786 218.808C166.5 217.704 167.718 217.044 169.032 217.044H190.686C192.006 217.044 193.218 217.704 193.938 218.808L197.214 223.86C197.508 224.316 197.532 224.874 197.274 225.348C197.016 225.828 196.536 226.11 195.99 226.11H195.996ZM169.038 217.638C167.922 217.638 166.896 218.196 166.29 219.132L163.008 224.184C162.834 224.454 162.822 224.778 162.972 225.06C163.122 225.342 163.404 225.51 163.728 225.51H195.99C196.308 225.51 196.59 225.342 196.746 225.06C196.896 224.778 196.884 224.454 196.71 224.184L193.434 219.132C192.828 218.196 191.802 217.638 190.686 217.638H169.032H169.038Z" fill="#153456"/>
<path d="M186.12 221.28C182.04 222.504 177.69 222.504 173.61 221.28C172.698 221.01 172.092 220.176 172.092 219.246V219.222C172.092 219.12 172.092 219.024 172.116 218.922L172.992 213.18L173.484 209.994L174.414 203.922L174.9 200.724L175.836 194.622L177.168 185.904C177.372 184.572 178.518 183.588 179.862 183.588C180.534 183.588 181.158 183.834 181.638 184.248C182.118 184.656 182.454 185.238 182.556 185.904L183.492 192.03L184.332 197.508L184.77 200.364L185.598 205.794L186.03 208.626L186.852 213.99L187.608 218.922C187.77 219.972 187.134 220.98 186.12 221.28Z" fill="#2196F3"/>
<path d="M179.868 222.498C177.732 222.498 175.602 222.186 173.526 221.562C172.488 221.256 171.792 220.32 171.792 219.24C171.792 219.096 171.798 218.982 171.822 218.862L176.874 185.85C177.102 184.362 178.362 183.276 179.862 183.276C180.588 183.276 181.284 183.534 181.836 184.008C182.382 184.47 182.742 185.124 182.856 185.844L187.908 218.862C188.094 220.056 187.362 221.214 186.21 221.55C184.134 222.174 182.004 222.486 179.868 222.486V222.498ZM179.862 183.888C178.674 183.888 177.642 184.776 177.462 185.952L172.41 218.97C172.392 219.06 172.392 219.144 172.392 219.222C172.392 220.062 172.914 220.764 173.694 220.992C177.732 222.204 181.998 222.204 186.03 220.992C186.894 220.734 187.446 219.864 187.308 218.97L182.256 185.952C182.166 185.376 181.878 184.854 181.44 184.482C181.002 184.104 180.438 183.894 179.856 183.894L179.862 183.888Z" fill="#153456"/>
<path d="M186.852 213.99C182.1 217.146 175.074 218.682 172.092 219.222C172.092 219.12 172.092 219.024 172.116 218.922L172.992 213.18C176.118 212.556 181.776 211.17 186.03 208.626L186.852 213.99Z" fill="white"/>
<path d="M172.092 219.522C172.02 219.522 171.954 219.498 171.9 219.45C171.834 219.396 171.792 219.306 171.792 219.222C171.792 219.102 171.798 218.988 171.822 218.868L172.698 213.132C172.716 213.006 172.812 212.91 172.938 212.88C175.962 212.28 181.656 210.888 185.88 208.362C185.964 208.308 186.072 208.302 186.162 208.35C186.252 208.392 186.318 208.476 186.33 208.578L187.152 213.942C187.17 214.056 187.116 214.17 187.02 214.236C182.196 217.44 175.014 218.994 172.146 219.51C172.128 219.51 172.11 219.51 172.092 219.51V219.522ZM173.256 213.432L172.428 218.856C175.44 218.286 181.998 216.786 186.522 213.846L185.796 209.106C181.638 211.482 176.268 212.82 173.25 213.432H173.256Z" fill="#153456"/>
<path d="M185.598 205.794C181.614 208.056 176.568 209.352 173.484 209.994L174.414 203.922C177.288 203.274 181.326 202.152 184.77 200.364L185.598 205.794Z" fill="white"/>
<path d="M173.484 210.294C173.406 210.294 173.334 210.264 173.28 210.21C173.208 210.144 173.172 210.042 173.19 209.946L174.12 203.874C174.138 203.754 174.228 203.652 174.348 203.628C177.156 202.992 181.218 201.87 184.632 200.094C184.716 200.046 184.818 200.052 184.908 200.094C184.998 200.136 185.052 200.22 185.07 200.316L185.898 205.746C185.916 205.872 185.856 205.992 185.748 206.052C181.86 208.26 176.964 209.574 173.544 210.282C173.526 210.282 173.502 210.288 173.484 210.288V210.294ZM174.678 204.168L173.844 209.61C177.138 208.902 181.632 207.654 185.268 205.632L184.536 200.82C181.23 202.47 177.408 203.544 174.678 204.168Z" fill="#153456"/>
<path d="M184.332 197.508C181.182 199.062 177.606 200.094 174.9 200.724L175.836 194.622C178.146 194.046 180.918 193.206 183.492 192.03L184.332 197.508Z" fill="white"/>
<path d="M174.9 201.024C174.828 201.024 174.75 200.994 174.696 200.946C174.624 200.88 174.588 200.778 174.606 200.682L175.542 194.58C175.56 194.46 175.65 194.364 175.764 194.334C178.644 193.614 181.2 192.75 183.366 191.76C183.45 191.718 183.552 191.724 183.636 191.766C183.72 191.814 183.774 191.892 183.792 191.982L184.632 197.46C184.65 197.592 184.584 197.718 184.47 197.772C181.206 199.38 177.504 200.424 174.972 201.012C174.948 201.012 174.924 201.018 174.906 201.018L174.9 201.024ZM176.1 194.862L175.26 200.328C177.684 199.746 181.014 198.774 183.996 197.334L183.252 192.462C181.182 193.38 178.776 194.184 176.1 194.862Z" fill="#153456"/>
<path d="M129.768 239.484C129.768 239.484 129.768 239.478 129.768 239.472V237.99H129.006L126.3 233.82C125.64 232.806 124.512 232.194 123.3 232.194H101.646C100.434 232.194 99.3061 232.806 98.6461 233.82L95.94 237.99H95.1961V239.346C95.1841 239.454 95.1781 239.562 95.1961 239.664V239.712C95.2921 240.228 95.7301 240.66 96.3301 240.66H128.592C129.192 240.66 129.63 240.228 129.726 239.712H129.75V239.484H129.768Z" fill="#153456"/>
<path d="M128.61 240.966H96.348C95.658 240.966 95.082 240.504 94.932 239.832C94.914 239.796 94.908 239.76 94.908 239.718C94.89 239.586 94.89 239.448 94.908 239.31V237.99C94.908 237.822 95.04 237.69 95.208 237.69H95.79L98.406 233.658C99.126 232.554 100.338 231.894 101.658 231.894H123.312C124.632 231.894 125.844 232.554 126.558 233.658L129.174 237.69H129.774C129.942 237.69 130.074 237.822 130.074 237.99V239.718C130.074 239.784 130.05 239.85 130.014 239.898C129.84 240.534 129.282 240.966 128.616 240.966H128.61ZM95.508 239.646C95.508 239.646 95.508 239.652 95.508 239.658C95.574 240 95.862 240.366 96.348 240.366H128.61C129.096 240.366 129.384 240 129.45 239.658C129.45 239.634 129.462 239.61 129.468 239.592V238.29H129.006C128.904 238.29 128.808 238.236 128.754 238.152L126.048 233.982C125.442 233.046 124.416 232.488 123.3 232.488H101.646C100.53 232.488 99.504 233.046 98.898 233.982L96.192 238.152C96.138 238.236 96.042 238.29 95.94 238.29H95.496V239.346C95.484 239.466 95.484 239.544 95.496 239.622C95.496 239.622 95.496 239.634 95.496 239.646H95.508Z" fill="#153456"/>
<path d="M128.61 239.19H96.348C95.43 239.19 94.878 238.17 95.376 237.402L98.652 232.35C99.312 231.336 100.44 230.724 101.646 230.724H123.3C124.512 230.724 125.64 231.336 126.294 232.35L129.57 237.402C130.068 238.17 129.516 239.19 128.598 239.19H128.61Z" fill="#2196F3"/>
<path d="M128.61 239.49H96.348C95.802 239.49 95.328 239.208 95.064 238.728C94.8 238.248 94.824 237.696 95.124 237.24L98.406 232.188C99.126 231.084 100.338 230.424 101.652 230.424H123.306C124.626 230.424 125.838 231.084 126.558 232.188L129.834 237.24C130.128 237.696 130.152 238.254 129.894 238.728C129.636 239.208 129.156 239.49 128.61 239.49ZM101.652 231.018C100.536 231.018 99.51 231.576 98.904 232.512L95.628 237.564C95.454 237.834 95.442 238.158 95.592 238.44C95.742 238.722 96.024 238.89 96.348 238.89H128.61C128.928 238.89 129.21 238.722 129.366 238.44C129.516 238.158 129.504 237.828 129.33 237.564L126.054 232.512C125.448 231.576 124.422 231.018 123.306 231.018H101.652Z" fill="#153456"/>
<path d="M118.734 234.66C114.654 235.884 110.304 235.884 106.224 234.66C105.312 234.39 104.706 233.556 104.706 232.626V232.602C104.706 232.5 104.706 232.404 104.73 232.302L105.606 226.56L106.098 223.374L107.028 217.302L107.514 214.104L108.45 208.002L109.782 199.284C109.986 197.952 111.132 196.968 112.476 196.968C113.148 196.968 113.772 197.214 114.252 197.628C114.732 198.036 115.068 198.618 115.17 199.284L116.106 205.41L116.946 210.888L117.384 213.744L118.212 219.174L118.644 222.006L119.466 227.37L120.222 232.302C120.384 233.352 119.748 234.36 118.734 234.66Z" fill="#2196F3"/>
<path d="M112.482 235.878C110.346 235.878 108.216 235.566 106.14 234.942C105.102 234.636 104.406 233.7 104.406 232.62C104.406 232.476 104.412 232.362 104.436 232.242L109.488 199.23C109.716 197.742 110.976 196.656 112.476 196.656C113.202 196.656 113.898 196.914 114.45 197.388C114.996 197.85 115.356 198.504 115.47 199.224L120.522 232.242C120.708 233.436 119.976 234.594 118.824 234.936C116.748 235.56 114.618 235.866 112.482 235.866V235.878ZM112.476 197.268C111.288 197.268 110.256 198.156 110.076 199.332L105.024 232.35C105.006 232.44 105.006 232.524 105.006 232.602C105.006 233.442 105.528 234.144 106.308 234.372C110.346 235.584 114.612 235.584 118.644 234.372C119.508 234.114 120.06 233.244 119.922 232.35L114.87 199.332C114.78 198.756 114.492 198.234 114.054 197.862C113.616 197.484 113.052 197.274 112.47 197.274L112.476 197.268Z" fill="#153456"/>
<path d="M119.466 227.37C114.714 230.526 107.688 232.062 104.706 232.602C104.706 232.5 104.706 232.404 104.73 232.302L105.606 226.56C108.732 225.936 114.39 224.55 118.644 222.006L119.466 227.37Z" fill="white"/>
<path d="M104.706 232.902C104.634 232.902 104.568 232.878 104.514 232.83C104.448 232.776 104.406 232.686 104.406 232.602C104.406 232.482 104.412 232.368 104.436 232.248L105.312 226.512C105.33 226.386 105.426 226.29 105.552 226.26C108.576 225.66 114.27 224.268 118.494 221.742C118.578 221.688 118.686 221.688 118.776 221.73C118.866 221.772 118.932 221.856 118.944 221.958L119.766 227.322C119.784 227.436 119.73 227.55 119.634 227.616C114.81 230.82 107.628 232.374 104.76 232.89C104.742 232.89 104.724 232.89 104.706 232.89V232.902ZM105.87 226.812L105.042 232.236C108.054 231.666 114.612 230.166 119.136 227.226L118.41 222.486C114.252 224.862 108.882 226.2 105.864 226.812H105.87Z" fill="#153456"/>
<path d="M118.212 219.174C114.228 221.436 109.182 222.732 106.098 223.374L107.028 217.302C109.902 216.654 113.94 215.532 117.384 213.744L118.212 219.174Z" fill="white"/>
<path d="M106.098 223.674C106.02 223.674 105.948 223.644 105.894 223.59C105.822 223.524 105.786 223.422 105.804 223.326L106.734 217.254C106.752 217.134 106.842 217.032 106.962 217.008C109.77 216.372 113.832 215.25 117.246 213.474C117.33 213.426 117.432 213.432 117.522 213.474C117.612 213.516 117.666 213.6 117.684 213.696L118.512 219.126C118.53 219.252 118.47 219.372 118.362 219.432C114.474 221.64 109.578 222.954 106.158 223.662C106.14 223.662 106.116 223.668 106.098 223.668V223.674ZM107.292 217.548L106.458 222.99C109.752 222.282 114.246 221.034 117.882 219.012L117.15 214.2C113.844 215.85 110.022 216.924 107.292 217.548Z" fill="#153456"/>
<path d="M116.946 210.888C113.796 212.442 110.22 213.474 107.514 214.104L108.45 208.002C110.76 207.426 113.532 206.586 116.106 205.41L116.946 210.888Z" fill="white"/>
<path d="M107.514 214.404C107.442 214.404 107.364 214.374 107.31 214.326C107.238 214.26 107.202 214.158 107.22 214.062L108.156 207.96C108.174 207.84 108.264 207.744 108.378 207.714C111.258 206.994 113.814 206.13 115.98 205.14C116.064 205.098 116.166 205.104 116.25 205.146C116.334 205.194 116.388 205.272 116.406 205.362L117.246 210.84C117.264 210.972 117.198 211.098 117.084 211.152C113.82 212.76 110.118 213.804 107.586 214.392C107.562 214.392 107.538 214.398 107.52 214.398L107.514 214.404ZM108.72 208.242L107.88 213.708C110.304 213.126 113.634 212.154 116.616 210.714L115.872 205.842C113.802 206.76 111.396 207.564 108.72 208.242Z" fill="#153456"/>
<path d="M286.728 233.364C286.728 233.364 286.728 233.358 286.728 233.352V231.87H285.966L283.26 227.7C282.6 226.686 281.472 226.074 280.26 226.074H258.606C257.394 226.074 256.266 226.686 255.606 227.7L252.9 231.87H252.156V233.226C252.144 233.334 252.138 233.442 252.156 233.544V233.592C252.252 234.108 252.69 234.54 253.29 234.54H285.552C286.152 234.54 286.59 234.108 286.686 233.592H286.71V233.364H286.728Z" fill="#153456"/>
<path d="M285.57 234.84H253.308C252.618 234.84 252.042 234.372 251.892 233.7C251.88 233.664 251.868 233.628 251.868 233.586C251.85 233.448 251.85 233.31 251.868 233.178V231.864C251.868 231.696 252 231.564 252.168 231.564H252.744L255.36 227.532C256.08 226.428 257.292 225.768 258.606 225.768H280.26C281.58 225.768 282.792 226.428 283.506 227.532L286.122 231.564H286.722C286.89 231.564 287.022 231.696 287.022 231.864V233.592C287.022 233.658 286.998 233.718 286.962 233.772C286.788 234.408 286.23 234.846 285.564 234.846L285.57 234.84ZM252.468 233.526C252.468 233.526 252.468 233.526 252.468 233.532C252.534 233.874 252.822 234.24 253.308 234.24H285.57C286.056 234.24 286.344 233.874 286.41 233.532C286.41 233.508 286.422 233.49 286.428 233.466V233.358C286.428 233.358 286.428 233.346 286.428 233.34V232.158H285.966C285.864 232.158 285.768 232.104 285.714 232.02L283.008 227.85C282.402 226.914 281.376 226.356 280.26 226.356H258.606C257.49 226.356 256.464 226.914 255.858 227.85L253.152 232.02C253.098 232.104 253.002 232.158 252.9 232.158H252.456V233.214C252.444 233.334 252.444 233.412 252.456 233.49C252.456 233.49 252.456 233.508 252.456 233.52L252.468 233.526Z" fill="#153456"/>
<path d="M285.57 233.064H253.308C252.39 233.064 251.838 232.044 252.336 231.276L255.612 226.224C256.272 225.21 257.4 224.598 258.606 224.598H280.26C281.472 224.598 282.6 225.21 283.254 226.224L286.53 231.276C287.028 232.044 286.476 233.064 285.558 233.064H285.57Z" fill="#2196F3"/>
<path d="M285.57 233.364H253.308C252.762 233.364 252.288 233.082 252.024 232.602C251.766 232.128 251.784 231.57 252.084 231.114L255.366 226.062C256.086 224.958 257.298 224.298 258.612 224.298H280.266C281.58 224.298 282.798 224.958 283.512 226.062L286.788 231.114C287.082 231.57 287.106 232.128 286.848 232.602C286.59 233.082 286.11 233.364 285.564 233.364H285.57ZM258.612 224.898C257.502 224.898 256.47 225.456 255.864 226.392L252.588 231.444C252.414 231.714 252.402 232.038 252.552 232.32C252.702 232.602 252.984 232.77 253.308 232.77H285.57C285.888 232.77 286.17 232.602 286.326 232.32C286.476 232.038 286.464 231.714 286.29 231.444L283.014 226.392C282.408 225.456 281.382 224.898 280.266 224.898H258.612Z" fill="#153456"/>
<path d="M275.7 228.534C271.62 229.758 267.27 229.758 263.19 228.534C262.278 228.264 261.672 227.43 261.672 226.5V226.476C261.672 226.374 261.672 226.278 261.696 226.176L262.572 220.434L263.064 217.248L263.994 211.176L264.48 207.978L265.416 201.876L266.748 193.158C266.952 191.826 268.098 190.842 269.442 190.842C270.114 190.842 270.738 191.088 271.218 191.502C271.698 191.91 272.034 192.492 272.136 193.158L273.072 199.284L273.912 204.762L274.35 207.618L275.178 213.048L275.61 215.88L276.432 221.244L277.188 226.176C277.35 227.226 276.714 228.234 275.7 228.534Z" fill="#2196F3"/>
<path d="M269.442 229.758C267.306 229.758 265.176 229.446 263.1 228.822C262.062 228.516 261.366 227.58 261.366 226.5C261.366 226.356 261.372 226.242 261.396 226.122L266.448 193.11C266.676 191.622 267.936 190.536 269.436 190.536C270.162 190.536 270.858 190.794 271.41 191.268C271.956 191.736 272.316 192.384 272.43 193.104L277.482 226.122C277.668 227.316 276.936 228.474 275.784 228.816C273.708 229.44 271.578 229.752 269.442 229.752V229.758ZM269.442 191.142C268.236 191.142 267.228 192.012 267.042 193.206L261.99 226.224C261.972 226.314 261.972 226.398 261.972 226.476C261.972 227.316 262.494 228.018 263.274 228.246C267.312 229.458 271.578 229.458 275.61 228.246C276.474 227.988 277.026 227.118 276.888 226.218L271.836 193.2C271.746 192.624 271.458 192.102 271.02 191.724C270.582 191.346 270.018 191.136 269.436 191.136L269.442 191.142Z" fill="#153456"/>
<path d="M276.432 221.244C271.68 224.4 264.654 225.936 261.672 226.476C261.672 226.374 261.672 226.278 261.696 226.176L262.572 220.434C265.698 219.81 271.356 218.424 275.61 215.88L276.432 221.244Z" fill="white"/>
<path d="M261.672 226.776C261.6 226.776 261.534 226.752 261.48 226.704C261.414 226.65 261.372 226.56 261.372 226.476C261.372 226.356 261.378 226.242 261.402 226.122L262.278 220.386C262.296 220.26 262.392 220.164 262.518 220.134C265.542 219.534 271.236 218.142 275.46 215.616C275.544 215.562 275.652 215.556 275.742 215.604C275.832 215.646 275.898 215.73 275.91 215.832L276.732 221.196C276.75 221.31 276.696 221.424 276.6 221.49C271.77 224.7 264.588 226.248 261.726 226.764C261.708 226.764 261.69 226.764 261.672 226.764V226.776ZM262.836 220.686L262.008 226.11C265.02 225.54 271.578 224.04 276.102 221.1L275.376 216.36C271.218 218.736 265.848 220.074 262.83 220.686H262.836Z" fill="#153456"/>
<path d="M275.178 213.048C271.194 215.31 266.148 216.606 263.064 217.248L263.994 211.176C266.868 210.528 270.906 209.406 274.35 207.618L275.178 213.048Z" fill="white"/>
<path d="M263.064 217.548C262.986 217.548 262.914 217.518 262.86 217.464C262.788 217.398 262.752 217.296 262.77 217.2L263.7 211.128C263.718 211.008 263.808 210.906 263.928 210.882C266.736 210.246 270.804 209.124 274.212 207.348C274.296 207.3 274.398 207.306 274.488 207.348C274.578 207.39 274.632 207.474 274.65 207.57L275.478 213C275.496 213.126 275.436 213.246 275.328 213.306C271.434 215.514 266.544 216.828 263.13 217.536C263.112 217.536 263.088 217.542 263.07 217.542L263.064 217.548ZM264.258 211.428L263.424 216.87C266.718 216.162 271.212 214.914 274.848 212.892L274.116 208.08C270.81 209.73 266.988 210.804 264.258 211.428Z" fill="#153456"/>
<path d="M273.912 204.762C270.762 206.316 267.186 207.348 264.48 207.978L265.416 201.876C267.726 201.3 270.498 200.46 273.072 199.284L273.912 204.762Z" fill="white"/>
<path d="M264.48 208.278C264.408 208.278 264.33 208.248 264.276 208.2C264.204 208.134 264.168 208.032 264.186 207.936L265.122 201.834C265.14 201.714 265.23 201.618 265.344 201.588C268.224 200.868 270.78 200.004 272.946 199.014C273.03 198.972 273.132 198.978 273.216 199.02C273.3 199.068 273.354 199.146 273.372 199.236L274.212 204.714C274.23 204.846 274.164 204.972 274.05 205.026C270.786 206.634 267.084 207.678 264.552 208.266C264.528 208.266 264.504 208.272 264.486 208.272L264.48 208.278ZM265.68 202.122L264.84 207.588C267.264 207.006 270.6 206.034 273.576 204.594L272.826 199.722C270.756 200.64 268.35 201.444 265.674 202.122H265.68Z" fill="#153456"/>
</svg>
